<svg xmlns="http://www.w3.org/2000/svg" width="615.331" height="378.23" class="px-2 img-fluid px-md-0"><g data-name="Group 5835"><g data-name="Background Complete"><g data-name="Group 5164"><g data-name="Group 5131"><g data-name="Group 5127"><g data-name="Group 5126"><path data-name="Rectangle 6433" fill="#f9f9f9" d="M.239 43.635h133.552v89.421H.239z"></path></g></g><g data-name="Group 5130"><g data-name="Group 5129"><g data-name="Group 5128"><path data-name="Path 3349" d="M133.792 133.057s-.014-.559-.021-1.627-.012-2.654-.021-4.718l-.049-17.985-.1-65.092.191.191L.25 43.874H.239l.239-.239-.02 89.421-.219-.219 96.216.108 27.489.059 7.312.026 1.888.013c.425 0 .648.013.648.013s-.206.009-.623.013l-1.863.012-7.268.027-27.439.059-96.359.108H.021v-.219l-.02-89.421v-.239h.25l133.542.047h.191v.191l-.1 65.211-.048 17.942-.022 4.682c-.005 1.066-.022 1.588-.022 1.588z" fill="#e0e0e0"></path></g></g></g></g><g data-name="Group 5134"><g data-name="Group 5133"><g data-name="Group 5132"><path data-name="Path 3350" d="M.243 51.615c0-.132 29.874-.239 66.718-.239s66.724.107 66.724.239-29.868.239-66.724.239S.243 51.747.243 51.615z" fill="#e0e0e0"></path></g></g></g><g data-name="Group 5141"><g data-name="Group 5136"><g data-name="Group 5135" opacity="0.3"><path data-name="Path 3351" d="M5.504 47.59a1.07 1.07 0 11-1.07-1.071 1.07 1.07 0 011.07 1.071z" fill="#e0e0e0"></path></g></g><g data-name="Group 5138"><g data-name="Group 5137" opacity="0.3"><path data-name="Path 3352" d="M9.176 47.59a1.07 1.07 0 11-1.071-1.071 1.07 1.07 0 011.071 1.071z" fill="#e0e0e0"></path></g></g><g data-name="Group 5140"><g data-name="Group 5139" opacity="0.3"><path data-name="Path 3353" d="M12.791 47.59a1.07 1.07 0 11-1.07-1.071 1.07 1.07 0 011.07 1.071z" fill="#e0e0e0"></path></g></g></g><g data-name="Group 5143"><g data-name="Group 5142"><path data-name="Rectangle 6434" fill="#e0e0e0" d="M11.721 60.94h35.625v35.625H11.721z"></path></g></g><g data-name="Group 5146"><g data-name="Group 5145"><g data-name="Group 5144"><path data-name="Path 3354" d="M115.48 71.01c0 .132-13.895.239-31.03.239s-31.032-.108-31.032-.239 13.891-.239 31.032-.239 31.03.107 31.03.239z" fill="#e0e0e0"></path></g></g></g><g data-name="Group 5149"><g data-name="Group 5148"><g data-name="Group 5147"><path data-name="Path 3355" d="M115.48 77.63c0 .132-13.895.239-31.03.239s-31.032-.107-31.032-.239 13.891-.239 31.032-.239 31.03.107 31.03.239z" fill="#e0e0e0"></path></g></g></g><g data-name="Group 5152"><g data-name="Group 5151"><g data-name="Group 5150"><path data-name="Path 3356" d="M115.48 84.25c0 .132-13.895.239-31.03.239s-31.032-.107-31.032-.239 13.891-.239 31.032-.239 31.03.107 31.03.239z" fill="#e0e0e0"></path></g></g></g><g data-name="Group 5155"><g data-name="Group 5154"><g data-name="Group 5153"><path data-name="Path 3357" d="M90.095 90.87a8.3 8.3 0 01-1.442.094l-3.93.076c-3.319.043-7.9.07-12.967.07s-9.65-.027-12.97-.07l-3.93-.076a8.282 8.282 0 01-1.441-.094 8.464 8.464 0 011.441-.093l3.93-.075c3.319-.044 7.9-.07 12.97-.07s9.648.026 12.967.07l3.93.075a8.482 8.482 0 011.442.093z" fill="#e0e0e0"></path></g></g></g><g data-name="Group 5157"><g data-name="Group 5156"><path data-name="Rectangle 6435" fill="#e0e0e0" d="M13.95 108.576h16.742v16.742H13.95z"></path></g></g><g data-name="Group 5159"><g data-name="Group 5158"><path data-name="Rectangle 6436" fill="#e0e0e0" d="M44.312 108.576h16.742v16.742H44.312z"></path></g></g><g data-name="Group 5161"><g data-name="Group 5160"><path data-name="Rectangle 6437" fill="#e0e0e0" d="M74.674 108.576h16.742v16.742H74.674z"></path></g></g><g data-name="Group 5163"><g data-name="Group 5162"><path data-name="Rectangle 6438" fill="#e0e0e0" d="M105.036 108.576h16.742v16.742h-16.742z"></path></g></g></g><g data-name="Group 5193"><g data-name="Group 5170"><g data-name="Group 5166"><g data-name="Group 5165"><path data-name="Path 3589" d="M153.498.182H268.54V46.91H153.498z" fill="#f9f9f9"></path></g></g><g data-name="Group 5169"><g data-name="Group 5168"><g data-name="Group 5167"><path data-name="Path 3358" d="M268.541 46.911s-.009-.288-.013-.835-.008-1.364-.013-2.425l-.032-9.3-.069-34.17.128.128-115.036.056h-.008l.182-.182c0 16.363-.005 32.159-.008 46.728l-.174-.175 82.483.082 23.928.048 6.4.022 1.658.011c.374 0 .569.011.569.011s-.182.007-.548.011l-1.637.011-6.367.022-23.888.048-82.6.082h-.174v-.174c0-14.569-.005-30.365-.008-46.728V0h.19l115.034.054h.129v.128l-.069 34.247-.032 9.271-.014 2.4c-.003.547-.011.811-.011.811z" fill="#e0e0e0"></path></g></g></g></g><g data-name="Group 5173"><g data-name="Group 5172"><g data-name="Group 5171"><path data-name="Path 3359" d="M153.616 6.481c0-.1 25.715-.182 57.428-.182s57.432.082 57.432.182-25.709.182-57.432.182-57.428-.082-57.428-.182z" fill="#e0e0e0"></path></g></g></g><g data-name="Group 5180"><g data-name="Group 5175"><g data-name="Group 5174" opacity="0.3"><path data-name="Path 3360" d="M158.43 3.667a.835.835 0 11-.835-.835.835.835 0 01.835.835z" fill="#ebebeb"></path></g></g><g data-name="Group 5177"><g data-name="Group 5176" opacity="0.3"><path data-name="Path 3361" d="M161.292 3.667a.835.835 0 11-.835-.835.835.835 0 01.835.835z" fill="#ebebeb"></path></g></g><g data-name="Group 5179"><g data-name="Group 5178" opacity="0.3"><circle data-name="Ellipse 160" cx="0.835" cy="0.835" r="0.835" fill="#ebebeb" transform="translate(162.441 2.83)"></circle></g></g></g><g data-name="Group 5182"><g data-name="Group 5181"><path data-name="Rectangle 6440" fill="#e0e0e0" d="M163.275 14.079h27.787v27.787h-27.787z"></path></g></g><g data-name="Group 5192"><g data-name="Group 5185"><g data-name="Group 5184"><g data-name="Group 5183"><path data-name="Path 3362" d="M260.58 21.525c0 .1-14.3.182-31.934.182s-31.937-.082-31.937-.182 14.3-.182 31.937-.182 31.934.082 31.934.182z" fill="#e0e0e0"></path></g></g></g><g data-name="Group 5188"><g data-name="Group 5187"><g data-name="Group 5186"><path data-name="Path 3363" d="M260.58 27.186c0 .1-14.3.182-31.934.182s-31.937-.082-31.937-.182 14.3-.182 31.937-.182 31.934.082 31.934.182z" fill="#e0e0e0"></path></g></g></g><g data-name="Group 5191"><g data-name="Group 5190"><g data-name="Group 5189"><path data-name="Path 3364" d="M237.826 32.847a1.738 1.738 0 01-.417.037l-1.2.034-4.406.058-14.536.053-14.536-.049-4.406-.058-1.2-.034a1.738 1.738 0 01-.417-.037 1.862 1.862 0 01.417-.037l1.2-.034 4.406-.057 14.538-.053 14.536.053 4.406.057 1.2.034a1.862 1.862 0 01.415.033z" fill="#e0e0e0"></path></g></g></g></g></g><g data-name="Group 5216"><g data-name="Group 5196"><g data-name="Group 5195"><g data-name="Group 5194"><path data-name="Path 3365" d="M578.94 62.545a4.226 4.226 0 01.652-.74l1.891-1.9c1.61-1.59 3.854-3.765 6.352-6.147l.057-.053v.321a574.615 574.615 0 01-6.4-6.027l-1.9-1.862a4.136 4.136 0 01-.656-.726 4.261 4.261 0 01.772.6l2 1.759c1.673 1.5 3.965 3.594 6.482 5.931l.172.16-.169.162-.057.054a550.589 550.589 0 01-6.44 6.053l-1.987 1.8a4.234 4.234 0 01-.769.615z" fill="#e0e0e0"></path></g></g></g><g data-name="Group 5199"><g data-name="Group 5198"><g data-name="Group 5197"><path data-name="Path 3366" d="M559.515 45.41a4.233 4.233 0 01-.652.74l-1.891 1.9a532.731 532.731 0 01-6.352 6.147l-.057.053v-.321a574.615 574.615 0 016.4 6.027l1.9 1.862a4.145 4.145 0 01.656.726 4.254 4.254 0 01-.772-.6l-2-1.759a533.161 533.161 0 01-6.482-5.931l-.172-.16.169-.162.057-.054c2.5-2.382 4.776-4.521 6.44-6.053l1.987-1.8a4.254 4.254 0 01.769-.615z" fill="#e0e0e0"></path></g></g></g><g data-name="Group 5202"><g data-name="Group 5201"><g data-name="Group 5200"><path data-name="Path 3367" d="M564.501 66.581c-.114-.042 1.925-5.774 4.553-12.8s4.85-12.687 4.964-12.645-1.925 5.773-4.554 12.8-4.85 12.688-4.963 12.645z" fill="#e0e0e0"></path></g></g></g><g data-name="Group 5205"><g data-name="Group 5204"><g data-name="Group 5203"><path data-name="Path 3368" d="M601.011 78.843s-.013-.333-.02-.958-.011-1.559-.02-2.757l-.047-10.441-.095-37.324.182.183-63.176.037h-.005l.219-.22-.023 51.481-.2-.2 45.623.1 12.931.052 3.432.024.887.011c.2 0 .308.011.308.011s-.092.007-.285.011l-.866.011-3.395.024-12.887.053-45.749.1h-.2v-.2l-.024-51.481v-.22h.224l63.176.037h.183v.183l-.095 37.44-.047 10.4-.021 2.722c.004.615-.01.921-.01.921z" fill="#e0e0e0"></path></g></g></g><g data-name="Group 5208"><g data-name="Group 5207"><g data-name="Group 5206"><path data-name="Path 3369" d="M601.507 35.001c0 .121-14.262.22-31.851.22s-31.854-.1-31.854-.22 14.259-.221 31.854-.221 31.851.104 31.851.221z" fill="#e0e0e0"></path></g></g></g><g data-name="Group 5215"><g data-name="Group 5210"><g data-name="Group 5209"><path data-name="Path 3370" d="M542.986 31.243a.851.851 0 11-.851-.853.852.852 0 01.851.853z" fill="#e0e0e0"></path></g></g><g data-name="Group 5212"><g data-name="Group 5211"><path data-name="Path 3371" d="M546.087 31.243a.851.851 0 11-.851-.853.852.852 0 01.851.853z" fill="#e0e0e0"></path></g></g><g data-name="Group 5214"><g data-name="Group 5213"><path data-name="Path 3372" d="M549.188 31.243a.851.851 0 11-.854-.853.852.852 0 01.854.853z" fill="#e0e0e0"></path></g></g></g></g><g data-name="Group 5250"><g data-name="Group 5232"><g data-name="Group 5218"><g data-name="Group 5217"><path data-name="Path 3373" d="M586.454 305.225a19.349 19.349 0 0112-1.458c2.177.36 4.448 1.011 5.93 2.647s1.762 4.513.061 5.919a5.675 5.675 0 01-3.738.948c-3.173-.037-6.694-.6-9.229 1.314-1.446 1.089-2.409 2.9-4.138 3.436a4.088 4.088 0 01-4.5-2 6.989 6.989 0 01-.509-5.155 7.872 7.872 0 014.123-5.651z" fill="#00ff7f"></path></g></g><g data-name="Group 5220"><g data-name="Group 5219"><path data-name="Path 3374" d="M578.09 289.078c2.233 3.188 6.572 2.133 8.583.187s2.862-4.767 3.636-7.457c1.769-6.145 3.552-12.593 2.237-18.851a10.476 10.476 0 00-2.408-5.126 5.472 5.472 0 00-5.185-1.726c-2.188.578-3.547 2.721-4.53 4.759a44.946 44.946 0 00-4.441 19.285c-.01 3.106.355 6.364 2.108 8.929" fill="#00d66b"></path></g></g><g data-name="Group 5222"><g data-name="Group 5221"><path data-name="Path 3375" d="M571.959 293.653c2.424-2.876 2.883-7.072 1.806-10.676a20.58 20.58 0 00-6.324-9.178 34.029 34.029 0 00-11.323-6.681 12.07 12.07 0 00-5.093-.866 5.345 5.345 0 00-4.273 2.586c-1.192 2.273-.049 5.029 1.186 7.278a86.206 86.206 0 007.437 11.325c2.229 2.875 4.783 5.71 8.181 7.008s6.926 1.146 8.727-1.21" fill="#00ff7f"></path></g></g><g data-name="Group 5225"><g data-name="Group 5224"><g data-name="Group 5223"><path data-name="Path 3376" d="M577.938 337.177a6.967 6.967 0 00.2-1.449c.1-1.055.232-2.379.385-3.955a57.071 57.071 0 01.889-5.8 44.723 44.723 0 012.108-6.845 25.2 25.2 0 013.5-6.194 13.048 13.048 0 014.419-3.674 12.351 12.351 0 013.722-1.158 7.009 7.009 0 001.443-.209 6.778 6.778 0 00-1.468-.023 11.263 11.263 0 00-3.88 1.009 13.03 13.03 0 00-4.662 3.706 24.646 24.646 0 00-3.623 6.318 41.9 41.9 0 00-2.092 6.957 48.965 48.965 0 00-.772 5.873 85.36 85.36 0 00-.2 3.979 6.859 6.859 0 00.031 1.465z" fill="#00d66b"></path></g></g></g><g data-name="Group 5228"><g data-name="Group 5227"><g data-name="Group 5226"><path data-name="Path 3377" d="M578.211 334.134a2.856 2.856 0 00.039-.673c0-.505 0-1.141-.005-1.922-.005-1.668 0-4.083.085-7.064.148-5.963.661-12.38 1.653-21.428.939-8.507 2.2-18.407 3.53-24.845.285-1.464.573-2.782.843-3.935s.478-2.154.691-2.96l.449-1.869a.338.338 0 10-.116-.033l-.559 1.842c-.247.8-.5 1.79-.791 2.941s-.618 2.463-.931 3.925a218.393 218.393 0 00-3.71 23.053c-.994 9.066-1.442 17.321-1.481 23.3-.035 2.989.028 5.409.1 7.078l.118 1.921a2.866 2.866 0 00.085.669z" fill="#00ff7f"></path></g></g></g><g data-name="Group 5231"><g data-name="Group 5230"><g data-name="Group 5229"><path data-name="Path 3378" d="M578.252 318.211a12.846 12.846 0 00-.014-2.008c-.074-1.291-.252-3.156-.616-5.441a71.588 71.588 0 00-1.77-7.927 64.784 64.784 0 00-3.315-9.38 49.964 49.964 0 00-9.732-15.158 24.633 24.633 0 00-2.291-2.129c-.351-.3-.661-.593-.978-.828l-.888-.612a12.987 12.987 0 00-1.691-1.083 59.983 59.983 0 015.541 4.944 52.634 52.634 0 019.492 15.1 74.019 74.019 0 013.334 9.294 80.52 80.52 0 011.883 7.848c.415 2.262.655 4.108.8 5.387a12.88 12.88 0 00.245 1.993z" fill="#00d66b"></path></g></g></g></g><g data-name="Group 5234"><g data-name="Group 5233"><path data-name="Path 3379" d="M562.862 346.298l1.6 21.857h28.079l1.6-21.857z" fill="#d58b00"></path></g></g><g data-name="Group 5236"><g data-name="Group 5235"><path data-name="Rectangle 6441" fill="#d58b00" d="M560.15 337.683h37.333v8.615H560.15z"></path></g></g><g data-name="Group 5238"><g data-name="Group 5237"><path data-name="Path 3380" d="M560.15 367.319v2.391h36.716v-2.388z" fill="#b27400"></path></g></g><g data-name="Group 5240"><g data-name="Group 5239"><path data-name="Path 3381" d="M563.623 373.91l-1.719-4.2h33.624l-2.006 4.2z" fill="#b27400"></path></g></g><g data-name="Group 5243"><g data-name="Group 5242"><g data-name="Group 5241"><path data-name="Path 3382" d="M593.609 353.442a.947.947 0 01-.131.2l-.42.556-1.635 2.093-.073.093-.07-.1-4.019-5.559h.231l-3.957 5.6-.125.175-.139-.165-4.692-5.582h.271l-.259.324-4.2 5.26-.14.175-.129-.182-3.958-5.6.23.011-4.875 5.554-.087.1-.066-.11-1.527-2.565-.391-.682a1.1 1.1 0 01-.12-.244 1.078 1.078 0 01.164.217l.433.657 1.6 2.518-.153-.012 4.8-5.622.121-.142.109.153c1.215 1.694 2.557 3.569 3.994 5.575l-.269-.008 4.186-5.268.258-.324.133-.168.137.164 4.68 5.594-.263.01c1.444-2.013 2.789-3.89 4-5.574l.117-.164.115.164 3.934 5.618h-.143l1.7-2.041.456-.527c.11-.119.172-.177.172-.172z" fill="#f5f5f5"></path></g></g></g><g data-name="Group 5246"><g data-name="Group 5245"><g data-name="Group 5244"><path data-name="Path 3383" d="M594.523 346.154c0 .1-7.036.175-15.713.175s-15.714-.079-15.714-.175 7.035-.175 15.714-.175 15.713.078 15.713.175z" fill="#f5f5f5"></path></g></g></g><g data-name="Group 5249"><g data-name="Group 5248"><g data-name="Group 5247"><path data-name="Path 3384" d="M595.942 369.942c0 .1-7.647.174-17.077.174s-17.078-.078-17.078-.174 7.645-.175 17.078-.175 17.077.079 17.077.175z" fill="#f5f5f5"></path></g></g></g></g></g><g data-name="Group 5402"><g data-name="Group 5400"><g data-name="Group 5267"><g data-name="Group 5254"><g data-name="Group 5253"><g data-name="Group 5252"><g data-name="Group 5251"><path data-name="Path 3588" d="M74.821 65.12h448a5.91 5.91 0 015.91 5.91v285.98a12.774 12.774 0 01-12.774 12.774H80.795a12.774 12.774 0 01-12.774-12.773V71.92a6.8 6.8 0 016.8-6.8z" fill="#003188"></path></g></g></g></g><g data-name="Group 5258"><g data-name="Group 5257"><g data-name="Group 5256"><g data-name="Group 5255"><path data-name="Path 3587" d="M48.755 347.252h499.148v14.625a12.033 12.033 0 01-12.033 12.033H60.788a12.033 12.033 0 01-12.033-12.033z" fill="#042154"></path></g></g></g></g><g data-name="Group 5262"><g data-name="Group 5261"><g data-name="Group 5260"><g data-name="Group 5259"><path data-name="Rectangle 6444" fill="#ebebeb" d="M80.388 77.225h434.691v257.284H80.388z"></path></g></g></g></g><g data-name="Group 5266"><g data-name="Group 5265"><g data-name="Group 5264"><g data-name="Group 5263"><path data-name="Path 3385" d="M252.961 347.252l6.194 9.852h87.157l5.752-9.852z" fill="#f2b138"></path></g></g></g></g></g><g data-name="Group 5399"><g data-name="Group 5269"><g data-name="Group 5268"><path data-name="Rectangle 6445" fill="#002360" d="M93.286 92.131h409.945v242.378H93.286z"></path></g></g><g data-name="Group 5272"><g data-name="Group 5271"><g data-name="Group 5270"><path data-name="Path 3386" d="M124.738 327.396c-.212 0-.384-51.622-.384-115.287 0-63.686.172-115.3.384-115.3s.385 51.611.385 115.3c0 63.668-.173 115.287-.385 115.287z" fill="#e0e0e0"></path></g></g></g><g data-name="Group 5275"><g data-name="Group 5274"><g data-name="Group 5273"><path data-name="Path 3387" d="M116.469 117.713c0 .213-2.982.385-6.658.385s-6.659-.172-6.659-.385 2.981-.384 6.659-.384 6.658.169 6.658.384z" fill="#e0e0e0"></path></g></g></g><g data-name="Group 5278"><g data-name="Group 5277"><g data-name="Group 5276"><path data-name="Path 3388" d="M116.982 104.634c0 .212-2.982.385-6.658.385s-6.66-.173-6.66-.385 2.982-.384 6.66-.384 6.658.167 6.658.384z" fill="#e0e0e0"></path></g></g></g><g data-name="Group 5281"><g data-name="Group 5280"><g data-name="Group 5279"><path data-name="Path 3389" d="M116.469 131.818c0 .212-2.982.384-6.658.384s-6.659-.172-6.659-.384 2.981-.385 6.659-.385 6.658.17 6.658.385z" fill="#e0e0e0"></path></g></g></g><g data-name="Group 5284"><g data-name="Group 5283"><g data-name="Group 5282"><path data-name="Path 3390" d="M116.469 145.919c0 .212-2.982.385-6.658.385s-6.659-.173-6.659-.385 2.981-.384 6.659-.384 6.658.172 6.658.384z" fill="#e0e0e0"></path></g></g></g><g data-name="Group 5287"><g data-name="Group 5286"><g data-name="Group 5285"><path data-name="Path 3391" d="M116.469 160.022c0 .213-2.982.385-6.658.385s-6.659-.172-6.659-.385 2.981-.384 6.659-.384 6.658.172 6.658.384z" fill="#e0e0e0"></path></g></g></g><g data-name="Group 5290"><g data-name="Group 5289"><g data-name="Group 5288"><path data-name="Path 3392" d="M116.469 174.125c0 .212-2.982.385-6.658.385s-6.659-.173-6.659-.385 2.981-.385 6.659-.385 6.658.173 6.658.385z" fill="#e0e0e0"></path></g></g></g><g data-name="Group 5293"><g data-name="Group 5292"><g data-name="Group 5291"><path data-name="Path 3393" d="M116.469 188.228c0 .213-2.982.385-6.658.385s-6.659-.172-6.659-.385 2.981-.384 6.659-.384 6.658.172 6.658.384z" fill="#e0e0e0"></path></g></g></g><g data-name="Group 5296"><g data-name="Group 5295"><g data-name="Group 5294"><path data-name="Path 3394" d="M116.469 202.331c0 .212-2.982.384-6.658.384s-6.659-.172-6.659-.384 2.981-.385 6.659-.385 6.658.175 6.658.385z" fill="#e0e0e0"></path></g></g></g><g data-name="Group 5299"><g data-name="Group 5298"><g data-name="Group 5297"><path data-name="Path 3395" d="M116.469 216.434c0 .213-2.982.385-6.658.385s-6.659-.172-6.659-.385 2.981-.384 6.659-.384 6.658.172 6.658.384z" fill="#e0e0e0"></path></g></g></g><g data-name="Group 5302"><g data-name="Group 5301"><g data-name="Group 5300"><path data-name="Path 3396" d="M116.469 230.537c0 .212-2.982.384-6.658.384s-6.659-.172-6.659-.384 2.981-.385 6.659-.385 6.658.173 6.658.385z" fill="#e0e0e0"></path></g></g></g><g data-name="Group 5305"><g data-name="Group 5304"><g data-name="Group 5303"><path data-name="Path 3397" d="M116.469 244.64c0 .212-2.982.384-6.658.384s-6.659-.172-6.659-.384 2.981-.385 6.659-.385 6.658.173 6.658.385z" fill="#e0e0e0"></path></g></g></g><g data-name="Group 5308"><g data-name="Group 5307"><g data-name="Group 5306"><path data-name="Path 3398" d="M116.469 258.743c0 .212-2.982.384-6.658.384s-6.659-.172-6.659-.384 2.981-.385 6.659-.385 6.658.172 6.658.385z" fill="#e0e0e0"></path></g></g></g><g data-name="Group 5311"><g data-name="Group 5310"><g data-name="Group 5309"><path data-name="Path 3399" d="M116.469 272.846c0 .212-2.982.385-6.658.385s-6.659-.173-6.659-.385 2.981-.385 6.659-.385 6.658.173 6.658.385z" fill="#e0e0e0"></path></g></g></g><g data-name="Group 5314"><g data-name="Group 5313"><g data-name="Group 5312"><path data-name="Path 3400" d="M116.469 286.945c0 .213-2.982.385-6.658.385s-6.659-.172-6.659-.385 2.981-.384 6.659-.384 6.658.176 6.658.384z" fill="#e0e0e0"></path></g></g></g><g data-name="Group 5317"><g data-name="Group 5316"><g data-name="Group 5315"><path data-name="Path 3401" d="M116.469 301.052c0 .212-2.982.384-6.658.384s-6.659-.172-6.659-.384 2.981-.385 6.659-.385 6.658.173 6.658.385z" fill="#e0e0e0"></path></g></g></g><g data-name="Group 5320"><g data-name="Group 5319"><g data-name="Group 5318"><path data-name="Path 3402" d="M116.469 315.155c0 .213-2.982.385-6.658.385s-6.659-.172-6.659-.385 2.981-.384 6.659-.384 6.658.172 6.658.384z" fill="#e0e0e0"></path></g></g></g><g data-name="Group 5323"><g data-name="Group 5322"><g data-name="Group 5321"><path data-name="Path 3403" d="M169.851 116.882c0 .212-7.738.385-17.281.385s-17.283-.173-17.283-.385 7.737-.385 17.283-.385 17.281.173 17.281.385z" fill="#f2b138"></path></g></g></g><g data-name="Group 5326"><g data-name="Group 5325"><g data-name="Group 5324"><path data-name="Path 3404" d="M169.851 315.155c0 .213-7.738.385-17.281.385s-17.283-.172-17.283-.385 7.737-.384 17.283-.384 17.281.172 17.281.384z" fill="#f2b138"></path></g></g></g><g data-name="Group 5329"><g data-name="Group 5328"><g data-name="Group 5327"><path data-name="Path 3405" d="M217.985 145.919c0 .212-14.478.385-32.333.385s-32.336-.173-32.336-.385 14.474-.384 32.336-.384 32.333.172 32.333.384z" fill="#f2b138"></path></g></g></g><g data-name="Group 5332"><g data-name="Group 5331"><g data-name="Group 5330"><path data-name="Path 3406" d="M292.763 145.919c0 .212-14.478.385-32.333.385s-32.335-.173-32.335-.385 14.474-.384 32.335-.384 32.333.172 32.333.384z" fill="#e0e0e0"></path></g></g></g><g data-name="Group 5335"><g data-name="Group 5334"><g data-name="Group 5333"><path data-name="Path 3407" d="M264.183 160.022c0 .213-21.336.385-47.65.385s-47.654-.172-47.654-.385 21.332-.384 47.654-.384 47.65.172 47.65.384z" fill="#e0e0e0"></path></g></g></g><g data-name="Group 5338"><g data-name="Group 5337"><g data-name="Group 5336"><path data-name="Path 3408" d="M264.183 174.125c0 .212-21.336.385-47.65.385s-47.654-.173-47.654-.385 21.332-.385 47.654-.385 47.65.173 47.65.385z" fill="#e0e0e0"></path></g></g></g><g data-name="Group 5341"><g data-name="Group 5340"><g data-name="Group 5339"><path data-name="Path 3409" d="M329.785 216.434c0 .213-21.335.385-47.649.385s-47.654-.172-47.654-.385 21.331-.384 47.654-.384 47.649.172 47.649.384z" fill="#e0e0e0"></path></g></g></g><g data-name="Group 5344"><g data-name="Group 5343"><g data-name="Group 5342"><path data-name="Path 3410" d="M301.476 188.228c0 .213-21.336.385-47.65.385s-47.654-.172-47.654-.385 21.332-.384 47.654-.384 47.65.172 47.65.384z" fill="#e0e0e0"></path></g></g></g><g data-name="Group 5347"><g data-name="Group 5346"><g data-name="Group 5345"><path data-name="Path 3411" d="M417.94 188.228c0 .213-21.336.385-47.65.385s-47.654-.172-47.654-.385 21.331-.384 47.654-.384 47.65.172 47.65.384z" fill="#e0e0e0"></path></g></g></g><g data-name="Group 5350"><g data-name="Group 5349"><g data-name="Group 5348"><path data-name="Path 3412" d="M377.437 160.022c0 .213-21.336.385-47.65.385s-47.654-.172-47.654-.385 21.332-.384 47.654-.384 47.65.172 47.65.384z" fill="#fafafa"></path></g></g></g><g data-name="Group 5353"><g data-name="Group 5352"><g data-name="Group 5351"><path data-name="Path 3413" d="M443.269 216.434c0 .213-21.336.385-47.65.385s-47.654-.172-47.654-.385 21.332-.384 47.654-.384 47.65.172 47.65.384z" fill="#fafafa"></path></g></g></g><g data-name="Group 5356"><g data-name="Group 5355"><g data-name="Group 5354"><path data-name="Path 3414" d="M430.124 174.125c0 .212-33.132.385-73.992.385s-74-.173-74-.385 33.125-.385 74-.385 73.992.173 73.992.385z" fill="#455a64"></path></g></g></g><g data-name="Group 5359"><g data-name="Group 5358"><g data-name="Group 5357"><path data-name="Path 3415" d="M169.851 131.818c0 .212-7.738.384-17.281.384s-17.281-.174-17.281-.384 7.737-.385 17.283-.385 17.279.17 17.279.385z" fill="#fafafa"></path></g></g></g><g data-name="Group 5362"><g data-name="Group 5361"><g data-name="Group 5360"><path data-name="Path 3416" d="M169.851 301.052c0 .212-7.738.384-17.281.384s-17.283-.172-17.283-.384 7.737-.385 17.283-.385 17.281.173 17.281.385z" fill="#fafafa"></path></g></g></g><g data-name="Group 5365"><g data-name="Group 5364"><g data-name="Group 5363"><path data-name="Path 3417" d="M186.974 188.228c0 .213-7.739.385-17.281.385s-17.282-.172-17.282-.385 7.736-.384 17.282-.384 17.281.172 17.281.384z" fill="#fafafa"></path></g></g></g><g data-name="Group 5368"><g data-name="Group 5367"><g data-name="Group 5366"><path data-name="Path 3418" d="M463.988 188.228c0 .213-7.738.385-17.281.385s-17.282-.172-17.282-.385 7.736-.384 17.282-.384 17.281.172 17.281.384z" fill="#ff725e"></path></g></g></g><g data-name="Group 5371"><g data-name="Group 5370"><g data-name="Group 5369"><path data-name="Path 3419" d="M217.985 244.558c0 .212-14.478.384-32.333.384s-32.336-.172-32.336-.384 14.474-.385 32.336-.385 32.333.172 32.333.385z" fill="#f2b138"></path></g></g></g><g data-name="Group 5374"><g data-name="Group 5373"><g data-name="Group 5372"><path data-name="Path 3420" d="M292.763 244.558c0 .212-14.478.384-32.333.384s-32.335-.172-32.335-.384 14.474-.385 32.335-.385 32.333.172 32.333.385z" fill="#e0e0e0"></path></g></g></g><g data-name="Group 5377"><g data-name="Group 5376"><g data-name="Group 5375"><path data-name="Path 3421" d="M264.183 258.66c0 .212-21.336.385-47.65.385s-47.654-.173-47.654-.385 21.332-.385 47.654-.385 47.65.173 47.65.385z" fill="#e0e0e0"></path></g></g></g><g data-name="Group 5380"><g data-name="Group 5379"><g data-name="Group 5378"><path data-name="Path 3422" d="M264.183 272.763c0 .212-21.336.385-47.65.385s-47.654-.173-47.654-.385 21.332-.384 47.654-.384 47.65.172 47.65.384z" fill="#e0e0e0"></path></g></g></g><g data-name="Group 5383"><g data-name="Group 5382"><g data-name="Group 5381"><path data-name="Path 3423" d="M301.476 286.866c0 .212-21.336.384-47.65.384s-47.654-.172-47.654-.384 21.332-.385 47.654-.385 47.65.175 47.65.385z" fill="#e0e0e0"></path></g></g></g><g data-name="Group 5386"><g data-name="Group 5385"><g data-name="Group 5384"><path data-name="Path 3424" d="M417.94 286.866c0 .212-21.336.384-47.65.384s-47.654-.172-47.654-.384 21.331-.385 47.654-.385 47.65.175 47.65.385z" fill="#e0e0e0"></path></g></g></g><g data-name="Group 5389"><g data-name="Group 5388"><g data-name="Group 5387"><path data-name="Path 3425" d="M377.437 258.66c0 .212-21.336.385-47.65.385s-47.654-.173-47.654-.385 21.332-.385 47.654-.385 47.65.173 47.65.385z" fill="#fafafa"></path></g></g></g><g data-name="Group 5392"><g data-name="Group 5391"><g data-name="Group 5390"><path data-name="Path 3426" d="M430.124 272.763c0 .212-33.132.385-73.992.385s-74-.173-74-.385 33.125-.384 74-.384 73.992.172 73.992.384z" fill="#455a64"></path></g></g></g><g data-name="Group 5395"><g data-name="Group 5394"><g data-name="Group 5393"><path data-name="Path 3427" d="M186.974 286.866c0 .212-7.739.384-17.281.384s-17.282-.172-17.282-.384 7.736-.385 17.282-.385 17.281.175 17.281.385z" fill="#fafafa"></path></g></g></g><g data-name="Group 5398"><g data-name="Group 5397"><g data-name="Group 5396"><path data-name="Path 3428" d="M463.988 286.866c0 .212-7.738.384-17.281.384s-17.282-.172-17.282-.384 7.736-.385 17.282-.385 17.281.175 17.281.385z" fill="#ff725e"></path></g></g></g></g></g><g data-name="Group 5401"><path data-name="Path 3429" d="M473.198 356.156c0 .126-88.253.228-197.094.228-108.878 0-197.112-.1-197.112-.228s88.234-.229 197.112-.229c108.841 0 197.094.103 197.094.229z" fill="#263238"></path></g></g><g data-name="Group 5449"><g data-name="Group 5403"><path data-name="Path 3430" d="M64.233 278.852a50.064 50.064 0 00-47.748-13.1 86.962 86.962 0 0048.313 15.1" fill="#00ff7f"></path></g><g data-name="Group 5438"><g data-name="Group 5404"><path data-name="Path 3431" d="M48.038 221.502c1.99-14.07-3.479-29.9-14.013-40.126-.348 13.945 5.539 29.637 14.013 40.126" fill="#00ff7f"></path></g><g data-name="Group 5405"><path data-name="Path 3432" d="M56.462 248.082a75.136 75.136 0 00-34.506-32.977 47.417 47.417 0 0034.639 33.127" fill="#00ff7f"></path></g><g data-name="Group 5406"><path data-name="Path 3433" d="M58.207 253.21c-8.5.238-17.1-.061-25.318-2.235s-16.091-6.354-21.559-12.864a84.6 84.6 0 0146.749 14.272" fill="#00d66b"></path></g><g data-name="Group 5407"><path data-name="Path 3434" d="M53.893 236.317c4.314-16.168 11.431-27.351 24.138-36.411a33.626 33.626 0 01-24.138 36.411" fill="#00d66b"></path></g><g data-name="Group 5408"><path data-name="Path 3435" d="M85.971 264.194a23.937 23.937 0 00-14.538-22.166c.706 8.349 7.264 18.007 14.538 22.166" fill="#00d66b"></path></g><g data-name="Group 5409"><path data-name="Path 3436" d="M90.032 250.566a35.661 35.661 0 0123.36-30.418c-2.935 13.511-10.747 24.757-23.36 30.418" fill="#00ff7f"></path></g><g data-name="Group 5410"><path data-name="Path 3437" d="M83.914 274.759c3-4.287 7.887-6.953 12.948-8.277s10.348-1.441 15.578-1.55a36.418 36.418 0 01-28.128 11.715" fill="#00d66b"></path></g><g data-name="Group 5411"><path data-name="Path 3438" d="M77.839 309.22a39.9 39.9 0 0148.727 23.082c-17.7-3.359-35.167-11.22-48.727-23.082" fill="#00ff7f"></path></g><g data-name="Group 5412"><path data-name="Path 3439" d="M58.413 297.245c2.94 8.692 2.376 19.2-4.16 26.688a31.889 31.889 0 014.16-26.688" fill="#00d66b"></path></g><g data-name="Group 5413"><path data-name="Path 3440" d="M46.932 292.415a32.7 32.7 0 01-18.06 26.532 2.031 2.031 0 01-1.6.262c-.8-.324-.869-1.411-.771-2.266 1.28-11.135 9.53-21.9 20.428-24.528" fill="#00ff7f"></path></g><g data-name="Group 5414"><path data-name="Path 3441" d="M39.432 291.285a26.814 26.814 0 01-39.172.2c12.451-1.363 26.818-2.271 39.172-.2" fill="#00d66b"></path></g><g data-name="Group 5421"><g data-name="Group 5416"><g data-name="Group 5415"><path data-name="Path 3442" d="M37.568 191.746a2.208 2.208 0 00.114.365l.38 1.053 1.5 4.031c.67 1.744 1.443 3.9 2.338 6.393l1.443 4 1.556 4.5c2.205 6.305 4.655 13.873 7.3 22.3 2.6 8.441 5.323 17.76 8.006 27.591a836.647 836.647 0 016.99 27.873c1.941 8.616 3.609 16.394 4.815 22.964l.883 4.681.712 4.19c.451 2.614.837 4.867 1.1 6.716l.653 4.252.182 1.1a2.337 2.337 0 00.078.374 2.251 2.251 0 00-.03-.381l-.135-1.111-.565-4.266c-.232-1.855-.591-4.113-1.017-6.733l-.676-4.2q-.4-2.223-.851-4.691c-1.164-6.583-2.8-14.373-4.718-23a777.828 777.828 0 00-6.958-27.9 836.351 836.351 0 00-8.047-27.6c-2.668-8.423-5.153-15.984-7.4-22.278l-1.588-4.5-1.477-3.987c-.92-2.49-1.719-4.633-2.416-6.367l-1.585-4-.424-1.036a2.189 2.189 0 00-.163-.333z" fill="#263238"></path></g></g><g data-name="Group 5418"><g data-name="Group 5417"><path data-name="Path 3443" d="M105.96 227.362a1.362 1.362 0 00-.215.2l-.6.626a75.76 75.76 0 00-2.213 2.476 87.132 87.132 0 00-7.331 9.775 65.627 65.627 0 00-7.666 16.4c-2.054 6.529-3.328 13.949-4.6 21.7-2.532 15.526-5.638 29.43-7.887 39.489-1.133 5-2.053 9.064-2.7 11.907l-.718 3.241-.175.845a1.324 1.324 0 00-.043.292 1.376 1.376 0 00.091-.281l.221-.835.805-3.221 2.844-11.873c2.333-10.041 5.495-23.946 8.029-39.487 1.269-7.757 2.527-15.154 4.547-21.653a66.386 66.386 0 017.531-16.348 94 94 0 017.188-9.836c.916-1.11 1.648-1.958 2.144-2.532l.559-.658a1.353 1.353 0 00.189-.227z" fill="#263238"></path></g></g><g data-name="Group 5420"><g data-name="Group 5419"><path data-name="Path 3444" d="M35.712 290.758a1.626 1.626 0 00.448.082l1.289.142.931.092 1.1.165c.79.118 1.692.233 2.673.452l1.546.307 1.656.419c1.152.26 2.343.682 3.613 1.065a53.1 53.1 0 017.883 3.474 44.56 44.56 0 017.069 4.91 35.484 35.484 0 012.712 2.6 28.183 28.183 0 012.146 2.476 25.726 25.726 0 011.589 2.19 16.162 16.162 0 011.088 1.731l.66 1.115a1.734 1.734 0 00.26.375 1.624 1.624 0 00-.174-.419l-.585-1.162a14.3 14.3 0 00-1.026-1.785 23.951 23.951 0 00-1.545-2.25 27 27 0 00-2.125-2.54 34.255 34.255 0 00-2.712-2.665 43.02 43.02 0 00-7.127-5 50.692 50.692 0 00-7.976-3.473c-1.284-.375-2.49-.787-3.655-1.032l-1.675-.4-1.56-.269c-.992-.2-1.9-.291-2.7-.384l-1.111-.127-.939-.05-1.3-.053a1.626 1.626 0 00-.453.014z" fill="#263238"></path></g></g></g><g data-name="Group 5423"><g data-name="Group 5422"><path data-name="Path 3445" d="M32.162 227.661a6.2 6.2 0 00.9.864l2.562 2.223c2.177 1.862 5.207 4.407 8.572 7.2s6.43 5.3 8.662 7.091l2.659 2.106a6.263 6.263 0 001.015.722 6.262 6.262 0 00-.9-.866l-2.563-2.223c-2.177-1.862-5.205-4.406-8.57-7.2s-6.425-5.292-8.657-7.087l-2.661-2.107a6.369 6.369 0 00-1.019-.723z" fill="#263238"></path></g></g><g data-name="Group 5425"><g data-name="Group 5424"><path data-name="Path 3446" d="M29.104 244.132c-.038.126 6.5 2.169 14.6 4.562s14.7 4.232 14.738 4.106-6.5-2.168-14.6-4.562-14.701-4.237-14.738-4.106z" fill="#263238"></path></g></g><g data-name="Group 5427"><g data-name="Group 5426"><path data-name="Path 3447" d="M53.245 237.574a5.4 5.4 0 00.675-.939l1.723-2.626c1.462-2.212 3.537-5.228 5.99-8.44s4.822-6.009 6.565-8.006l2.07-2.363a5.376 5.376 0 00.723-.9 5.393 5.393 0 00-.858.775 70.267 70.267 0 00-2.184 2.264c-1.811 1.945-4.226 4.718-6.693 7.942s-4.5 6.285-5.9 8.548a64.062 64.062 0 00-1.6 2.711 5.41 5.41 0 00-.511 1.034z" fill="#263238"></path></g></g><g data-name="Group 5429"><g data-name="Group 5428"><path data-name="Path 3448" d="M75.949 246.716a21.66 21.66 0 001.534 2.522c.978 1.535 2.3 3.671 3.675 6.081s2.53 4.642 3.35 6.266a21.649 21.649 0 001.385 2.607 15.663 15.663 0 00-1.08-2.752c-.745-1.667-1.863-3.933-3.24-6.358s-2.757-4.54-3.808-6.032a15.657 15.657 0 00-1.816-2.334z" fill="#263238"></path></g></g><g data-name="Group 5431"><g data-name="Group 5430"><path data-name="Path 3449" d="M83.719 275.209c.033.064 1.28-.545 3.322-1.464s4.891-2.12 8.112-3.25 6.2-1.965 8.369-2.519 3.523-.856 3.509-.928a3.849 3.849 0 00-.973.1c-.621.093-1.515.261-2.613.5a73.021 73.021 0 00-16.547 5.791c-1.007.5-1.811.926-2.355 1.241a3.782 3.782 0 00-.824.529z" fill="#263238"></path></g></g><g data-name="Group 5433"><g data-name="Group 5432"><path data-name="Path 3450" d="M77.602 309.271a1.4 1.4 0 00.4.137l1.178.3 4.348 1a143.076 143.076 0 0114.2 3.748 63 63 0 0113.249 6.225 50.641 50.641 0 013.651 2.541 12.737 12.737 0 001.316.973c.011-.012-.089-.118-.292-.309s-.5-.474-.909-.808a38.29 38.29 0 00-3.582-2.679 58.164 58.164 0 00-13.279-6.394 118.982 118.982 0 00-14.286-3.627l-4.38-.855a10.979 10.979 0 00-1.614-.252z" fill="#263238"></path></g></g><g data-name="Group 5435"><g data-name="Group 5434"><path data-name="Path 3451" d="M55.491 317.663c.131.018.909-4.567 1.739-10.242s1.4-10.292 1.268-10.312-.908 4.566-1.739 10.242-1.401 10.297-1.268 10.312z" fill="#263238"></path></g></g><g data-name="Group 5437"><g data-name="Group 5436"><path data-name="Path 3452" d="M32.464 309.307a23.964 23.964 0 002.075-2.464c1.244-1.549 2.968-3.683 4.917-6s3.756-4.385 5.068-5.878a24.1 24.1 0 002.07-2.468 3.083 3.083 0 00-.659.565c-.4.384-.97.957-1.658 1.676-1.378 1.436-3.228 3.473-5.183 5.8s-3.642 4.5-4.82 6.1c-.59.8-1.056 1.459-1.365 1.922a3.078 3.078 0 00-.445.747z" fill="#263238"></path></g></g></g><g data-name="Group 5439"><path data-name="Path 3453" d="M93.395 330.661v11.377h-2.844l-10.109 31.917H58.013l-9.8-31.6-3.792-.316v-11.378z" fill="#ff725e"></path></g><g data-name="Group 5440"><path data-name="Path 3454" d="M93.395 330.661v11.377h-2.844l-10.109 31.917H58.013l-9.8-31.6-3.792-.316v-11.378z" fill="#d58b00"></path></g><g data-name="Group 5442"><g data-name="Group 5441"><path data-name="Path 3455" d="M46.319 342.354c0 .132 9.9.239 22.115.239s22.116-.107 22.116-.239-9.9-.238-22.116-.238-22.115.106-22.115.238z" fill="#263238"></path></g></g><g data-name="Group 5444"><g data-name="Group 5443"><path data-name="Path 3456" d="M30.191 269.175a8.857 8.857 0 001.437.388l3.936.949c3.317.822 7.872 2.07 12.814 3.729s9.325 3.423 12.465 4.774l3.709 1.622a8.963 8.963 0 001.379.559 8.742 8.742 0 00-1.3-.726 86.067 86.067 0 00-3.652-1.763 129.342 129.342 0 00-25.34-8.521 80.982 80.982 0 00-3.977-.8 9.1 9.1 0 00-1.471-.211z" fill="#263238"></path></g></g><g data-name="Group 5446"><g data-name="Group 5445"><path data-name="Path 3457" d="M53.765 360.078c0 .132 6.947.239 15.515.239s15.516-.107 15.516-.239-6.945-.238-15.516-.238-15.515.106-15.515.238z" fill="#fafafa"></path></g></g><g data-name="Group 5448"><g data-name="Group 5447"><path data-name="Path 3458" d="M52.893 357.44c0 .132 7.363.239 16.442.239s16.444-.107 16.444-.239-7.361-.238-16.444-.238-16.442.106-16.442.238z" fill="#fafafa"></path></g></g></g><g data-name="Group 5450"><path data-name="Path 3459" d="M601.245 374.138c0 .126-133.678.228-298.539.228-164.919 0-298.567-.1-298.567-.228s133.649-.229 298.567-.229c164.862 0 298.539.103 298.539.229z" fill="#263238"></path></g><g data-name="Speech Bubbles"><g data-name="Group 5499"><g data-name="Group 5452"><path data-name="Path 3460" d="M519.324 40.593h-235v145.539h197.83l12.248 28.178 10.858-28.178h14.063z" fill="#fafafa"></path><g data-name="Group 5451"><path data-name="Path 3461" d="M519.323 40.597c0 1.411.068 56.088.176 145.539v.175h-.176l-14.062.006.169-.117-10.847 28.182-.169.442-.189-.435-12.257-28.174.187.123-178.9.025h-19.161v-.228l.02-145.539v-.209h.208l235 .208-235 .208.208-.208.02 145.539-.228-.228h18.927l178.9.025h.134l.054.123c4.257 9.8 8.4 19.351 12.238 28.182l-.359.008 10.869-28.174.045-.117h.125l14.062.006-.175.175c.114-89.454.179-144.131.181-145.537z" fill="#263238"></path></g></g><g data-name="Group 5498"><g data-name="Group 5454"><g data-name="Group 5453"><path data-name="Path 3462" d="M519.201 54.794c0 .177-52.5.321-117.257.321-64.775 0-117.268-.144-117.268-.321s52.493-.321 117.268-.321c64.753 0 117.257.146 117.257.321z" fill="#263238"></path></g></g><g data-name="Group 5458"><g data-name="Group 5455"><path data-name="Path 3463" d="M296.811 48.366a1.926 1.926 0 11-1.927-1.926 1.926 1.926 0 011.927 1.926z" fill="#263238"></path></g><g data-name="Group 5456"><path data-name="Path 3464" d="M303.78 48.366a1.926 1.926 0 11-1.926-1.926 1.926 1.926 0 011.926 1.926z" fill="#263238"></path></g><g data-name="Group 5457"><path data-name="Path 3465" d="M310.751 48.366a1.926 1.926 0 11-1.926-1.926 1.926 1.926 0 011.926 1.926z" fill="#263238"></path></g></g><g data-name="Group 5459" fill="#f2b138"><path data-name="Path 3466" d="M309.953 80.831l-5.581 2.154 5.581 2.154v1.3l-7.043-2.782v-1.351l7.043-2.783z"></path><path data-name="Path 3467" d="M315.761 75.249h1.367l-5.188 14.81h-1.369z"></path><path data-name="Path 3468" d="M324.645 82.309v1.351l-7.045 2.783v-1.3l5.6-2.154-5.6-2.154v-1.3z"></path><path data-name="Path 3469" d="M326.425 87.496a1.051 1.051 0 011.069-1.069 1.035 1.035 0 011.037 1.069 1.049 1.049 0 01-1.037 1.087 1.065 1.065 0 01-1.069-1.087z"></path><path data-name="Path 3470" d="M329.997 87.496a1.05 1.05 0 011.068-1.069 1.035 1.035 0 011.038 1.069 1.049 1.049 0 01-1.038 1.087 1.064 1.064 0 01-1.068-1.087z"></path><path data-name="Path 3471" d="M333.567 87.496a1.051 1.051 0 011.068-1.069 1.035 1.035 0 011.038 1.069 1.05 1.05 0 01-1.038 1.087 1.065 1.065 0 01-1.068-1.087z"></path></g><g data-name="Group 5461"><g data-name="Group 5460"><path data-name="Path 3472" d="M458.349 101.611c0 .177-34.74.321-77.584.321s-77.591-.144-77.591-.321 34.732-.321 77.591-.321 77.584.144 77.584.321z" fill="#455a64"></path></g></g><g data-name="Group 5463"><g data-name="Group 5462"><path data-name="Path 3473" d="M483.691 102.069c0 .178-3.338.322-7.455.322s-7.455-.144-7.455-.322 3.338-.32 7.455-.32 7.455.143 7.455.32z" fill="#263238"></path></g></g><g data-name="Group 5465"><g data-name="Group 5464"><path data-name="Path 3474" d="M505.481 102.069c0 .178-3.646.322-8.143.322s-8.143-.144-8.143-.322 3.645-.32 8.143-.32 8.143.143 8.143.32z" fill="#263238"></path></g></g><g data-name="Group 5467"><g data-name="Group 5466"><path data-name="Path 3475" d="M401.984 114.685c0 .177-22.081.321-49.313.321s-49.317-.144-49.317-.321 22.076-.321 49.317-.321 49.313.143 49.313.321z" fill="#455a64"></path></g></g><g data-name="Group 5469"><g data-name="Group 5468"><path data-name="Path 3476" d="M401.279 163.466c0 .177-22.081.321-49.313.321s-49.317-.144-49.317-.321 22.076-.321 49.317-.321 49.313.148 49.313.321z" fill="#455a64"></path></g></g><g data-name="Group 5471"><g data-name="Group 5470"><path data-name="Path 3477" d="M437.816 114.685c0 .177-6.008.321-13.418.321s-13.419-.144-13.419-.321 6.006-.321 13.419-.321 13.418.143 13.418.321z" fill="#263238"></path></g></g><g data-name="Group 5473"><g data-name="Group 5472"><path data-name="Path 3478" d="M437.533 163.466c0 .177-6.009.321-13.418.321s-13.419-.144-13.419-.321 6.007-.321 13.419-.321 13.418.148 13.418.321z" fill="#263238"></path></g></g><g data-name="Group 5475"><g data-name="Group 5474"><path data-name="Path 3479" d="M309.824 121.337c0 .177-1.489.321-3.325.321s-3.326-.144-3.326-.321 1.489-.321 3.326-.321 3.325.144 3.325.321z" fill="#f2b138"></path></g></g><g data-name="Group 5477"><g data-name="Group 5476"><path data-name="Path 3480" d="M332.765 121.474c0 .177-3.235.321-7.225.321s-7.226-.144-7.226-.321 3.235-.321 7.226-.321 7.225.144 7.225.321z" fill="#263238"></path></g></g><g data-name="Group 5479"><g data-name="Group 5478"><path data-name="Path 3481" d="M347.445 121.474c0 .177-2.773.321-6.193.321s-6.193-.144-6.193-.321 2.772-.321 6.193-.321 6.193.144 6.193.321z" fill="#263238"></path></g></g><g data-name="Group 5481"><g data-name="Group 5480"><path data-name="Path 3482" d="M366.023 121.474c0 .177-2.825.321-6.308.321s-6.308-.144-6.308-.321 2.824-.321 6.308-.321 6.308.144 6.308.321z" fill="#263238"></path></g></g><g data-name="Group 5483"><g data-name="Group 5482"><path data-name="Path 3483" d="M382.308 121.474c0 .177-2.568.321-5.734.321s-5.734-.144-5.734-.321 2.567-.321 5.734-.321 5.734.144 5.734.321z" fill="#263238"></path></g></g><g data-name="Group 5485"><g data-name="Group 5484"><path data-name="Path 3484" d="M436.211 121.474c0 .177-11.3.321-25.23.321s-25.232-.144-25.232-.321 11.295-.321 25.232-.321 25.23.144 25.23.321z" fill="#263238"></path></g></g><g data-name="Group 5487"><g data-name="Group 5486"><path data-name="Path 3485" d="M308.909 129.824c0 .177-1.284.321-2.867.321s-2.868-.144-2.868-.321 1.284-.321 2.868-.321 2.867.144 2.867.321z" fill="#f2b138"></path></g></g><g data-name="Group 5489"><g data-name="Group 5488"><path data-name="Path 3486" d="M309.139 138.539c0 .178-1.336.321-2.982.321s-2.982-.143-2.982-.321 1.335-.321 2.982-.321 2.982.147 2.982.321z" fill="#f2b138"></path></g></g><g data-name="Group 5491"><g data-name="Group 5490"><path data-name="Path 3487" d="M309.139 148.402c0 .178-1.336.321-2.982.321s-2.982-.143-2.982-.321 1.335-.321 2.982-.321 2.982.144 2.982.321z" fill="#f2b138"></path></g></g><g data-name="Group 5493"><g data-name="Group 5492"><path data-name="Path 3488" d="M363.503 147.945c0 .178-9.962.321-22.248.321s-22.25-.143-22.25-.321 9.96-.321 22.25-.321 22.248.142 22.248.321z" fill="#263238"></path></g></g><g data-name="Group 5495"><g data-name="Group 5494"><path data-name="Path 3489" d="M359.601 138.539c0 .178-9.5.321-21.215.321s-21.218-.143-21.218-.321 9.5-.321 21.218-.321 21.215.147 21.215.321z" fill="#263238"></path></g></g><g data-name="Group 5497"><g data-name="Group 5496"><path data-name="Path 3490" d="M462.13 129.365c0 .177-32.351.321-72.248.321s-72.255-.144-72.255-.321 32.343-.321 72.255-.321 72.248.144 72.248.321z" fill="#263238"></path></g></g></g></g><g data-name="Group 5543"><g data-name="Group 5501"><path data-name="Path 3491" d="M533.76 100.114v123.678l-19.23 16.045H615.1V100.114z" fill="#fafafa"></path><g data-name="Group 5500"><path data-name="Path 3492" d="M533.764 100.11s.476-.011 1.422-.018l4.206-.019 16.194-.043 59.519-.092h.172v.173l.056 139.727v.228h-14.332l-86.467-.016h-.586l.45-.375 19.237-16.037-.072.153c.042-36.978.077-67.917.1-89.622l.053-25.169.024-6.63.011-1.694c0-.38.011-.566.011-.566s.008.2.011.588l.011 1.717.024 6.668.053 25.216c.025 21.673.06 52.568.1 89.492v.094l-.072.061-19.223 16.055-.136-.375 86.467-.017h14.1l-.228.228.056-139.727.172.172-59.413-.092-16.233-.043-4.237-.019c-.95-.006-1.45-.018-1.45-.018z" fill="#263238"></path></g></g><g data-name="Group 5542"><g data-name="Group 5502" fill="#263238"><path data-name="Path 3493" d="M541.151 106.264a1.648 1.648 0 11-1.648-1.649 1.647 1.647 0 011.648 1.649z"></path><path data-name="Path 3494" d="M547.116 106.264a1.648 1.648 0 11-1.649-1.649 1.648 1.648 0 011.649 1.649z"></path><path data-name="Path 3495" d="M553.08 106.264a1.648 1.648 0 11-1.648-1.649 1.647 1.647 0 011.648 1.649z"></path></g><g data-name="Group 5541"><g data-name="Group 5504"><g data-name="Group 5503"><path data-name="Path 3496" d="M592.747 144.371c0 .146-10.312.264-23.03.264s-23.032-.118-23.032-.264 10.31-.264 23.032-.264 23.03.118 23.03.264z" fill="#f2b138"></path></g></g><g data-name="Group 5506"><g data-name="Group 5505"><path data-name="Path 3497" d="M602.351 155.558c0 .146-12.55.264-28.027.264s-28.029-.118-28.029-.264 12.547-.264 28.029-.264 28.027.118 28.027.264z" fill="#f2b138"></path></g></g><g data-name="Group 5508"><g data-name="Group 5507"><path data-name="Path 3498" d="M604.633 197.308c0 .146-13.381.264-29.884.264s-29.885-.118-29.885-.264 13.377-.263 29.885-.263 29.884.112 29.884.263z" fill="#f2b138"></path></g></g><g data-name="Group 5510"><g data-name="Group 5509"><path data-name="Path 3499" d="M551.006 161.251a15.526 15.526 0 01-5.692 0 15.476 15.476 0 015.692 0z" fill="#f2b138"></path></g></g><g data-name="Group 5512"><g data-name="Group 5511"><path data-name="Path 3500" d="M570.632 161.368a72.541 72.541 0 01-12.365 0 72.545 72.545 0 0112.365 0z" fill="#f2b138"></path></g></g><g data-name="Group 5514"><g data-name="Group 5513"><path data-name="Path 3501" d="M583.193 161.368a53.325 53.325 0 01-10.6 0 53.328 53.328 0 0110.6 0z" fill="#f2b138"></path></g></g><g data-name="Group 5516"><g data-name="Group 5515"><path data-name="Path 3502" d="M550.22 168.512a11.532 11.532 0 01-4.906 0 11.569 11.569 0 014.906 0z" fill="#f2b138"></path></g></g><g data-name="Group 5518"><g data-name="Group 5517"><path data-name="Path 3503" d="M550.417 175.97a12.463 12.463 0 01-5.1 0 12.5 12.5 0 015.1 0z" fill="#f2b138"></path></g></g><g data-name="Group 5520"><g data-name="Group 5519"><path data-name="Path 3504" d="M550.417 184.411a12.5 12.5 0 01-5.1 0 12.462 12.462 0 015.1 0z" fill="#f2b138"></path></g></g><g data-name="Group 5522"><g data-name="Group 5521"><path data-name="Path 3505" d="M596.934 184.018c0 .146-8.525.264-19.038.264s-19.04-.118-19.04-.264 8.523-.264 19.04-.264 19.038.119 19.038.264z" fill="#f2b138"></path></g></g><g data-name="Group 5524"><g data-name="Group 5523"><path data-name="Path 3506" d="M593.597 175.97c0 .146-8.129.264-18.155.264s-18.156-.118-18.156-.264 8.127-.263 18.156-.263 18.155.118 18.155.263z" fill="#f2b138"></path></g></g><g data-name="Group 5526"><g data-name="Group 5525"><path data-name="Path 3507" d="M554.133 208.444a12.462 12.462 0 01-5.1 0 12.463 12.463 0 015.1 0z" fill="#f2b138"></path></g></g><g data-name="Group 5528"><g data-name="Group 5527"><path data-name="Path 3508" d="M554.133 216.887a12.463 12.463 0 01-5.1 0 12.5 12.5 0 015.1 0z" fill="#f2b138"></path></g></g><g data-name="Group 5530"><g data-name="Group 5529"><path data-name="Path 3509" d="M600.65 216.496c0 .146-8.524.263-19.038.263s-19.04-.117-19.04-.263 8.523-.264 19.04-.264 19.038.118 19.038.264z" fill="#f2b138"></path></g></g><g data-name="Group 5532"><g data-name="Group 5531"><path data-name="Path 3510" d="M597.314 208.444c0 .146-8.129.264-18.155.264s-18.156-.118-18.156-.264 8.127-.264 18.156-.264 18.155.122 18.155.264z" fill="#f2b138"></path></g></g><g data-name="Group 5534"><g data-name="Group 5533"><path data-name="Path 3511" d="M607.097 168.119c0 .146-11.064.264-24.708.264s-24.71-.118-24.71-.264 11.061-.263 24.71-.263 24.708.118 24.708.263z" fill="#f2b138"></path></g></g><g data-name="Group 5536"><g data-name="Group 5535"><path data-name="Path 3512" d="M614.339 112.72c0 .146-17.861.264-39.888.264s-39.892-.117-39.892-.264 17.858-.263 39.892-.263 39.888.123 39.888.263z" fill="#263238"></path></g></g><g data-name="Group 5538"><g data-name="Group 5537"><path data-name="Path 3513" d="M563.511 137.624a134.579 134.579 0 01-16.849 0 134.579 134.579 0 0116.849 0z" fill="#f2b138"></path></g></g><g data-name="Group 5540"><g data-name="Group 5539"><path data-name="Path 3514" d="M553.973 122.363a30.043 30.043 0 01-7.948 0 30.145 30.145 0 017.948 0z" fill="#f2b138"></path></g></g></g></g></g></g><g data-name="Group 5834"><g data-name="Group 5579"><g data-name="Group 5564"><g data-name="Group 5563"><g data-name="Group 5548"><path data-name="Path 3515" d="M483.576 302.472l17.662-17.463-31.5-53.938a30.405 30.405 0 00-12.088-8.408l-11.091-4.216-27.576-5.059-19.579 7.71a11.706 11.706 0 00-7.335 12.273l5.121 43.111 3.017 56.134 71.144-12.34-7.158-20.761.241-32.371z" fill="#f2b138"></path><g data-name="Group 5547"><g data-name="Group 5546"><g data-name="Group 5545"><g data-name="Group 5544"><path data-name="Path 3516" d="M464.846 298.136c.167 0 .21-11.216.1-25.044s-.34-25.043-.506-25.042-.21 11.213-.1 25.047.34 25.041.506 25.039z" fill="#263238"></path></g></g></g></g></g><g data-name="Group 5550"><g data-name="Group 5549"><path data-name="Path 3517" d="M462.24 306.364l-42.988-17.305a9.824 9.824 0 01-6.126-8.364l-3.146-41.215s.372-17.529-10.577-18.382l-6.229 2.454c-8.049 4.275-10.044 15.995-8.948 25.044 1.557 12.857 2.205 31.053 3.948 42.213 1.426 9.128 6.908 16.349 15.589 19.51l52.947 11.462z" fill="#f2b138"></path></g></g><g data-name="Group 5553"><g data-name="Group 5552"><g data-name="Group 5551"><path data-name="Path 3518" d="M410.597 245.77a5.978 5.978 0 01.135.944l.276 2.716.909 10c.364 4.238.8 9.259 1.274 14.829l.36 4.286a32.318 32.318 0 00.549 4.41 7.32 7.32 0 002.136 3.863 14.5 14.5 0 003.967 2.468c11.853 5.129 22.778 9.365 30.708 12.335l9.415 3.468 2.561.944a5.933 5.933 0 01.88.366 6.028 6.028 0 01-.918-.255l-2.6-.843a400.6 400.6 0 01-9.481-3.3 541.631 541.631 0 01-30.807-12.193 15.01 15.01 0 01-4.121-2.576 7.886 7.886 0 01-2.291-4.162 32.326 32.326 0 01-.547-4.489l-.341-4.29-1.152-14.842c-.3-4.186-.551-7.591-.726-10.011l-.169-2.724a5.881 5.881 0 01-.017-.944z" fill="#263238"></path></g></g></g><g data-name="Group 5556"><g data-name="Group 5555"><g data-name="Group 5554"><path data-name="Path 3519" d="M385.968 268.173a2.1 2.1 0 01.085.553l.142 1.591.509 5.849c.236 2.466.535 5.4.964 8.646a82.623 82.623 0 001.941 10.441 15.589 15.589 0 002.1 4.977 28.589 28.589 0 003.211 3.945 27.477 27.477 0 006.879 5.161 25.862 25.862 0 007.55 2.472 2.016 2.016 0 01-.559-.013 11.711 11.711 0 01-1.59-.205 21.027 21.027 0 01-5.586-1.891 26.96 26.96 0 01-7.071-5.152 28.437 28.437 0 01-3.3-4 16.005 16.005 0 01-2.185-5.141 77.75 77.75 0 01-1.913-10.525c-.4-3.26-.659-6.206-.843-8.682s-.277-4.482-.328-5.869l-.034-1.6a2.005 2.005 0 01.028-.557z" fill="#263238"></path></g></g></g><g data-name="Group 5559"><g data-name="Group 5558"><g data-name="Group 5557"><path data-name="Path 3520" d="M404.35 297.013a6.316 6.316 0 01.782-2.29 14.793 14.793 0 018.722-7.449 6.306 6.306 0 012.385-.415c.018.1-.885.275-2.251.8a16.717 16.717 0 00-8.5 7.257c-.728 1.265-1.046 2.129-1.138 2.097z" fill="#263238"></path></g></g></g><g data-name="Group 5562"><g data-name="Group 5561" opacity="0.3"><g data-name="Group 5560"><path data-name="Path 3521" d="M449.886 301.45c-4.6-2.6-9.094-4.592-13.9-6.776s-9.514-4.988-12.66-9.228c-5.932-8-5.256-19.536-11.329-27.426l1.19 15.917c.363 4.863-.382 9.672 2.75 12.977 2.639 2.784 7.784 4.919 11.426 6.12 7.32 2.415 15.2 6 22.523 8.417"></path></g></g></g></g></g><path data-name="Path 3522" d="M464.443 251.086l3.719 22.937-3.52-6.5z" opacity="0.3"></path><g data-name="Group 5565"><path data-name="Path 3523" d="M409.299 236.936a4.169 4.169 0 01-1 .077l-2.711.068c-2.289.057-5.447.173-8.93.421s-6.626.588-8.9.857l-2.693.318a4.219 4.219 0 01-1 .067 4.245 4.245 0 01.97-.242 60.864 60.864 0 012.676-.463c2.268-.353 5.417-.74 8.91-.992s6.665-.314 8.96-.289c1.147.011 2.075.039 2.716.076a4.193 4.193 0 011.002.102z" fill="#455a64"></path></g><g data-name="Group 5566"><path data-name="Path 3524" d="M410.523 258.886c.01.126-5.625.695-12.585 1.27s-12.612.94-12.622.815 5.623-.695 12.585-1.27 12.612-.941 12.622-.815z" fill="#455a64"></path></g><g data-name="Group 5567"><path data-name="Path 3525" d="M412.596 281.961a4.444 4.444 0 01-.892.509c-.585.306-1.453.709-2.541 1.167a52.753 52.753 0 01-17.936 4.015c-1.18.049-2.136.055-2.8.028a4.44 4.44 0 01-1.023-.082 4.466 4.466 0 011.022-.1 81.23 81.23 0 002.778-.172 62.808 62.808 0 0017.837-3.993 82.39 82.39 0 002.587-1.029 4.405 4.405 0 01.968-.343z" fill="#455a64"></path></g><g data-name="Group 5568"><path data-name="Path 3526" d="M427.88 293.796a17.173 17.173 0 00-7.23 8.01 4.222 4.222 0 01.474-1.57 12.537 12.537 0 015.243-5.809 4.236 4.236 0 011.513-.631z" fill="#455a64"></path></g><g data-name="Group 5569"><path data-name="Path 3527" d="M443.427 308.991a16.823 16.823 0 014.593-8.386c.105.088-1.245 1.763-2.5 4.079s-1.962 4.348-2.093 4.307z" fill="#455a64"></path></g><g data-name="Group 5570"><path data-name="Path 3528" d="M418.925 224.025a84.685 84.685 0 01-12.24 2.212 85.057 85.057 0 0112.24-2.212z" fill="#455a64"></path></g><g data-name="Group 5571"><path data-name="Path 3529" d="M460.077 225.897a157.286 157.286 0 01-16.805-1.994 156.619 156.619 0 0116.805 1.994z" fill="#455a64"></path></g><g data-name="Group 5572"><path data-name="Path 3530" d="M463.592 245.038a2.421 2.421 0 01-.538.035l-1.543.011-5.671-.007c-4.789 0-11.4.036-18.706.223s-13.914.488-18.7.738l-5.663.3-1.542.067a2.4 2.4 0 01-.539-.007 2.364 2.364 0 01.533-.084l1.535-.153c1.335-.125 3.267-.277 5.657-.443 4.779-.333 11.392-.684 18.7-.873s13.93-.175 18.72-.089c2.395.042 4.333.1 5.672.153l1.542.074a2.4 2.4 0 01.543.055z" fill="#455a64"></path></g><g data-name="Group 5573"><path data-name="Path 3531" d="M464.095 269.273c.009.126-11.269.971-25.186 1.887s-25.211 1.557-25.219 1.432 11.267-.971 25.189-1.887 25.208-1.555 25.216-1.432z" fill="#455a64"></path></g><g data-name="Group 5574"><path data-name="Path 3532" d="M462.898 290.629a4.5 4.5 0 01-.949.406c-.62.234-1.526.548-2.653.916-2.252.736-5.4 1.659-8.913 2.505s-6.739 1.452-9.08 1.82a64.44 64.44 0 01-2.779.389 4.466 4.466 0 01-1.029.07 4.556 4.556 0 011-.246l2.75-.532c2.322-.448 5.521-1.1 9.029-1.945s6.653-1.715 8.925-2.371l2.692-.776a4.489 4.489 0 011.007-.236z" fill="#455a64"></path></g><g data-name="Group 5575"><path data-name="Path 3533" d="M480.935 251.922a159.264 159.264 0 01-16.492 4.264 158.859 158.859 0 0116.492-4.264z" fill="#455a64"></path></g><g data-name="Group 5576"><path data-name="Path 3534" d="M472.334 235.538a30.462 30.462 0 01-7.339 1.321 30.6 30.6 0 017.339-1.321z" fill="#455a64"></path></g><g data-name="Group 5577"><path data-name="Path 3535" d="M410.728 240.625c-.089.016-.223-1.457-1.025-3.661a18.453 18.453 0 00-13.032-11.71c-2.277-.563-3.755-.539-3.749-.63a3.888 3.888 0 011.03-.039 15.819 15.819 0 012.792.353 17.857 17.857 0 0113.263 11.918 15.777 15.777 0 01.649 2.738 3.9 3.9 0 01.072 1.031z" fill="#263238"></path></g><g data-name="Group 5578"><path data-name="Path 3536" d="M461.943 228.933a73.1 73.1 0 011.514 8.018 73.222 73.222 0 011.063 8.09 73.006 73.006 0 01-1.515-8.019 73.129 73.129 0 01-1.062-8.089z" fill="#263238"></path></g></g><g data-name="Group 5615"><g data-name="Group 5582"><g data-name="Group 5581"><g data-name="Group 5580"><path data-name="Path 3537" d="M509.856 358.18s33.041 9.145 34.366 9.611c1.991.7 1.656 7.993-1.441 7.88-1.465-.053-25.38.89-28.4.7s-12.137-3.781-12.137-3.781z" fill="#f2b138"></path></g></g></g><g data-name="Group 5586"><g data-name="Group 5585"><g data-name="Group 5584"><g data-name="Group 5583"><path data-name="Path 3538" d="M523.621 370.787a14.476 14.476 0 013.792-6.589 7.344 7.344 0 00-3.792 6.589z" fill="#263238"></path></g></g></g></g><g data-name="Group 5590"><g data-name="Group 5589"><g data-name="Group 5588"><g data-name="Group 5587"><path data-name="Path 3539" d="M520.174 369.229c.162.028.5-1.534 1.377-3.259.863-1.735 1.919-2.934 1.8-3.047a8.29 8.29 0 00-3.177 6.306z" fill="#263238"></path></g></g></g></g><g data-name="Group 5594"><g data-name="Group 5593"><g data-name="Group 5592"><g data-name="Group 5591"><path data-name="Path 3540" d="M516.944 368.359a11.6 11.6 0 012.572-6.58 6.2 6.2 0 00-2.572 6.58z" fill="#263238"></path></g></g></g></g><g data-name="Group 5598"><g data-name="Group 5597"><g data-name="Group 5596"><g data-name="Group 5595"><path data-name="Path 3541" d="M517.53 364.091a5.867 5.867 0 00.354-2.459 11.585 11.585 0 00-.826-4.228 1.844 1.844 0 00-.53-.809.882.882 0 00-1.135.056 1.462 1.462 0 00-.44.934 6.469 6.469 0 00-.043.873 7.326 7.326 0 00.2 1.617 9.77 9.77 0 001.017 2.526 6.68 6.68 0 001.484 1.99c.075-.053-.478-.823-1.137-2.17a10.835 10.835 0 01-.866-2.456 7.309 7.309 0 01-.16-1.509c.015-.508.008-1.143.3-1.386a.321.321 0 01.438-.037 1.4 1.4 0 01.362.577 12.133 12.133 0 01.5 1.458 13.254 13.254 0 01.438 2.58c.105 1.492-.046 2.429.044 2.443z" fill="#263238"></path></g></g></g></g><g data-name="Group 5602"><g data-name="Group 5601"><g data-name="Group 5600"><g data-name="Group 5599"><path data-name="Path 3542" d="M517.489 363.758a4.611 4.611 0 00-2.131-.344 9.6 9.6 0 00-2.345.288 5.135 5.135 0 00-1.35.5 1.394 1.394 0 00-.746 1.51 1.651 1.651 0 001.19 1.179 3.031 3.031 0 001.482 0 5.674 5.674 0 002.147-1.056 5.832 5.832 0 001.536-1.512 14.414 14.414 0 00-1.76 1.192 5.875 5.875 0 01-2.026.877 2.608 2.608 0 01-1.226-.017 1.12 1.12 0 01-.8-.786.851.851 0 01.49-.922 5.047 5.047 0 011.2-.467 11.087 11.087 0 012.227-.388c1.288-.101 2.095.031 2.112-.054z" fill="#263238"></path></g></g></g></g><g data-name="Group 5606"><g data-name="Group 5605"><g data-name="Group 5604"><g data-name="Group 5603"><path data-name="Path 3543" d="M528.698 371.141a17.64 17.64 0 01.651-2.98 17.835 17.835 0 011.618-2.587 4.739 4.739 0 00-2.269 5.567z" fill="#263238"></path></g></g></g></g><g data-name="Group 5610"><g data-name="Group 5609"><g data-name="Group 5608"><g data-name="Group 5607"><path data-name="Path 3544" d="M505.642 372.661a6.853 6.853 0 001.279.6 28.2 28.2 0 003.677 1.139 52.394 52.394 0 0012.615 1.2c4.952-.054 9.414-.28 12.65-.41l3.829-.2a6.941 6.941 0 001.4-.15 6.845 6.845 0 00-1.407-.066l-3.835.027-12.64.247a59.14 59.14 0 01-12.526-1.023c-3.159-.649-5.003-1.464-5.042-1.364z" fill="#263238"></path></g></g></g></g><g data-name="Group 5614"><g data-name="Group 5613"><g data-name="Group 5612"><g data-name="Group 5611"><path data-name="Path 3545" d="M504.665 373.419c.045.076.949-.453 2.476-1.122a11.51 11.51 0 016.252-1.039 9.9 9.9 0 015.4 3.215 19.534 19.534 0 001.9 1.945 10.181 10.181 0 00-1.616-2.21 13.1 13.1 0 00-2.191-2.048 7.851 7.851 0 00-3.414-1.448 10.927 10.927 0 00-6.5 1.231 8.776 8.776 0 00-2.307 1.476z" fill="#263238"></path></g></g></g></g></g><g data-name="Group 5655"><g data-name="Group 5618"><g data-name="Group 5617"><g data-name="Group 5616"><path data-name="Path 3546" d="M470.749 350.509s-31.267 20.471-32.387 21.318c-1.684 1.272.247 7.331 3.164 6.282 1.38-.5 27.616-7.795 30.438-8.893s10.416-7.289 10.416-7.289z" fill="#f2b138"></path></g></g></g><g data-name="Group 5622"><g data-name="Group 5621"><g data-name="Group 5620"><g data-name="Group 5619"><path data-name="Path 3547" d="M461.466 366.702a7.344 7.344 0 00-5.615-5.126 14.476 14.476 0 015.615 5.126z" fill="#263238"></path></g></g></g></g><g data-name="Group 5626"><g data-name="Group 5625"><g data-name="Group 5624"><g data-name="Group 5623"><path data-name="Path 3548" d="M464.273 364.162a8.287 8.287 0 00-4.941-5.044c-.079.144 1.291.965 2.64 2.356s2.155 2.768 2.301 2.688z" fill="#263238"></path></g></g></g></g><g data-name="Group 5630"><g data-name="Group 5629"><g data-name="Group 5628"><g data-name="Group 5627"><path data-name="Path 3549" d="M467.088 362.361a6.205 6.205 0 00-4.45-5.489 11.6 11.6 0 014.45 5.489z" fill="#263238"></path></g></g></g></g><g data-name="Group 5634"><g data-name="Group 5633"><g data-name="Group 5632"><g data-name="Group 5631"><path data-name="Path 3550" d="M465.234 358.473c.081-.04-.346-.886-.709-2.34a13.276 13.276 0 01-.367-2.59 12.073 12.073 0 01.034-1.541 1.389 1.389 0 01.169-.66.321.321 0 01.428-.1c.357.143.543.75.711 1.229a7.281 7.281 0 01.306 1.487 10.84 10.84 0 01-.079 2.6c-.219 1.484-.513 2.385-.425 2.412a6.669 6.669 0 00.81-2.346 9.82 9.82 0 00.2-2.716 7.24 7.24 0 00-.3-1.6 6.317 6.317 0 00-.306-.819 1.457 1.457 0 00-.7-.757.881.881 0 00-1.1.292 1.844 1.844 0 00-.258.932 11.358 11.358 0 000 1.61 11.577 11.577 0 00.5 2.668 5.858 5.858 0 001.086 2.239z" fill="#263238"></path></g></g></g></g><g data-name="Group 5638"><g data-name="Group 5637"><g data-name="Group 5636"><g data-name="Group 5635"><path data-name="Path 3551" d="M465.171 358.139c.04.081.773-.291 2.032-.6a11.154 11.154 0 012.24-.306 5.042 5.042 0 011.284.082.853.853 0 01.748.73 1.12 1.12 0 01-.528.992 2.6 2.6 0 01-1.163.388 5.851 5.851 0 01-2.2-.22 14.425 14.425 0 00-2.039-.6 5.815 5.815 0 001.923.974 5.706 5.706 0 002.366.354 3.029 3.029 0 001.414-.447 1.651 1.651 0 00.775-1.485 1.393 1.393 0 00-1.17-1.212 5.163 5.163 0 00-1.437-.064 9.6 9.6 0 00-2.321.438 4.633 4.633 0 00-1.924.976z" fill="#263238"></path></g></g></g></g><g data-name="Group 5642"><g data-name="Group 5641"><g data-name="Group 5640"><g data-name="Group 5639"><path data-name="Path 3552" d="M445.512 376.966c.036.049.526-.317.766-1.212a4.617 4.617 0 00-.586-3.393 12.393 12.393 0 00-1.048-1.561 5.758 5.758 0 00-1.061-1.139 1.855 1.855 0 00-1-.418c-.262-.01-.4.053-.391.085a2.972 2.972 0 011.137.632 7.039 7.039 0 01.9 1.14 17.884 17.884 0 01.975 1.527 4.838 4.838 0 01.688 3.048c-.114.81-.456 1.237-.38 1.291z" fill="#263238"></path></g></g></g></g><g data-name="Group 5646"><g data-name="Group 5645"><g data-name="Group 5644"><g data-name="Group 5643"><path data-name="Path 3553" d="M456.735 368.58a4.741 4.741 0 00-3.852-4.614 8.922 8.922 0 013.852 4.614z" fill="#263238"></path></g></g></g></g><g data-name="Group 5650"><g data-name="Group 5649"><g data-name="Group 5648"><g data-name="Group 5647"><path data-name="Path 3554" d="M479.165 363.031a11.078 11.078 0 00-1.374.943 39.172 39.172 0 01-3.855 2.362 50.719 50.719 0 01-6.124 2.725c-2.368.883-5.023 1.716-7.831 2.53-5.625 1.62-10.718 3.1-14.392 4.206l-4.344 1.334a9.584 9.584 0 00-1.572.561 9.6 9.6 0 001.631-.354l4.393-1.165a1091.1 1091.1 0 0014.438-4.05c2.814-.816 5.481-1.668 7.857-2.584a46.034 46.034 0 006.131-2.86 30.659 30.659 0 003.794-2.532 8.548 8.548 0 001.248-1.116z" fill="#263238"></path></g></g></g></g><g data-name="Group 5654"><g data-name="Group 5653"><g data-name="Group 5652"><g data-name="Group 5651"><path data-name="Path 3555" d="M480.323 363.452a8.75 8.75 0 00-2.65-.705 10.927 10.927 0 00-6.571.8 7.838 7.838 0 00-2.812 2.415 13.091 13.091 0 00-1.465 2.617 10.22 10.22 0 00-.87 2.6 19.3 19.3 0 001.223-2.432 9.9 9.9 0 014.173-4.7 11.508 11.508 0 016.273-.909c1.653.171 2.68.4 2.699.314z" fill="#263238"></path></g></g></g></g></g><g data-name="Group 5675"><g data-name="Group 5658"><g data-name="Group 5657"><g data-name="Group 5656"><path data-name="Path 3556" d="M535.747 299.313s9.379 3.349 9.419 13.867c.075 20.146-40.706 42.353-40.706 42.353l-54.269-35.958-3.4-1.376s73.259-27.52 88.956-18.886z" fill="#263238"></path></g></g></g><g data-name="Group 5662"><g data-name="Group 5661"><g data-name="Group 5660"><g data-name="Group 5659"><path data-name="Path 3557" d="M477.682 337.736a10.036 10.036 0 001.414-.958c.889-.645 2.158-1.6 3.711-2.8 3.108-2.4 7.335-5.806 11.883-9.709s8.552-7.57 11.4-10.279a159.185 159.185 0 003.332-3.245 10.172 10.172 0 001.161-1.252 10.024 10.024 0 00-1.309 1.1l-3.45 3.114c-2.909 2.633-6.949 6.245-11.49 10.147s-8.724 7.344-11.766 9.822l-3.6 2.939a10.089 10.089 0 00-1.286 1.121z" fill="#455a64"></path></g></g></g></g><g data-name="Group 5666"><g data-name="Group 5665"><g data-name="Group 5664"><g data-name="Group 5663"><path data-name="Path 3558" d="M520.427 306.843a13.446 13.446 0 00-9.878 2.916c.089.144 2.068-1.117 4.806-1.911 2.729-.82 5.075-.831 5.072-1.005z" fill="#455a64"></path></g></g></g></g><g data-name="Group 5670"><g data-name="Group 5669"><g data-name="Group 5668"><g data-name="Group 5667"><path data-name="Path 3559" d="M515.753 303.667a8.25 8.25 0 00-4.906 6.075c.158.054.752-1.636 2.119-3.308 1.345-1.689 2.873-2.624 2.787-2.767z" fill="#455a64"></path></g></g></g></g><g data-name="Group 5674"><g data-name="Group 5673"><g data-name="Group 5672"><g data-name="Group 5671"><path data-name="Path 3560" d="M538.731 367.457c.029-.063-.647-.194-1.4.424a5.075 5.075 0 00-1.569 3.15 6.193 6.193 0 00.5 3.473c.384.824.806 1.211.853 1.172.075-.052-.223-.509-.491-1.318a7.04 7.04 0 01-.31-3.25 5.446 5.446 0 011.283-2.938c.574-.602 1.146-.625 1.134-.713z" fill="#263238"></path></g></g></g></g></g><g data-name="Group 5682"><g data-name="Group 5679"><g data-name="Group 5678"><g data-name="Group 5677"><path data-name="Path 3561" d="M531.868 270.698l-15.439 41.591a5.994 5.994 0 01-5.7 3.908l-84.986-1.119v-6.458l31.536 1.151 13.389-41.515a3.389 3.389 0 013.235-2.348l54.821.159a3.389 3.389 0 013.144 4.631z" fill="#e0e0e0"></path><g data-name="Group 5676"><path data-name="Path 3562" d="M531.868 270.698s.01-.045.036-.131a3.5 3.5 0 00.106-.388 3.333 3.333 0 00-.034-1.561 3.393 3.393 0 00-1.493-2.01 3.307 3.307 0 00-1.543-.488c-.586-.027-1.221-.008-1.887-.014l-22.872-.026-16.024-.03-9-.019-4.73-.011a3.72 3.72 0 00-2.262.5 3.3 3.3 0 00-1.407 1.849l-13.351 41.442-.031.1h-.1l-31.536-1.15.142-.137v6.458l-.135-.137 53.443.716 23.231.319 5.354.074 2.6.037a6.211 6.211 0 002.471-.361 5.883 5.883 0 003.405-3.279l1.659-4.433 10.192-27.333c1.2-3.211 2.138-5.7 2.777-7.408s.984-2.574.984-2.574-.313.9-.934 2.592l-2.73 7.427-10.112 27.363-1.647 4.437a6.089 6.089 0 01-3.517 3.4 6.423 6.423 0 01-2.546.377l-2.6-.032-5.354-.067-23.231-.293-53.444-.692h-.135v-.135-6.599h.142l31.536 1.156-.132.092 13.382-41.433a3.534 3.534 0 011.506-1.971 3.949 3.949 0 012.383-.529l4.73.017 9 .033 16.024.063 22.871.105c.669.01 1.3-.006 1.892.025a3.373 3.373 0 011.575.51 3.433 3.433 0 011.5 2.057 3.282 3.282 0 01.011 1.578 3.514 3.514 0 01-.165.514z" fill="#263238"></path></g></g></g></g><g data-name="Group 5681"><g data-name="Group 5680"><path data-name="Path 3563" d="M494.183 286.423a3.82 3.82 0 014.131.441 3.34 3.34 0 01.809 3.66 3.62 3.62 0 01-3.1 2.168 3.262 3.262 0 01-3.285-2.169c-.4-1.358.043-3.386 1.444-4.1" fill="#fff"></path></g></g></g><g data-name="Group 5691"><g data-name="Group 5685"><g data-name="Group 5684"><g data-name="Group 5683"><path data-name="Path 3564" d="M513.612 357.798s-76.591-49.059-79.972-50.984c-2.876-1.637-10.571-6.374-18.158-4.282s-14.39 8.9-17.792 18.838c-1.943 5.68-2.861 15.372-3.292 22.639a33.587 33.587 0 007.86 23.948 21.425 21.425 0 009.561 6.787c.8.249 1.627.463 2.477.648 14.5 3.143 29.4-3.365 37.541-15.763l1.789-2.723s50.159 18.428 50.944 18.166z" fill="#263238"></path></g></g></g><g data-name="Group 5686"><path data-name="Path 3565" d="M437.593 309.531a.827.827 0 01-.192-.112l-.536-.367c-.469-.324-1.16-.8-2.07-1.387a40.428 40.428 0 00-8.133-4.133 21.846 21.846 0 00-6.127-1.292 17.618 17.618 0 00-7.045 1.15 22.756 22.756 0 00-6.772 4.107 31.163 31.163 0 00-3.006 2.953 21.963 21.963 0 00-2.487 3.538 36.28 36.28 0 00-3.3 7.891c-.722 2.671-1.3 5.312-1.849 7.8a71.29 71.29 0 00-1.763 13.438 48.684 48.684 0 00.7 9.109c.168 1.068.359 1.887.474 2.445l.125.637a.808.808 0 01.027.221.752.752 0 01-.073-.21l-.169-.626c-.145-.552-.363-1.367-.559-2.435a45.678 45.678 0 01-.844-9.145 69.552 69.552 0 011.674-13.519c.543-2.511 1.106-5.129 1.832-7.841a36.363 36.363 0 013.338-7.995 22.254 22.254 0 012.54-3.609 31.306 31.306 0 013.058-2.994 23.039 23.039 0 016.914-4.161 17.917 17.917 0 017.214-1.135 21.936 21.936 0 016.216 1.367 38.434 38.434 0 018.122 4.288c.9.609 1.574 1.113 2.027 1.461l.509.4c.104.099.16.149.155.156z" fill="#455a64"></path></g><g data-name="Group 5690"><g data-name="Group 5689"><g data-name="Group 5688"><g data-name="Group 5687"><path data-name="Path 3566" d="M418.75 343.954s.139.071.421.186l1.255.5 4.861 1.872 18.065 6.8c7.675 2.863 16.866 6.267 27.179 10.021s21.744 7.864 33.95 12l.222.075.109-.208 5.991-11.44 3.053-5.834.118-.225-.213-.134-58.489-37.13-17.57-11.081-4.771-2.978-1.246-.762c-.282-.169-.434-.244-.434-.244s.132.106.405.289l1.217.807 4.719 3.063 17.476 11.226 58.392 37.272-.095-.36-3.054 5.834-5.987 11.442.33-.133c-12.2-4.122-23.635-8.218-33.959-11.937l-27.218-9.906-18.122-6.648-4.895-1.781-1.272-.451a6.262 6.262 0 00-.438-.135z" fill="#455a64"></path></g></g></g></g></g><g data-name="Group 5833"><path data-name="Path 3567" d="M422.715 181.2a39.5 39.5 0 01-3.4-8.142 13.264 13.264 0 01.454-8.665c.713-1.57 1.834-2.946 2.394-4.576.77-2.244.455-4.891 1.844-6.815 2.171-3.005 6.817-2.3 10.174-3.879 2.615-1.226 4.442-3.87 7.191-4.752 2.4-.77 5.022-.032 7.341.961s4.581 2.258 7.083 2.586a49.764 49.764 0 005.39.014 7.1 7.1 0 014.974 1.714c1.265 1.278 1.532 3.637.161 4.8 3.146-.533 6.109 2.607 6.068 5.8s-2.444 6-5.347 7.326a19.012 19.012 0 01-9.4 1.166c-9.005-.7-18.054-4.125-24.185-10.759" fill="#404040"></path><g data-name="Group 5821"><g data-name="Group 5798"><g data-name="Group 5797"><g data-name="Group 5796"><g data-name="Group 5712"><g data-name="Group 5711"><g data-name="Group 5710"><g data-name="Group 5700"><g data-name="Group 5699"><g data-name="Group 5698"><g data-name="Group 5697"><g data-name="Group 5696"><g data-name="Group 5695"><g data-name="Group 5694"><g data-name="Group 5693"><g data-name="Group 5692"><path data-name="Path 3568" d="M424.652 169.934l-6.136 44.59a13.389 13.389 0 0012.1 15.164 13.4 13.4 0 0014.436-11.537c.459-3.357.848-6.155.918-6.5 0 0 11.5.495 13.863-10.627 1.143-5.375 2.6-16.637 3.794-26.842a21.181 21.181 0 00-16.895-23.225l-1.076-.215c-11.736-1.638-19.686 7.413-21.004 19.192z" fill="#ffbe9d"></path></g></g></g></g></g></g></g></g></g><g data-name="Group 5709"><g data-name="Group 5708"><g data-name="Group 5707"><g data-name="Group 5706"><g data-name="Group 5705"><g data-name="Group 5704"><g data-name="Group 5703"><g data-name="Group 5702"><g data-name="Group 5701"><path data-name="Path 3569" d="M446.019 211.497a26.438 26.438 0 01-13.71-7.035s1.832 8.711 13.159 9.93z" fill="#eb996e"></path></g></g></g></g></g></g></g></g></g></g></g></g><g data-name="Group 5795"><g data-name="Group 5794"><g data-name="Group 5775"><g data-name="Group 5774"><g data-name="Group 5773"><g data-name="Group 5732"><g data-name="Group 5721"><g data-name="Group 5720"><g data-name="Group 5719"><g data-name="Group 5718"><g data-name="Group 5717"><g data-name="Group 5716"><g data-name="Group 5715"><g data-name="Group 5714"><g data-name="Group 5713"><path data-name="Path 3570" d="M458.625 183.666a1.623 1.623 0 01-1.856 1.3 1.553 1.553 0 01-1.355-1.763 1.625 1.625 0 011.855-1.3 1.554 1.554 0 011.356 1.763z" fill="#263238"></path></g></g></g></g></g></g></g></g></g><g data-name="Group 5731"><g data-name="Group 5730"><g data-name="Group 5729"><g data-name="Group 5728"><g data-name="Group 5727"><g data-name="Group 5726"><g data-name="Group 5725"><g data-name="Group 5724"><g data-name="Group 5723"><g data-name="Group 5722"><path data-name="Path 3571" d="M460.137 179.18c-.239.168-1.266-.965-2.982-1.3-1.707-.361-3.141.268-3.284.022-.074-.111.2-.446.83-.736a4.466 4.466 0 012.682-.274 4.284 4.284 0 012.321 1.3c.445.503.549.914.433.988z" fill="#263238"></path></g></g></g></g></g></g></g></g></g></g></g><g data-name="Group 5752"><g data-name="Group 5741"><g data-name="Group 5740"><g data-name="Group 5739"><g data-name="Group 5738"><g data-name="Group 5737"><g data-name="Group 5736"><g data-name="Group 5735"><g data-name="Group 5734"><g data-name="Group 5733"><path data-name="Path 3572" d="M442.645 180.906a1.623 1.623 0 01-1.856 1.3 1.552 1.552 0 01-1.354-1.763 1.624 1.624 0 011.855-1.3 1.553 1.553 0 011.355 1.763z" fill="#263238"></path></g></g></g></g></g></g></g></g></g><g data-name="Group 5751"><g data-name="Group 5750"><g data-name="Group 5749"><g data-name="Group 5748"><g data-name="Group 5747"><g data-name="Group 5746"><g data-name="Group 5745"><g data-name="Group 5744"><g data-name="Group 5743"><g data-name="Group 5742"><path data-name="Path 3573" d="M443.231 176.134c-.239.167-1.269-.966-2.982-1.3-1.707-.361-3.141.268-3.285.022-.073-.111.2-.446.83-.735a4.455 4.455 0 012.681-.274 4.281 4.281 0 012.321 1.3c.445.502.551.913.435.987z" fill="#263238"></path></g></g></g></g></g></g></g></g></g></g></g><g data-name="Group 5762"><g data-name="Group 5761"><g data-name="Group 5760"><g data-name="Group 5759"><g data-name="Group 5758"><g data-name="Group 5757"><g data-name="Group 5756"><g data-name="Group 5755"><g data-name="Group 5754"><g data-name="Group 5753"><path data-name="Path 3574" d="M446.91 190.082a11.556 11.556 0 012.883.054c.446.042.878.038 1.011-.246a2.264 2.264 0 00-.032-1.355l-.629-3.59c-.849-5.1-1.37-9.263-1.165-9.3s1.061 4.077 1.91 9.18q.3 1.884.57 3.6a2.586 2.586 0 01-.116 1.763 1.119 1.119 0 01-.847.5 2.99 2.99 0 01-.764-.046 11.348 11.348 0 01-2.821-.56z" fill="#263238"></path></g></g></g></g></g></g></g></g></g></g><g data-name="Group 5772"><g data-name="Group 5771"><g data-name="Group 5770"><g data-name="Group 5769"><g data-name="Group 5768"><g data-name="Group 5767"><g data-name="Group 5766"><g data-name="Group 5765"><g data-name="Group 5764"><g data-name="Group 5763"><path data-name="Path 3575" d="M441.632 190.263c.282.039-.087 1.9 1.242 3.537s3.349 1.829 3.311 2.092c0 .122-.514.273-1.355.129a4.72 4.72 0 01-2.785-1.642 4.115 4.115 0 01-.922-2.943c.083-.792.383-1.211.509-1.173z" fill="#263238"></path></g></g></g></g></g></g></g></g></g></g></g></g></g><g data-name="Group 5784"><g data-name="Group 5783"><g data-name="Group 5782"><g data-name="Group 5781"><g data-name="Group 5780"><g data-name="Group 5779"><g data-name="Group 5778"><g data-name="Group 5777"><g data-name="Group 5776"><path data-name="Path 3576" d="M445.016 169.506c-.262.432-1.929-.131-3.987-.289-2.056-.2-3.794.064-3.978-.408-.079-.224.291-.605 1.037-.925a6.946 6.946 0 016.068.531c.679.445.979.885.86 1.091z" fill="#404040"></path></g></g></g></g></g></g></g></g></g><g data-name="Group 5793"><g data-name="Group 5792"><g data-name="Group 5791"><g data-name="Group 5790"><g data-name="Group 5789"><g data-name="Group 5788"><g data-name="Group 5787"><g data-name="Group 5786"><g data-name="Group 5785"><path data-name="Path 3577" d="M460.498 174.094c-.38.329-1.479-.31-2.895-.613-1.4-.353-2.673-.262-2.868-.725-.082-.221.185-.574.784-.837a4.283 4.283 0 014.643 1.078c.422.5.507.934.336 1.097z" fill="#404040"></path></g></g></g></g></g></g></g></g></g></g></g></g></g></g><g data-name="Group 5818"><g data-name="Group 5807"><g data-name="Group 5806"><g data-name="Group 5805"><g data-name="Group 5804"><g data-name="Group 5803"><g data-name="Group 5802"><g data-name="Group 5801"><g data-name="Group 5800"><g data-name="Group 5799"><path data-name="Path 3578" d="M423.917 178.369c-.174-.12-7.208-3.8-8.488 3.875s6.686 7.373 6.736 7.156 1.752-11.031 1.752-11.031z" fill="#ffbe9d"></path></g></g></g></g></g></g></g></g></g><g data-name="Group 5817"><g data-name="Group 5816"><g data-name="Group 5815"><g data-name="Group 5814"><g data-name="Group 5813"><g data-name="Group 5812"><g data-name="Group 5811"><g data-name="Group 5810"><g data-name="Group 5809"><g data-name="Group 5808"><path data-name="Path 3579" d="M420.306 186.104c-.03-.03-.149.071-.393.138a1.359 1.359 0 01-1-.146c-.76-.433-1.229-1.833-1.035-3.222a4.474 4.474 0 01.693-1.851 1.568 1.568 0 011.177-.859.691.691 0 01.728.5c.067.231-.008.377.031.4.018.023.186-.1.177-.428a.859.859 0 00-.222-.531 1.02 1.02 0 00-.706-.319 1.9 1.9 0 00-1.594.957 4.6 4.6 0 00-.82 2.061c-.209 1.554.341 3.132 1.4 3.638a1.452 1.452 0 001.256 0c.264-.155.333-.32.308-.338z" fill="#eb996e"></path></g></g></g></g></g></g></g></g></g></g></g><g data-name="Group 5820"><g data-name="Group 5819"><path data-name="Path 3580" d="M465.835 163.828c-1.317 2.835-8.085 3.93-13.047 2.433-4.574-1.381-6.233-4.285-9.144-6.815-1.842-1.6-1.842-1.6-4.846-1.913-2.429-.25-4.378 2.168-6.215 3.777 1.022 6.1-1.689 12.133-4.331 17.722a3.09 3.09 0 01-1.239 1.581c-1.04.513-2.282-.3-2.9-1.278a9.6 9.6 0 01-1.075-5.383 32 32 0 012.544-12.35 21.768 21.768 0 018.02-9.6 20.623 20.623 0 0115.257-2.527 25.33 25.33 0 0113.376 8.029 14.827 14.827 0 013.6 6.328" fill="#404040"></path></g></g></g><g data-name="Group 5830"><g data-name="Group 5823"><g data-name="Group 5822"><path data-name="Path 3581" d="M450.228 182.372c.066 0 .043-.661.349-1.783a7.4 7.4 0 012.713-3.942 7.216 7.216 0 016.789-.977 7.067 7.067 0 013.3 2.495 7.1 7.1 0 010 8.415 7.071 7.071 0 01-3.3 2.5 7.22 7.22 0 01-6.79-.977 7.411 7.411 0 01-2.715-3.943c-.306-1.121-.283-1.785-.349-1.783a1.4 1.4 0 00-.039.477 5.732 5.732 0 00.153 1.364 7.39 7.39 0 002.683 4.233 7.643 7.643 0 0010.848-1.507 7.66 7.66 0 000-9.134 7.643 7.643 0 00-10.846-1.507 7.4 7.4 0 00-2.684 4.233 5.732 5.732 0 00-.153 1.364 1.4 1.4 0 00.041.472z" fill="#263238"></path></g></g><g data-name="Group 5825"><g data-name="Group 5824"><path data-name="Path 3582" d="M432.032 179.193c.066 0 .043-.661.349-1.783a7.4 7.4 0 012.716-3.943 7.216 7.216 0 016.789-.978 7.07 7.07 0 013.3 2.5 7.1 7.1 0 010 8.415 7.071 7.071 0 01-3.3 2.5 7.216 7.216 0 01-6.789-.978 7.4 7.4 0 01-2.716-3.943c-.306-1.122-.283-1.786-.349-1.783a1.4 1.4 0 00-.039.477 5.735 5.735 0 00.153 1.364 7.393 7.393 0 002.683 4.233 7.645 7.645 0 0010.848-1.507 7.661 7.661 0 000-9.135 7.644 7.644 0 00-10.846-1.507 7.385 7.385 0 00-2.683 4.233 5.7 5.7 0 00-.154 1.364 1.4 1.4 0 00.038.471z" fill="#263238"></path></g></g><g data-name="Group 5827"><g data-name="Group 5826"><path data-name="Path 3583" d="M447.022 179.453c.077.155 1.052-.3 2.187.046s1.7 1.255 1.849 1.168c.072-.034.036-.325-.22-.712a2.727 2.727 0 00-3.24-.974c-.427.181-.617.404-.576.472z" fill="#263238"></path></g></g><g data-name="Group 5829"><g data-name="Group 5828"><path data-name="Path 3584" d="M421.723 177.229c0 .171 2.448.275 5.463.233s5.458-.216 5.455-.387-2.448-.276-5.464-.233-5.457.216-5.454.387z" fill="#263238"></path></g></g></g><g data-name="Group 5831"><path data-name="Path 3585" d="M469.415 156.507a2.183 2.183 0 01-.118.731 3.6 3.6 0 01-1.15 1.65 5.08 5.08 0 01-2.759 1.129 13.886 13.886 0 01-3.659-.19 62.77 62.77 0 01-6.509-1.314c-.823-.214-1.484-.4-1.938-.543l-.522-.166a.763.763 0 01-.178-.07.752.752 0 01.188.035l.531.132 1.949.486c1.65.4 3.944.882 6.506 1.258a14.121 14.121 0 003.613.205 5.028 5.028 0 002.7-1.062 3.655 3.655 0 001.165-1.575c.153-.441.16-.709.181-.706z" fill="#fff"></path></g><g data-name="Group 5832"><path data-name="Path 3586" d="M471.117 158.247a7.012 7.012 0 01-.657 2.1 8.976 8.976 0 01-8.651 5.172 7.007 7.007 0 01-2.159-.415 4.749 4.749 0 01.578.11 9.64 9.64 0 001.586.175 9.107 9.107 0 008.529-5.1 9.687 9.687 0 00.6-1.48 4.77 4.77 0 01.174-.562z" fill="#fff"></path></g></g></g></g></svg>