<svg xmlns="http://www.w3.org/2000/svg" width="54.768" height="62.675" viewBox="0 0 54.768 62.675" class="bg-top-vector"><g id="Group_3833" data-name="Group 3833" transform="translate(-253.516 138.3) rotate(-90)"><g id="Group_2875" data-name="Group 2875" transform="translate(75.625 253.516)"><path id="Path_3003" data-name="Path 3003" d="M130.064,305.233H77.1L75.625,307.4H138.3l-1.473-2.169Z" transform="translate(-75.625 -261.871)" fill="#083a94"></path><path id="Path_3004" data-name="Path 3004" d="M130.773,298.77H81.487l-1.473,2.168h55.314l-1.473-2.168Z" transform="translate(-76.334 -260.827)" fill="#083a94"></path><path id="Path_3005" data-name="Path 3005" d="M130.884,292.3H85.876L84.4,294.473h47.954Z" transform="translate(-77.043 -259.782)" fill="#083a94"></path><path id="Path_3006" data-name="Path 3006" d="M119,266.445H103.434l-1.473,2.169h18.509Z" transform="translate(-79.88 -255.605)" fill="#083a94"></path><path id="Path_3007" data-name="Path 3007" d="M110.741,255.685h3.786l-1.473-2.169h-.841Z" transform="translate(-81.299 -253.516)" fill="#083a94"></path><path id="Path_3008" data-name="Path 3008" d="M116.026,259.981h-8.2l-1.473,2.169H117.5Z" transform="translate(-80.589 -254.56)" fill="#083a94"></path><path id="Path_3009" data-name="Path 3009" d="M93.181,281.544h33.233l-1.473-2.169H94.654Z" transform="translate(-78.461 -257.694)" fill="#083a94"></path><path id="Path_3010" data-name="Path 3010" d="M127.913,285.84H90.266l-1.473,2.168h40.592Z" transform="translate(-77.753 -258.738)" fill="#083a94"></path><path id="Path_3011" data-name="Path 3011" d="M97.571,275.079h25.871l-1.473-2.168H99.044Z" transform="translate(-79.171 -256.649)" fill="#083a94"></path></g><g id="Group_2876" data-name="Group 2876" transform="translate(83.243 273.892)"><path id="Path_3012" data-name="Path 3012" d="M131.415,312.207l-46.7,0,23.35-34.391Z" transform="translate(-84.711 -277.819)" fill="#083a94"></path></g></g></svg>