<svg xmlns="http://www.w3.org/2000/svg" width="604.804" height="383.39" class="px-2 mt-4 img-fluid px-md-0"><g data-name="Group 8665"><path data-name="Path 6350" d="M245.713 96.88l8.969-1.01a2 2 0 011.883.9q.779 1.208 1.668 2.369a33.635 33.635 0 003.552 3.965 1.973 1.973 0 01.487 2.171l-3.439 8.783a1.937 1.937 0 00.955 2.457l7.728 3.827a1.916 1.916 0 002.457-.681l4.673-7.321a1.923 1.923 0 012.153-.833 34.87 34.87 0 0010.94 1.089 1.986 1.986 0 011.989 1.379l1.584 5.041a2.006 2.006 0 002.28 1.354l8.392-1.7a1.745 1.745 0 00.484-.161 1.925 1.925 0 001.074-1.965l-.747-6.7-.185-1.633a34.49 34.49 0 004.07-2.688 35.04 35.04 0 004.775-4.421 1.924 1.924 0 012.147-.518l7.072 2.779a1.993 1.993 0 002.516-.975l2.927-5.907.834-1.7a2.019 2.019 0 00-.718-2.6l-6.115-3.91a1.92 1.92 0 01-.862-2.094 34.618 34.618 0 00.932-7.344 6.13 6.13 0 00.019-.622 1.065 1.065 0 01.014-.209 1.969 1.969 0 011.388-1.685l8.179-2.589a1.431 1.431 0 00.266-.105 2 2 0 001.079-2.169l-1.679-8.368a1.992 1.992 0 00-2.172-1.585l-9.354 1.058a1.925 1.925 0 01-1.932-1.013 35.229 35.229 0 00-2.928-4.48q-.882-1.149-1.839-2.2a2.029 2.029 0 01-.384-2.1l3.3-8.443a1.936 1.936 0 00-.943-2.442l-7.65-3.775a2.024 2.024 0 00-2.61.724l-3.7 5.792a1.988 1.988 0 01-2.313.819 34.791 34.791 0 00-10.553-1.9 1.975 1.975 0 01-1.861-1.39l-2.33-7.373a2.043 2.043 0 00-2.339-1.383l-8.339 1.669a1.953 1.953 0 00-1.56 2.14l.04.392.872 7.784a2 2 0 01-1.079 2.007l-.008.006a34.609 34.609 0 00-5.174 3.287 36.56 36.56 0 00-2.521 2.133 1.959 1.959 0 01-2.062.4l-7.179-2.821a2.027 2.027 0 00-2.56.984l-3.763 7.616a2.184 2.184 0 00-.194.67 2.018 2.018 0 00.9 1.889l4.893 3.11a2.017 2.017 0 01.914 1.757 2.179 2.179 0 01-.1.549 34.652 34.652 0 00-1.762 13.59 1.95 1.95 0 01-1.047 1.871 2 2 0 01-.312.128l-6.625 2.092a1.983 1.983 0 00-1.346 2.274l.037.195 1.63 8.158a2.019 2.019 0 002.212 1.605zm57.38-25.468a23.17 23.17 0 011.217 4.143 18.221 18.221 0 01-1.3 9.845c-.135.277-.276.546-.417.816-8.776 16.291-31.78 13.051-35.568-5.33a18.888 18.888 0 01.674-8.586 12.24 12.24 0 01.687-1.693 21.411 21.411 0 014.281-5.891 18.7 18.7 0 0130.426 6.696z" fill="#083a94"></path><path data-name="Path 6351" d="M530.495 65.466c-8.611-17.354-38.421-5.474-38.421-5.474s-14.639 36.271-20.6 38.249 6.461-33.454 6.461-33.454c-12.073 1.206-39.374 21.723-39.374 21.723s9.349 37.065 3.084 37.516-6.6-33.242-6.6-33.242c-10.78 5.716-18.822 21.214-18.822 21.214-9.047 24.436 22.8 34.791 22.8 34.791s2.963 12.915-2.1 29.41a45.087 45.087 0 00-2.176 8.153l3.125-.621q.133-1.333.366-2.594a.017.017 0 010-.015c0-.013 0-.024.007-.037.118-.525.289-1.274.506-2.187.584-2.058.955-3.568 1.165-4.645a.072.072 0 000-.01c1.695-6.435 4.3-14.9 6.728-17.047a6.165 6.165 0 01-.954-1.3l.954 1.3c7.626 10.4 34.752 7 49.046.98s6.964-8.93-2.415-14.157-25.834-.089-31.333-1.777 1.23-5.8 11.316-7.014 17.027 7.738 33.379 6.078 22.582-34.274 22.582-34.274c-10.4 5.64-31.48 3.474-33-.2s27.974-9.131 32.331-11.189 10.555-12.826 1.945-30.177z" fill="#00ff7f"></path><path data-name="Path 6352" d="M38.629 198.847c-3.505-19.053 27.48-27.4 27.48-27.4s33.453 20.266 39.412 18.278-25.218-22.912-25.218-22.912c10.388-6.268 44.539-6.2 44.539-6.2s14.725 35.276 20.01 31.883-14.632-30.57-14.632-30.57c12.055-1.883 27.78 5.706 27.78 5.706 21.885 14.142 2.594 41.514 2.594 41.514s5.367 12.115 19.3 22.287a45.089 45.089 0 016.627 5.224l-2.874 1.376q-.905-.988-1.848-1.858a.019.019 0 00-.012-.01l-.028-.025c-.409-.35-.995-.846-1.716-1.447-1.7-1.3-2.9-2.285-3.716-3.022a.025.025 0 01-.007-.007c-5.214-4.136-12.368-9.352-15.6-9.617a6.179 6.179 0 00-.016-1.613l.016 1.613c.126 12.9-23.63 26.426-38.679 30.174s-10.926-2.976-6.549-12.781 20.629-15.551 24.019-20.2-4.463-3.91-13.262 1.165-8.995 16.4-23.08 24.867-38.616-13.909-38.616-13.909c11.7-1.715 27.285-16.082 26.306-19.932s-27.867 9.451-32.589 10.415-16.136-3.946-19.641-22.999z" fill="#00ff7f"></path><path data-name="Path 6353" d="M548.878 321.136c15.247-11.951-2.431-38.733-2.431-38.733s-38.486-6.979-41.632-12.416 34.069-.458 34.069-.458c-3.63-11.577-29.256-34.15-29.256-34.15s-34.4 16.672-36.111 10.628 31.211-13.208 31.211-13.208c-7.783-9.4-24.591-14.128-24.591-14.128-25.762-3.9-29.444 29.38-29.444 29.38s-12.046 5.521-29.226 3.908a45.063 45.063 0 00-8.425-.477l1.242 2.934c.888-.093 1.76-.151 2.615-.168a.019.019 0 01.016 0h.037c.539.009 1.306.025 2.244.052h.008c2.135.153 3.687.211 4.785.2h.01c6.645.355 15.46 1.187 18.058 3.131a6.173 6.173 0 011.08-1.2l-1.08 1.2c-8.637 9.577.2 35.449 8.987 48.226s10.156 5.008 13.373-5.236-5.151-25.315-4.614-31.042 5.934.027 9.163 9.659-4.124 18.242.817 33.917 38.141 15.162 38.141 15.162c-7.632-9.038-9.786-30.122-6.5-32.358s14.615 25.541 17.513 29.39 14.691 7.738 29.941-4.213z" fill="#00de76"></path><g data-name="Group 8615" fill="#00de76"><path data-name="Path 6354" d="M410.458 96.844s1.788-35.7 18.475-58.075a3.969 3.969 0 017.132 2.2q0 .093.008.188c.2 6.333-18.278 34.374-25.615 55.687z"></path><path data-name="Path 6355" d="M408.951 107.132s15.03-45.5 44.56-67.2a4.21 4.21 0 015.77.684c.9 1.14 1.4 2.984.681 5.966-1.924 7.957-34.558 36.53-51.011 60.55z"></path></g><g data-name="Group 8616" fill="#00de76"><path data-name="Path 6356" d="M153.311 154.827s-14.979-26.126-36.059-36.56a3.344 3.344 0 00-4.516 4.378c.021.047.043.1.066.144 2.268 4.832 26.857 18.833 40.509 32.038z"></path><path data-name="Path 6357" d="M158.372 161.978s-28.667-28.43-59.134-33.446a3.548 3.548 0 00-4.072 2.718c-.244 1.2.087 2.776 1.767 4.741 4.483 5.238 39.906 14.231 61.439 25.987z"></path></g><path data-name="Path 6358" d="M484.057 98.35v226.636c0 3.965-2.863 7.181-6.392 7.181H150.68c-3.529 0-6.391-3.216-6.391-7.181V98.35c0-3.968 2.862-7.181 6.391-7.181h326.986c3.528-.001 6.391 3.213 6.391 7.181z" fill="#dcdcdc"></path><g data-name="Group 8618"><path data-name="Path 6359" d="M467.891 85.412v18.379H102.977V85.412a6.864 6.864 0 016.865-6.865h351.187a6.864 6.864 0 016.862 6.865z" fill="#042154"></path><g data-name="Group 8617" fill="#e9e9e9"><path data-name="Path 6360" d="M114.14 91.166a3.2 3.2 0 113.2 3.2 3.2 3.2 0 01-3.2-3.2z"></path><path data-name="Path 6361" d="M126.733 91.166a3.2 3.2 0 113.2 3.2 3.2 3.2 0 01-3.2-3.2z"></path><path data-name="Path 6362" d="M139.643 91.166a3.2 3.2 0 113.2 3.2 3.2 3.2 0 01-3.2-3.2z"></path></g></g><path data-name="Path 6363" d="M339.386 58.751l4.368-.492a.974.974 0 01.917.439q.379.589.813 1.154a16.361 16.361 0 001.729 1.931.962.962 0 01.238 1.057l-1.675 4.278a.943.943 0 00.465 1.2l3.763 1.864a.934.934 0 001.2-.332l2.275-3.566a.937.937 0 011.049-.406 16.984 16.984 0 005.328.531.968.968 0 01.969.671l.771 2.455a.976.976 0 001.11.659l4.087-.827a.857.857 0 00.236-.079.937.937 0 00.523-.957l-.364-3.263-.09-.8a16.812 16.812 0 001.982-1.309 17.09 17.09 0 002.326-2.153.937.937 0 011.046-.252l3.444 1.353a.97.97 0 001.226-.475l1.426-2.877.406-.825a.983.983 0 00-.35-1.267l-2.978-1.9a.935.935 0 01-.42-1.02 16.86 16.86 0 00.454-3.576 3.012 3.012 0 00.009-.3.522.522 0 01.006-.1.959.959 0 01.676-.821l3.983-1.261a.677.677 0 00.13-.051.974.974 0 00.526-1.056l-.818-4.076a.97.97 0 00-1.058-.772l-4.556.515a.937.937 0 01-.94-.493 17.168 17.168 0 00-1.427-2.182q-.429-.56-.9-1.072a.987.987 0 01-.187-1.023l1.609-4.112a.943.943 0 00-.459-1.189l-3.726-1.838a.985.985 0 00-1.271.353l-1.8 2.821a.969.969 0 01-1.127.4 16.931 16.931 0 00-5.139-.923.962.962 0 01-.906-.677l-1.135-3.591a1 1 0 00-1.139-.674l-4.062.813a.952.952 0 00-.76 1.042l.02.191.424 3.791a.972.972 0 01-.525.978 16.836 16.836 0 00-2.52 1.6c-.43.33-.835.677-1.228 1.039a.953.953 0 01-1 .2l-3.5-1.374a.987.987 0 00-1.246.479l-1.833 3.709a1.06 1.06 0 00-.094.326.983.983 0 00.44.92l2.384 1.514a.982.982 0 01.444.856 1.053 1.053 0 01-.048.267 16.878 16.878 0 00-.858 6.619.949.949 0 01-.51.911.978.978 0 01-.152.062l-3.227 1.018a.966.966 0 00-.655 1.108l.018.095.794 3.973a.983.983 0 001.069.769zm27.945-12.4a11.314 11.314 0 01.593 2.018 8.877 8.877 0 01-.631 4.794c-.066.135-.135.266-.2.4a9.17 9.17 0 01-16.993-6.777 6.031 6.031 0 01.334-.825 10.433 10.433 0 012.085-2.869 9.105 9.105 0 0114.812 3.256z" fill="#005cff"></path><g data-name="Group 8622"><path data-name="Path 6364" d="M85.175 263.805s.487-5.3-5.439-5.3a6.965 6.965 0 012.724 1.461s-3.78-2.219-7.893 1.191-1.558 11.961-2.809 13.584-6.121 1.948-5.526 7.2 15.459 11.825 14.5 16.168c0 0 5.825-8.562 1.66-12.47a7.719 7.719 0 012.237 4.185s.551-4.438-2.273-5.858c-2.5-1.256-4.546-5.85-4.329-6.672s7.148-13.489 7.148-13.489z" fill="#151f2c"></path><path data-name="Path 6365" d="M79.345 289.27s4.427 18.315 8.773 21.977c2.612 2.2 10.379 7.251 10.379 7.251l-3.23 1.172s-10.773-3.638-13.185-6.473-9.015-17.045-9.015-17.045z" fill="#ee805f"></path><path data-name="Path 6366" d="M37.736 321.446l.122.215c.969 1.684 3.191 5.81 5.639 10.325 1.158 2.142 2.37 4.372 3.52 6.471 1.982 3.621 3.784 6.846 4.836 8.55a156.938 156.938 0 002.176 3.438.8.8 0 01.1.5 26.3 26.3 0 00.07 4.541 34.833 34.833 0 0011.382 22.561l2.945.435s-4.168-15.441-5.4-24.17a16.8 16.8 0 01-.225-3.46 36.145 36.145 0 00-.951-9.447 211.632 211.632 0 00-6.022-21.867c-.137-.427-4.279-15.409-4.279-15.409-3.476 3.038-16.156 4.292-16.156 4.292s-2.14 5.231 2.243 13.025z" fill="#000713"></path><path data-name="Path 6367" d="M74.713 382.214H62.421a6.751 6.751 0 01.347-3.294c.615-1.364 1.492-1.407.112-3.545.781.8 3.292 1.137 5.069.9.218.353 1.4 2.721 2.131 3.244.804.575 4.386.369 4.633 2.695z" fill="#151f2c"></path><path data-name="Path 6368" d="M37.736 321.447l.122.215c.969 1.684 6.208 11.361 8.656 15.876a65.465 65.465 0 01-.864-23.339z" fill="#151f2c"></path><path data-name="Path 6369" d="M83.502 263.059c.081-.323-7.02 3.209-7.38 3.609-3.33 3.694-2.381 8.514-.475 8.561 1.222.03.985 2.061.985 2.061l13.615-5.759s-1.639-9.559-6.745-8.472z" fill="#151f2c"></path><path data-name="Path 6370" d="M78.927 286.52s2.072 4.139 1.813 7.5c0 0-2.5 3.944-8.978 4.942.001-.002 5.573-12.445 7.165-12.442z" fill="#f2b138"></path><path data-name="Path 6371" d="M47.319 309.34l.042-2.3c-4.58.578-15.793-5.473-15.793-5.473s-4.792 3.187-5.448 12.289c-.32 4.443-2.346 23.231-2.57 28.841a166.032 166.032 0 00-.118 4.064.009.009 0 010 .005.8.8 0 01-.195.473 26.243 26.243 0 00-2.482 3.8c-6.99 13-3.334 30.674-3.334 30.674l1.623-.413s5.91-18.318 9.773-26.241a16.584 16.584 0 011.749-2.994 36.14 36.14 0 004.493-8.365c2.853-6.809 12.26-34.36 12.26-34.36z" fill="#000713"></path><path data-name="Path 6372" d="M27.195 382.214H14.903a6.748 6.748 0 01.347-3.294c.615-1.364 1.579-1.984 1.348-3.634a4.425 4.425 0 003.831 1.466 13.48 13.48 0 002.133 2.765c.804.576 4.386.371 4.633 2.697z" fill="#151f2c"></path><path data-name="Path 6373" d="M70.932 301.599c-1.651.282.27 1.594-2 1.841-3.232.353-6.569.594-8.317 1.292a1.875 1.875 0 00-1.2.97c-.758 2.279-5.557 6.194-5.557 6.194-21.4-.974-22.782-10.514-22.782-10.514 13.891-13.491 25.709-20.845 35.476-21.755a17.375 17.375 0 017.084.745c3.416 1.521 5.288 6.149 5.288 6.149s-1.718 14.008-7.992 15.078z" fill="#f2b138"></path><path data-name="Path 6374" d="M68.931 303.44c-3.232.353-6.569.594-8.317 1.292a34.084 34.084 0 014.323-18.7s3.287 13.368 3.994 17.408z" fill="#ffad14"></path><path data-name="Path 6375" d="M73.456 281.251c.611 1.914 2.648 7.367 5.471 5.268a6.968 6.968 0 011.2-2.792 62.113 62.113 0 011.958-3.106l-4.6-4.031-.275-.241a11.721 11.721 0 01-3.422 3.885.919.919 0 00-.332 1.017z" fill="#ee805f"></path><path data-name="Path 6376" d="M82.082 280.623s-1.063 1.567-1.958 3.1c-2.859-1.763-2.862-5.3-2.642-7.137z" fill="#de6b4d"></path><path data-name="Path 6377" d="M82.209 282.643s-6.943-3.863-4.47-8.15 3.241-7.672 7.779-5.387 4.447 4.414 3.97 6.045-5.409 8.386-7.279 7.492z" fill="#ee805f"></path><path data-name="Path 6378" d="M90.661 272.651c-.318-1.9-1.285-2.085-1.959-1.958a5.553 5.553 0 00-6.753-2.585 9.452 9.452 0 01-5.472 3.286s.806 1.5 4.125 2.427a5.677 5.677 0 003.275-.262 18.543 18.543 0 01-4.711 1.776c4.374.4 8.536-3.6 8.968-4.027a6.225 6.225 0 01.344 2.866c-.288 1.289-1.432 3.624-.734 3.926 0 0 3.394-2.595 2.917-5.449z" fill="#151f2c"></path><g data-name="Group 8621"><path data-name="Rectangle 7511" fill="#083a94" d="M108.029 327.689l51.804 25.255-6.624 13.587-51.804-25.256z"></path><g data-name="Group 8619"><path data-name="Path 6379" d="M85.203 344.117a17.128 17.128 0 01-9.271-11.785 3.892 3.892 0 117.6-1.671 9.427 9.427 0 106.543-11.057 3.892 3.892 0 01-2.205-7.465 17.212 17.212 0 11-2.67 31.979z" fill="#083a94"></path></g><g data-name="Group 8620"><path data-name="Path 6380" d="M158.488 379.844a17.212 17.212 0 1123.548-21.8 3.892 3.892 0 01-7.24 2.861 9.427 9.427 0 10-4.681 11.965 3.892 3.892 0 113.367 7.019 17.128 17.128 0 01-14.994-.045z" fill="#083a94"></path></g><path data-name="Rectangle 7512" d="M113.514 338.357a2.374 2.374 0 013.175-1.095l25.869 12.611a2.375 2.375 0 011.094 3.176 2.375 2.375 0 01-3.175 1.094l-25.87-12.612a2.374 2.374 0 01-1.093-3.174z" fill="#042154"></path></g><path data-name="Path 6381" d="M78.234 330.315a4.6 4.6 0 00.7 1.962c.547.668 2.137 2.285 2.166 3.231 0 0-.08.42-.422.344s-1.526-1.25-2.134-1.166a11.792 11.792 0 00.646 2.431 6.667 6.667 0 01.72 3.007c-.193.461-3.412-2.222-4.387-3.532s-.016-6.631-.016-6.631z" fill="#ee805f"></path><path data-name="Path 6382" d="M71.72 284.22s-8.128-.444-9.573 4.659 2.71 25.472 3.6 27.574c1.63 3.827 9.564 14.751 9.564 14.751l2.917-.888s-5.29-16.688-6.471-18.339c-1.845-2.593 2.396-25.537-.037-27.757z" fill="#ee805f"></path><path data-name="Path 6383" d="M60.545 295.703c.021.119 7.692 1.411 12.489-1.024 0 0 4.008-12.556-1.719-11.955s-9.119 2.4-9.263 5.147a52.8 52.8 0 01-1.507 7.832z" fill="#f2b138"></path><path data-name="Path 6384" d="M94.504 310.332a3.182 3.182 0 00-1.347.34c-.443.342-.941.937.052 1.431 1.49.742 4.469.413 4.352-.034-.366-1.408-.904-1.836-3.057-1.737z" fill="#ee805f"></path></g><g data-name="Group 8625"><path data-name="Path 6385" d="M189.224 110.451a1.39 1.39 0 00-.248 1.487.01.01 0 000 .007 9.232 9.232 0 002.92 3.2c.176.142.332.271.469.391.035.031.072.063.1.094l.081.073c1.283 1.183.8 1.454 3.106 3.855 2.63 2.736 4.44 2.785 4.955 2.536.436-.212-.449-1.663-1.43-3.294l-.143-.238c-.131-.217-.26-.437-.39-.655-1.149-1.962-.854-2.884-.582-5.8.222-2.374 3.693-13.261 3.693-13.261l-5.039-.868s-1.518 8.67-3.19 10.005c-.893.712-1.895.721-2.754 1.249-.061.037-.12.074-.179.113a6.61 6.61 0 00-1.369 1.106z" fill="#ee805f"></path><path data-name="Path 6386" d="M189.224 110.452a1.39 1.39 0 00-.248 1.487.01.01 0 000 .007 10.7 10.7 0 002.925 3.193c.174.144.327.277.464.4.035.031.072.063.1.094l.081.073c1.283 1.183.8 1.454 3.106 3.855 2.63 2.736 4.44 2.785 4.955 2.536.436-.212-.449-1.663-1.43-3.294a11.2 11.2 0 01-4.687-3.454c-1.583-2.02-2.639-4.617-3.718-6.12-.061.037-.12.074-.179.113a6.61 6.61 0 00-1.369 1.11z" fill="#151f2c"></path><path data-name="Path 6387" d="M229.857 107.304c.311 1.555 2.528 1.3 5.005.691s1.889.114 5.414-.276 4.593-1.7 4.7-2.229c.1-.465-1.646-.629-3.514-.844-.235-.027-.471-.056-.707-.085-2.109-.264-3.654-1.626-5.57-2.744-1.815-1.059-4.524-5.373-4.524-5.373l-4.835.383s2.537 3.853 3.518 5.529a5.841 5.841 0 01.475 3.295 6.216 6.216 0 00.038 1.653z" fill="#ee805f"></path><path data-name="Path 6388" d="M234.863 107.995c2.477-.605 1.889.114 5.414-.276s4.593-1.7 4.7-2.229c.1-.465-1.646-.629-3.514-.844l-.017.036a9.939 9.939 0 01-5.049 1.569c-2.392.058-4.925-.627-6.577-.6a6.2 6.2 0 00.037 1.654c.312 1.555 2.529 1.296 5.006.69z" fill="#151f2c"></path><path data-name="Path 6389" d="M211.329 76.389l-4.52 12.162-5.9 15.88a9.562 9.562 0 01-3.135-.286 13.6 13.6 0 01-3.032-1.476s1.639-17.051 4.7-26.838a17.437 17.437 0 012.63-5.688c4.733-5.601 9.257 6.246 9.257 6.246z" fill="#000c20"></path><path data-name="Path 6390" d="M206.733 57.075c-2.961-.955-11.406.271-19.89 1.932l-1.776-2.93-18.324-1.431s-6.047 13.409-2.736 21.953a3.1 3.1 0 003.1 2.088h.267s10.906-.006 14.448-.006c9.113 0 19.286-6.264 20.6-6.527 2.154-.431 3.015 3.877 5.17 8.4s20.248 20.032 20.248 20.032a15.924 15.924 0 003.93-.4 3.871 3.871 0 001.687-1.065s-20.046-39.893-26.724-42.046z" fill="#000713"></path><path data-name="Path 6391" d="M178.996.293c-2.568-.661-6.082 0-6.665.055-6.972.686-9.315 8.464-8.259 14.5.974 5.569-1.851 7.11-5.124 11.508-6.563 8.82-2.274 16.256 2.906 18.173 3.108 1.15 7.422-1.752 7.422-1.752.078.031 13.557-8.83 19.082-13.826 9.2-3.602-2.819-26.975-9.362-28.658z" fill="#151f2c"></path><path data-name="Path 6392" d="M180.025 25.801c.183.646-2.867 1.832-5.195 1.4-2.19-.408-4.645-2.973-4.139-3.214.838-.4 1.4-1.389.944-6.744l.417.047 7.007.8s.021 2.183.184 4.227a13.836 13.836 0 00.782 3.484z" fill="#ee805f"></path><path data-name="Path 6393" d="M179.059 18.086s.021 2.183.184 4.227c-3.867.208-6.2-3.145-7.191-5.027z" fill="#de6b4d"></path><path data-name="Path 6394" d="M180.507 19.916s-9.117.9-9.59-4.787-1.968-9.4 3.834-10.214 7.114 1.261 7.733 3.121.382 11.5-1.977 11.88z" fill="#ee805f"></path><path data-name="Path 6395" d="M179.531 4.018s-1.148 6.946-6.34 8.595c-3.788 1.2-5.5.41-5.5.41a15.436 15.436 0 002.471-5.78 2.779 2.779 0 011.854-2.121c2.688-.886 5.95-3.307 7.515-1.104z" fill="#151f2c"></path><path data-name="Path 6396" d="M177.812 5.499a6.032 6.032 0 013.241 2.6 11.634 11.634 0 011.631 5.618s1.6-6.429-.731-8.821c-2.467-2.536-4.141.603-4.141.603z" fill="#151f2c"></path><path data-name="Path 6397" d="M163.604 44.481c.162.69.3 1.326.415 1.912.186.946.313 1.761.4 2.48.278 2.242.194 3.571.383 5.025a12.514 12.514 0 00.682 2.736c.377 1.041 10.284 1.97 15.922 1.6a7.725 7.725 0 003.637-.786c2.011-1.746 1.811 2.095 2.086-16.284.133-8.965-7.607-16.948-7.607-16.948s-.618 3.83-8.294-.728c-.273-.16-3.3 4.317-6.206 9.829-3.198 6.084-2.318 7.372-1.418 11.164z" fill="#042154"></path><path data-name="Path 6398" d="M206.814 88.551l-5.9 15.88a9.563 9.563 0 01-3.135-.286 13.6 13.6 0 01-3.032-1.476s1.639-17.051 4.7-26.838z" fill="#000713"></path><path data-name="Path 6399" d="M179.528 24.209s7.9 1.339 8.825 4.74 7.335 22.419 7.335 22.419-4.965 1.694-6.82-.161-6.455-17.21-6.455-17.21z" fill="#042154"></path><path data-name="Path 6400" d="M178.403 16.563a1.567 1.567 0 001.391.935c1.01 0 1.282-.151 1.473-.365a3.171 3.171 0 00.381-.626 8.57 8.57 0 00-3.245.056z" fill="#fff"></path><path data-name="Path 6401" d="M164.427 48.874c.279 2.242.194 3.571.383 5.025 7.172.023 16.76-5.538 16.76-5.538z" fill="#00266a"></path><path data-name="Path 6402" d="M181.569 43.656s-11.172-.333-13.055-6.683c-2.069-6.977-4.386 2.869-4.386 2.869l1.233 6.284h12.257z" fill="#00266a"></path><g data-name="Group 8624"><path data-name="Path 6403" d="M201.047 26.425l-.6-1.495a4.24 4.24 0 00-3.932-2.653h-11.137v37.238h46.072V29.344h-26.072a4.666 4.666 0 01-4.331-2.919z" fill="#b8c0c7"></path><g data-name="Group 8623" fill="#fff"><path data-name="Path 6404" d="M192.327 44.922v-2.685l9.415-4.124v2.743l-6.575 2.7 6.575 2.7v2.789z"></path><path data-name="Path 6405" d="M211.521 34.904h2.509l-8.617 18.013h-2.509z"></path><path data-name="Path 6406" d="M224.495 42.238v2.685l-9.415 4.124v-2.743l6.574-2.7-6.574-2.7v-2.782z"></path></g></g><path data-name="Path 6407" d="M181.568 45.128l.809-1.269a6.5 6.5 0 001.537-.838c1.067-.749.926-1.872 1.459-1.753l.007 2.467-.058.008c2.29.612 4.967-.053 5.021.517.147 1.568-1.065 2.274-2.081 2.765a3.686 3.686 0 01-3.067.5c-1.027-.319-2.644-.645-2.644-.645z" fill="#ee805f"></path><path data-name="Path 6408" d="M171.232 23.484s-7.252.474-9.065 3.3-4.062 17.189-3.119 22.121 24.167-.943 24.167-.943l-.741-4.279s-13.4.078-14.167-1.668c-1.012-2.318 2.925-18.531 2.925-18.531z" fill="#042154"></path><path data-name="Path 6409" d="M206.243 29.328c-.062.188 1.091 2.088 2.737 1.758 1.027-.206 2.362-2.416 1.189-2.9a3.336 3.336 0 00-3.926 1.142z" fill="#ee805f"></path></g><g data-name="Group 8631"><g data-name="Group 8626"><path data-name="Rectangle 7513" fill="#151f2c" d="M276.904 128.945l26.934-50.46.243.13-26.934 50.46z"></path></g><g data-name="Group 8627"><path data-name="Rectangle 7514" fill="#151f2c" d="M372.197 78.642l.202-.188 30.288 32.648-.203.188z"></path></g><g data-name="Group 8630"><path data-name="Path 6410" d="M421.392 120.749a12.113 12.113 0 01-2.259 8.872 11.553 11.553 0 01-7.725 4.622l-135.37 18.6c-6.909.95-13.3-3.628-14.2-10.171a11.656 11.656 0 012.536-8.909 12.993 12.993 0 018.392-4.713l135.37-18.6a11.9 11.9 0 0113.256 10.299z" fill="#e9e9e9"></path><path data-name="Path 6411" d="M421.394 120.749a12.114 12.114 0 01-2.259 8.872 11.552 11.552 0 01-7.725 4.622l-24.5 3.366-3.27-23.793 24.5-3.366a11.905 11.905 0 0113.254 10.299z" fill="#003da8"></path><g data-name="Group 8629"><g data-name="Group 8628"><path data-name="Path 6412" d="M406.485 127.204a6.232 6.232 0 01-.917.057 6.12 6.12 0 01-4.207-10.5 6.12 6.12 0 115.124 10.44zm-4.419-9.719a5.112 5.112 0 107.229.084 5.118 5.118 0 00-7.229-.084z" fill="#fff"></path></g><path data-name="Rectangle 7515" fill="#fff" d="M401.269 124.706l.704.721-5.973 5.837-.705-.72z"></path><path data-name="Path 6413" d="M393.572 132.932a.9.9 0 01.014-1.273l3.518-3.437a.9.9 0 011.273.015.9.9 0 01-.015 1.273l-3.519 3.438a.9.9 0 01-1.271-.016z" fill="#fff"></path></g></g></g><g data-name="Group 8634" transform="translate(164.72 247.452)"><rect data-name="Rectangle 7516" width="30.414" height="2.581" rx="1.29" fill="#f2b138"></rect><g data-name="Group 8633" fill="#083a94"><path data-name="Path 6414" d="M14.835 11.451H.881A.881.881 0 010 10.57a.881.881 0 01.881-.88h13.954a.881.881 0 01.88.88.881.881 0 01-.88.881z"></path><g data-name="Group 8632" transform="translate(0 5.999)"><rect data-name="Rectangle 7517" width="26.34" height="1.761" rx="0.88"></rect><rect data-name="Rectangle 7518" width="24.596" height="1.761" rx="0.88" transform="translate(28.74)"></rect><path data-name="Path 6415" d="M32.241 5.452H18.284a.88.88 0 01-.88-.881.88.88 0 01.88-.88h13.955a.881.881 0 01.881.88.881.881 0 01-.879.881z"></path></g></g><path data-name="Rectangle 7519" d="M35.729 0h27.834a1.29 1.29 0 011.29 1.29 1.29 1.29 0 01-1.29 1.29H35.729a1.29 1.29 0 01-1.29-1.29A1.29 1.29 0 0135.729 0z" fill="#f2b138"></path></g><g data-name="Group 8637"><path data-name="Rectangle 7520" d="M166.01 266.881h27.834a1.29 1.29 0 011.29 1.29 1.29 1.29 0 01-1.29 1.29H166.01a1.29 1.29 0 01-1.29-1.29 1.29 1.29 0 011.29-1.29z" fill="#f2b138"></path><g data-name="Group 8636" fill="#083a94"><path data-name="Path 6416" d="M179.555 278.334h-13.954a.881.881 0 01-.881-.881.881.881 0 01.881-.88h13.954a.881.881 0 01.88.88.881.881 0 01-.88.881z"></path><g data-name="Group 8635" transform="translate(164.72 272.88)"><rect data-name="Rectangle 7521" width="26.34" height="1.761" rx="0.881"></rect><path data-name="Rectangle 7522" d="M29.621 0h22.835a.88.88 0 01.88.88.88.88 0 01-.88.88H29.62a.88.88 0 01-.88-.879.881.881 0 01.881-.881z"></path><path data-name="Path 6417" d="M32.241 5.454H18.284a.881.881 0 01-.88-.881.88.88 0 01.88-.88h13.955a.881.881 0 01.881.88.881.881 0 01-.879.881z"></path></g></g><path data-name="Rectangle 7523" d="M200.449 266.881h27.834a1.29 1.29 0 011.29 1.29 1.29 1.29 0 01-1.29 1.29h-27.834a1.29 1.29 0 01-1.29-1.29 1.29 1.29 0 011.29-1.29z" fill="#f2b138"></path></g><g data-name="Group 8638" fill="#042154"><path data-name="Path 6418" d="M341.07 151.376l-16.152 3.759-7.987 14.534-6.1-33.122z"></path><path data-name="Rectangle 7524" d="M321.685 153.729l2.354-1.784 10.318 13.616-2.354 1.783z"></path></g><g data-name="Group 8640" transform="translate(287.869 174.304)"><rect data-name="Rectangle 7525" width="45.539" height="45.539" rx="8.099" fill="#e9e9e9"></rect><g data-name="Group 8639" fill="#083a94"><path data-name="Path 6419" d="M5.817 36.014l8.849-15.953a2.911 2.911 0 014.893-.309l5.1 6.961a2.911 2.911 0 004.5.244 2.911 2.911 0 014.59.382l5.508 8.5a2.911 2.911 0 01-2.443 4.493H8.364a2.911 2.911 0 01-2.547-4.318z"></path><path data-name="Path 6420" d="M23.281 12.606a3.481 3.481 0 113.481 3.481 3.481 3.481 0 01-3.481-3.481z"></path></g></g><g data-name="Group 8642"><path data-name="Path 6421" d="M388.756 221.069l-39.354 5.368a2.911 2.911 0 01-3.277-2.491l-5.368-39.353a2.911 2.911 0 012.49-3.278l39.354-5.368a2.91 2.91 0 013.277 2.49l5.368 39.354a2.911 2.911 0 01-2.49 3.278z" fill="#e9e9e9"></path><g data-name="Group 8641" fill="#083a94"><path data-name="Path 6422" d="M350.996 216.606l6.612-17a2.911 2.911 0 014.806-.967l6 6.208a2.911 2.911 0 004.487-.366 2.91 2.91 0 014.6-.242l6.607 7.681a2.91 2.91 0 01-1.813 4.782l-28.189 3.845a2.911 2.911 0 01-3.11-3.941z"></path><path data-name="Path 6423" d="M365.135 191.052a3.481 3.481 0 113.919 2.979 3.481 3.481 0 01-3.919-2.979z"></path></g></g><g data-name="Group 8643"><path data-name="Path 6486" d="M250.093 361.754h22.95v19.678h-22.95z" fill="#083a94"></path><path data-name="Rectangle 7527" fill="#042154" d="M249.167 360.912h24.653v1.52h-24.653z"></path><path data-name="Rectangle 7528" fill="#042154" d="M250.093 367.078h22.95v6.25h-22.95z"></path></g><path data-name="Path 6424" d="M300.966 381.445h-21.67a1.436 1.436 0 01-1.437-1.436v-2.4a1.436 1.436 0 011.594-1.428l21.671 2.4a1.436 1.436 0 011.278 1.428 1.436 1.436 0 01-1.436 1.436z" fill="#083a94"></path><path data-name="Path 6425" d="M604.068 383.39L.735 383.182a.738.738 0 01-.735-.736v-.377a.737.737 0 01.735-.735l603.333.208a.737.737 0 01.735.735v.377a.738.738 0 01-.735.736z" fill="#171717"></path><g data-name="Group 8644"><path data-name="Path 6426" d="M263.111 221.633h-2.5a.411.411 0 110-.821h2.48a.418.418 0 01.419.411.4.4 0 01-.399.41zm-4.978 0h-2.48a.411.411 0 110-.821h2.48a.411.411 0 010 .821zm-4.961 0h-2.48a.411.411 0 010-.821h2.48a.411.411 0 110 .821zm-4.961 0h-2.48a.411.411 0 010-.821h2.48a.411.411 0 110 .821zm-4.961 0h-2.48a.411.411 0 010-.821h2.48a.411.411 0 110 .821zm-4.961 0h-2.48a.411.411 0 010-.821h2.48a.411.411 0 110 .821zm-4.961 0h-2.48a.411.411 0 010-.821h2.48a.411.411 0 110 .821zm-4.961 0h-2.48a.411.411 0 010-.821h2.48a.411.411 0 110 .821zm-4.961 0h-2.48a.411.411 0 110-.821h2.48a.411.411 0 110 .821zm-4.961 0h-2.48a.411.411 0 110-.821h2.48a.411.411 0 010 .821zm-4.961 0h-2.48a.411.411 0 110-.821h2.48a.411.411 0 010 .821zm-4.961 0h-2.48a.411.411 0 110-.821h2.48a.411.411 0 010 .821zm-4.961 0h-2.48a.411.411 0 110-.821h2.48a.411.411 0 010 .821zm-4.961 0h-2.48a.411.411 0 110-.821h2.48a.411.411 0 110 .821zm-4.961 0h-2.48a.411.411 0 010-.821h2.48a.411.411 0 110 .821zm-4.961 0h-2.48a.411.411 0 010-.821h2.48a.411.411 0 110 .821zm-4.961 0h-2.48a.411.411 0 010-.821h2.48a.411.411 0 010 .821zm-4.961 0h-2.211q-.149 0-.3-.009a.411.411 0 01.052-.819c.08 0 .161.008.243.008h2.211a.411.411 0 110 .821zm86.686-.722a.411.411 0 01-.231-.75 3.779 3.779 0 001.385-1.716.411.411 0 11.761.307 4.594 4.594 0 01-1.685 2.088.41.41 0 01-.23.071zm-91.452-.148a.407.407 0 01-.25-.086 4.583 4.583 0 01-1.557-2.185.411.411 0 11.779-.26 3.771 3.771 0 001.279 1.8.41.41 0 01-.251.736zm93.29-4.195a.411.411 0 01-.411-.411v-2.48a.411.411 0 11.821 0v2.48a.411.411 0 01-.408.411zm-94.923-.252a.411.411 0 01-.411-.411v-2.48a.411.411 0 11.821 0v2.48a.411.411 0 01-.408.411zm94.923-4.709a.411.411 0 01-.411-.411v-2.48a.411.411 0 11.821 0v2.48a.411.411 0 01-.408.411zm-94.923-.252a.411.411 0 01-.411-.411v-2.48a.411.411 0 11.821 0v2.48a.411.411 0 01-.408.406zm94.923-4.709a.41.41 0 01-.411-.41v-2.481a.411.411 0 01.821 0v2.481a.41.41 0 01-.408.414zm-94.923-.252a.411.411 0 01-.411-.41v-2.48a.411.411 0 01.821 0v2.48a.411.411 0 01-.408.41zm94.923-4.708a.411.411 0 01-.411-.411v-2.48a.411.411 0 01.821 0v2.48a.411.411 0 01-.408.411zm-94.923-.253a.411.411 0 01-.411-.41v-2.48a.411.411 0 01.821 0v2.48a.41.41 0 01-.408.41zm94.923-4.708a.411.411 0 01-.411-.411v-2.48a.411.411 0 11.821 0v2.48a.411.411 0 01-.408.411zm-94.923-.252a.411.411 0 01-.411-.411v-2.48a.411.411 0 01.821 0v2.48a.411.411 0 01-.408.411zm94.923-4.709a.411.411 0 01-.411-.411v-2.48a.411.411 0 11.821 0v2.48a.411.411 0 01-.408.411zm-94.923-.252a.411.411 0 01-.411-.411v-2.48a.411.411 0 11.821 0v2.48a.411.411 0 01-.408.411zm94.923-4.709a.411.411 0 01-.411-.411v-2.48a.411.411 0 01.821 0v2.48a.411.411 0 01-.408.411zm-94.921-.253a.411.411 0 01-.411-.411v-2.48a.411.411 0 11.821 0v2.48a.411.411 0 01-.41.411zm94.923-4.709a.411.411 0 01-.411-.41v-2.481a.411.411 0 01.821 0v2.481a.411.411 0 01-.41.411zm-94.923-.252a.411.411 0 01-.411-.411v-2.48a.411.411 0 01.821 0v2.48a.411.411 0 01-.41.412zm94.923-4.709a.411.411 0 01-.411-.411v-2.48a.411.411 0 01.821 0v2.48a.411.411 0 01-.41.412zm-94.923-.252a.411.411 0 01-.411-.411v-2.48a.411.411 0 11.821 0v2.48a.411.411 0 01-.41.412zm94.923-4.709a.411.411 0 01-.411-.41v-1.12a3.773 3.773 0 00-.2-1.206.411.411 0 01.778-.262 4.6 4.6 0 01.24 1.468v1.12a.411.411 0 01-.407.412zm-94.923-.252a.411.411 0 01-.411-.41v-.868a4.578 4.578 0 01.336-1.727.411.411 0 11.761.309 3.756 3.756 0 00-.276 1.419v.868a.411.411 0 01-.41.41zm93.282-4.192a.408.408 0 01-.25-.085 3.756 3.756 0 00-2.063-.772.41.41 0 01.05-.819 4.573 4.573 0 012.513.941.411.411 0 01-.251.736zm-91.437-.147a.411.411 0 01-.23-.751 4.576 4.576 0 012.565-.787.411.411 0 010 .821 3.76 3.76 0 00-2.107.646.408.408 0 01-.228.072zm86.669-.717h-2.48a.411.411 0 110-.821h2.48a.411.411 0 010 .821zm-4.961 0h-2.48a.411.411 0 110-.821h2.48a.411.411 0 110 .821zm-4.961 0h-2.48a.411.411 0 010-.821h2.48a.411.411 0 010 .821zm-4.961 0h-2.48a.411.411 0 110-.821h2.48a.411.411 0 010 .821zm-4.961 0h-2.48a.411.411 0 010-.821h2.48a.411.411 0 010 .821zm-4.961 0h-2.48a.411.411 0 010-.821h2.48a.411.411 0 110 .821zm-4.961 0h-2.48a.411.411 0 010-.821h2.48a.411.411 0 110 .821zm-4.961 0h-2.48a.411.411 0 010-.821h2.48a.411.411 0 110 .821zm-4.961 0h-2.48a.411.411 0 110-.821h2.48a.411.411 0 110 .821zm-4.96 0h-2.483a.411.411 0 110-.821h2.48a.411.411 0 010 .821zm-4.961 0h-2.48a.411.411 0 110-.821h2.48a.411.411 0 110 .821zm-4.961 0h-2.48a.411.411 0 110-.821h2.48a.411.411 0 110 .821zm-4.961 0h-2.48a.411.411 0 010-.821h2.48a.411.411 0 010 .821zm-4.961 0h-2.481a.411.411 0 010-.821h2.481a.411.411 0 110 .821zm-4.961 0h-2.48a.411.411 0 110-.821h2.48a.411.411 0 110 .821zm-4.961 0h-2.48a.411.411 0 010-.821h2.48a.411.411 0 010 .821zm-4.961 0h-2.48a.411.411 0 010-.821h2.48a.411.411 0 010 .821z" fill="#151f2c"></path></g><g data-name="Group 8645"><path data-name="Path 6427" d="M404.111 290.471h-2.214a.364.364 0 010-.727h2.2a.371.371 0 01.373.364.357.357 0 01-.359.363zm-4.411 0h-2.2a.364.364 0 010-.727h2.2a.364.364 0 010 .727zm-4.4 0h-2.2a.364.364 0 110-.727h2.2a.364.364 0 110 .727zm-4.394 0h-2.2a.364.364 0 110-.727h2.2a.364.364 0 110 .727zm-4.395 0h-2.2a.364.364 0 110-.727h2.2a.364.364 0 110 .727zm-4.395 0h-2.2a.364.364 0 110-.727h2.2a.364.364 0 110 .727zm-4.395 0h-2.2a.364.364 0 110-.727h2.2a.364.364 0 010 .727zm-4.395 0h-2.2a.364.364 0 110-.727h2.2a.364.364 0 110 .727zm-4.394 0h-2.2a.364.364 0 010-.727h2.2a.364.364 0 010 .727zm-4.4 0h-2.202a.364.364 0 11.036-.727h2.179a.364.364 0 110 .727zm40.989-1.392h-.012a.364.364 0 01-.352-.375v-2.186a.364.364 0 01.728 0v2.209a.364.364 0 01-.353.352zm-44.549-.059a.364.364 0 01-.364-.364v-2.2a.364.364 0 11.727 0v2.2a.364.364 0 01-.352.364zm44.55-4.336a.364.364 0 01-.364-.364v-2.2a.364.364 0 01.728 0v2.2a.364.364 0 01-.354.364zm-44.55-.059a.364.364 0 01-.364-.364v-2.2a.364.364 0 11.727 0v2.2a.364.364 0 01-.352.365zm44.55-4.336a.363.363 0 01-.364-.363v-2.2a.364.364 0 01.728 0v2.2a.364.364 0 01-.354.363zm-44.55-.059a.363.363 0 01-.364-.364v-2.143-.069a.358.358 0 01.378-.349.364.364 0 01.349.378v2.183a.364.364 0 01-.352.365zm43.179-3.58h-2.2a.364.364 0 110-.727h2.213a.364.364 0 01-.016.727zm-4.4 0h-2.2a.364.364 0 110-.727h2.2a.364.364 0 010 .727zm-4.395 0h-2.2a.364.364 0 110-.727h2.2a.364.364 0 010 .727zm-4.395 0h-2.2a.364.364 0 110-.727h2.2a.364.364 0 110 .727zm-4.395 0h-2.2a.364.364 0 110-.727h2.2a.364.364 0 010 .727zm-4.394 0h-2.2a.364.364 0 110-.727h2.2a.364.364 0 010 .727zm-4.395 0h-2.2a.364.364 0 110-.727h2.2a.364.364 0 110 .727zm-4.395 0h-2.2a.364.364 0 110-.727h2.2a.364.364 0 110 .727zm-4.395 0h-2.2a.364.364 0 110-.727h2.2a.364.364 0 110 .727zm-4.395 0h-2.169a.367.367 0 01-.368-.364.36.36 0 01.359-.364h2.2a.364.364 0 010 .727z" fill="#151f2c"></path></g><g data-name="Group 8646"><path data-name="Path 6428" d="M247.162 159.34h-2.447a.411.411 0 010-.822h2.432a.417.417 0 01.418.411.4.4 0 01-.403.411zm-4.878 0h-2.43a.411.411 0 010-.822h2.432a.411.411 0 010 .822zm-4.863 0h-2.431a.411.411 0 010-.822h2.431a.411.411 0 110 .822zm-4.863 0h-2.431a.411.411 0 110-.822h2.431a.411.411 0 010 .822zm-4.863 0h-2.431a.411.411 0 010-.822h2.431a.411.411 0 110 .822zm-4.863 0h-2.431a.411.411 0 110-.822h2.431a.411.411 0 010 .822zm-4.863 0h-2.431a.411.411 0 010-.822h2.431a.411.411 0 110 .822zm-4.818-.262a.407.407 0 01-.2-.054 2.437 2.437 0 01-1.233-2.116v-.3a.411.411 0 11.821 0v.3a1.614 1.614 0 00.817 1.4.411.411 0 01-.2.768zm35.886-1.047a.41.41 0 01-.384-.555 1.607 1.607 0 00.1-.567v-1.7a.411.411 0 01.821 0v1.7a2.428 2.428 0 01-.155.856.411.411 0 01-.382.267zm-36.911-3.441a.411.411 0 01-.41-.411v-2.433a.411.411 0 01.821 0v2.432a.411.411 0 01-.411.413zm37.04-1.406a.411.411 0 01-.411-.411v-2.427a.411.411 0 11.821 0v2.431a.411.411 0 01-.409.407zm-37.04-3.457a.411.411 0 01-.41-.41v-2.431a.411.411 0 11.821 0v2.432a.41.41 0 01-.411.409zm37.04-1.406a.41.41 0 01-.411-.41v-2.432a.411.411 0 11.821 0v2.432a.411.411 0 01-.409.41zm-37.04-3.456a.411.411 0 01-.41-.411v-2.432a.411.411 0 11.821 0v2.432a.411.411 0 01-.411.411zm37.04-1.406a.411.411 0 01-.411-.411v-2.432a.411.411 0 01.821 0v2.43a.411.411 0 01-.409.413zm-37.04-3.457a.411.411 0 01-.41-.411v-2.431a.411.411 0 11.821 0v2.431a.411.411 0 01-.411.411zm37.04-1.406a.411.411 0 01-.411-.411v-2.431a.411.411 0 11.821 0v2.431a.411.411 0 01-.409.41zm-37.04-3.457a.411.411 0 01-.41-.41v-2.432a.411.411 0 01.821 0v2.432a.41.41 0 01-.411.41zm37.04-1.406a.411.411 0 01-.411-.411v-2.432a.411.411 0 01.821 0v2.432a.411.411 0 01-.409.411zm-37.04-3.457a.411.411 0 01-.41-.411v-1.7a2.419 2.419 0 01.158-.865.411.411 0 11.767.292 1.606 1.606 0 00-.1.572v1.7a.411.411 0 01-.415.412zm37.04-1.406a.411.411 0 01-.411-.411v-.29a1.612 1.612 0 00-.823-1.4.411.411 0 01.4-.716 2.436 2.436 0 011.24 2.12v.29a.411.411 0 01-.405.407zm-3.418-2.311h-2.432a.411.411 0 010-.821h2.432a.411.411 0 110 .821zm-4.863 0h-2.431a.411.411 0 110-.821h2.431a.411.411 0 110 .821zm-4.863 0h-2.431a.411.411 0 110-.821h2.431a.411.411 0 110 .821zm-4.863 0h-2.431a.411.411 0 110-.821h2.431a.411.411 0 110 .821zm-4.863 0h-2.432a.411.411 0 110-.821h2.432a.411.411 0 010 .821zm-4.863 0h-2.431a.411.411 0 010-.821h2.431a.411.411 0 110 .821zm-4.863 0h-2.424a.414.414 0 01-.414-.411.407.407 0 01.407-.41h2.432a.411.411 0 010 .821z" fill="#151f2c"></path></g><g data-name="Group 8647"><path data-name="Path 6429" d="M404.111 310.75h-2.214a.364.364 0 010-.727h2.2a.371.371 0 01.373.364.357.357 0 01-.359.363zm-4.411 0h-2.2a.364.364 0 010-.727h2.2a.364.364 0 010 .727zm-4.4 0h-2.2a.364.364 0 110-.727h2.2a.364.364 0 110 .727zm-4.394 0h-2.2a.364.364 0 110-.727h2.2a.364.364 0 110 .727zm-4.395 0h-2.2a.364.364 0 110-.727h2.2a.364.364 0 110 .727zm-4.395 0h-2.2a.364.364 0 110-.727h2.2a.364.364 0 110 .727zm-4.395 0h-2.2a.364.364 0 110-.727h2.2a.364.364 0 010 .727zm-4.395 0h-2.2a.364.364 0 110-.727h2.2a.364.364 0 110 .727zm-4.394 0h-2.2a.364.364 0 010-.727h2.2a.364.364 0 010 .727zm-4.4 0h-2.202a.364.364 0 01-.345-.381.358.358 0 01.381-.345h2.179a.364.364 0 110 .727zm40.989-1.392h-.012a.364.364 0 01-.352-.375v-2.186a.364.364 0 01.728 0v2.209a.364.364 0 01-.353.351zm-44.549-.059a.363.363 0 01-.364-.364v-2.2a.364.364 0 11.727 0v2.2a.363.363 0 01-.352.364zm44.55-4.336a.363.363 0 01-.364-.364v-2.2a.364.364 0 01.728 0v2.2a.364.364 0 01-.354.364zm-44.55-.059a.363.363 0 01-.364-.364v-2.2a.364.364 0 11.727 0v2.2a.364.364 0 01-.352.364zm44.55-4.336a.363.363 0 01-.364-.363v-2.2a.364.364 0 01.728 0v2.2a.364.364 0 01-.354.363zm-44.55-.059a.364.364 0 01-.364-.364v-2.143-.069a.358.358 0 01.378-.349.364.364 0 01.349.378v2.182a.364.364 0 01-.352.366zm43.179-3.58h-2.2a.364.364 0 110-.727h2.213a.364.364 0 01-.016.727zm-4.4 0h-2.2a.364.364 0 110-.727h2.2a.364.364 0 010 .727zm-4.395 0h-2.2a.364.364 0 110-.727h2.2a.364.364 0 010 .727zm-4.395 0h-2.2a.364.364 0 110-.727h2.2a.364.364 0 110 .727zm-4.395 0h-2.2a.364.364 0 110-.727h2.2a.364.364 0 010 .727zm-4.394 0h-2.2a.364.364 0 110-.727h2.2a.364.364 0 010 .727zm-4.395 0h-2.2a.364.364 0 110-.727h2.2a.364.364 0 110 .727zm-4.395 0h-2.2a.364.364 0 110-.727h2.2a.364.364 0 110 .727zm-4.395 0h-2.2a.364.364 0 110-.727h2.2a.364.364 0 110 .727zm-4.395 0h-2.169a.367.367 0 01-.368-.364.36.36 0 01.359-.364h2.2a.364.364 0 010 .727z" fill="#151f2c"></path></g><g data-name="Group 8648"><path data-name="Path 6430" d="M230.705 295.472h-2.193a.364.364 0 110-.727h2.178a.37.37 0 01.371.364.357.357 0 01-.356.363zm-4.372 0h-2.178a.364.364 0 110-.727h2.178a.364.364 0 110 .727zm-4.357 0h-2.178a.364.364 0 110-.727h2.178a.364.364 0 110 .727zm-4.357 0h-2.179a.364.364 0 110-.727h2.179a.364.364 0 110 .727zm-4.357 0h-2.175a.364.364 0 110-.727h2.178a.364.364 0 010 .727zm-4.357 0h-2.178a.364.364 0 010-.727h2.178a.364.364 0 110 .727zm-4.357 0h-2.178a.364.364 0 110-.727h2.178a.364.364 0 110 .727zm-4.356 0h-2.178a.364.364 0 010-.727h2.178a.364.364 0 110 .727zm-4.357 0h-2.179a.364.364 0 010-.727h2.179a.364.364 0 010 .727zm-4.357 0H189.3a.364.364 0 110-.727h2.178a.364.364 0 110 .727zm-4.357 0h-2.178a.364.364 0 110-.727h2.178a.364.364 0 110 .727zm-4.357 0h-2.177a.364.364 0 010-.727h2.178a.364.364 0 110 .727zm-4.356 0h-2.179a.364.364 0 010-.727h2.179a.364.364 0 010 .727zm-4.357 0h-2.178a.364.364 0 110-.727h2.178a.364.364 0 110 .727zm-4.357 0h-2.178a.364.364 0 110-.727h2.178a.364.364 0 110 .727zm-4.357 0h-1.739a4.117 4.117 0 01-.481-.028.364.364 0 11.085-.722 3.452 3.452 0 00.4.023h1.739a.364.364 0 110 .727zm67.418-.628a.364.364 0 01-.2-.666 3.345 3.345 0 001.229-1.5.364.364 0 11.672.279 4.075 4.075 0 01-1.495 1.822.364.364 0 01-.203.065zm-71.562-.257a.363.363 0 01-.236-.087 4.064 4.064 0 01-1.277-1.981.364.364 0 11.7-.2 3.337 3.337 0 001.05 1.627.364.364 0 01-.236.64zm73.206-3.545a.364.364 0 01-.364-.363V288.5a.364.364 0 01.728 0v2.179a.363.363 0 01-.361.363zm-74.512-.424a.364.364 0 01-.364-.364v-2.178a.364.364 0 01.728 0v2.178a.364.364 0 01-.364.364zm74.512-3.932a.364.364 0 01-.364-.364v-2.179a.364.364 0 01.728 0v2.179a.364.364 0 01-.361.364zm-74.512-.425a.364.364 0 01-.364-.364v-2.178a.364.364 0 01.728 0v2.178a.364.364 0 01-.364.364zm74.512-3.932a.364.364 0 01-.364-.364v-2.178a.364.364 0 01.728 0v2.178a.364.364 0 01-.361.364zm-74.512-.425a.364.364 0 01-.364-.364v-2.178a.364.364 0 01.728 0v2.178a.364.364 0 01-.364.365zm74.512-3.932a.364.364 0 01-.364-.364v-2.178a.364.364 0 01.728 0v2.178a.364.364 0 01-.361.365zm-74.512-.424a.364.364 0 01-.364-.364v-2.179a.364.364 0 01.728 0v2.179a.364.364 0 01-.364.364zm74.512-3.932a.364.364 0 01-.364-.364v-2.178a.364.364 0 01.728 0v2.178a.364.364 0 01-.361.364zm-74.512-.424a.364.364 0 01-.364-.364v-2.178a.364.364 0 01.728 0v2.178a.364.364 0 01-.364.363zm74.512-3.932a.364.364 0 01-.364-.364v-2.178a.364.364 0 01.728 0v2.178a.364.364 0 01-.361.36zm-74.512-.424a.364.364 0 01-.364-.364v-2.178a.364.364 0 01.728 0v2.178a.364.364 0 01-.364.363zm74.512-3.932a.364.364 0 01-.364-.363v-2.185a.364.364 0 01.728 0v2.179a.364.364 0 01-.361.367zm-74.512-.424a.364.364 0 01-.364-.364v-2.178a.364.364 0 01.728 0v2.178a.364.364 0 01-.364.362zm74.512-3.932a.364.364 0 01-.364-.364v-2.179a.364.364 0 01.728 0v2.179a.364.364 0 01-.361.362zm-74.512-.424a.364.364 0 01-.364-.364v-2.179a.364.364 0 01.728 0v2.175a.364.364 0 01-.364.365zm74.512-3.932a.364.364 0 01-.364-.364v-2.178a.364.364 0 01.728 0v2.178a.364.364 0 01-.361.361zm-74.512-.424a.364.364 0 01-.364-.364v-2.178a.364.364 0 01.728 0v2.178a.364.364 0 01-.364.361zm74.512-3.932a.364.364 0 01-.364-.364v-2.178a.364.364 0 01.728 0v2.178a.364.364 0 01-.361.361zm-74.512-.424a.364.364 0 01-.364-.364v-2.178a.364.364 0 01.728 0v2.178a.364.364 0 01-.364.36zm74.512-3.932a.364.364 0 01-.364-.364v-2.179a.364.364 0 01.728 0v2.179a.364.364 0 01-.361.36zm-74.512-.424a.364.364 0 01-.364-.364v-2.179a.364.364 0 01.728 0v2.179a.364.364 0 01-.364.364zm74.367-3.918a.365.365 0 01-.349-.263 3.34 3.34 0 00-1.053-1.625.364.364 0 11.471-.555 4.059 4.059 0 011.281 1.978.364.364 0 01-.35.465zm-74.082-.4a.357.357 0 01-.14-.028.363.363 0 01-.2-.476 4.066 4.066 0 011.5-1.819.364.364 0 11.4.6 3.347 3.347 0 00-1.232 1.495.364.364 0 01-.325.223zm70.946-2.257h-.042a3.422 3.422 0 00-.389-.022h-1.746a.364.364 0 110-.727h1.746a4.253 4.253 0 01.472.027.364.364 0 01-.041.725zm-4.356-.025h-2.175a.364.364 0 010-.727h2.178a.364.364 0 110 .727zm-4.356 0h-2.179a.364.364 0 010-.727h2.179a.364.364 0 010 .727zm-4.357 0h-2.178a.364.364 0 110-.727h2.178a.364.364 0 110 .727zm-4.357 0h-2.178a.364.364 0 110-.727h2.178a.364.364 0 110 .727zm-4.357 0h-2.178a.364.364 0 110-.727h2.178a.364.364 0 110 .727zm-4.357 0H202.8a.364.364 0 110-.727h2.178a.364.364 0 110 .727zm-4.357 0h-2.178a.364.364 0 010-.727h2.178a.364.364 0 110 .727zm-4.357 0h-2.177a.364.364 0 110-.727h2.179a.364.364 0 110 .727zm-4.357 0h-2.178a.364.364 0 110-.727h2.178a.364.364 0 110 .727zm-4.357 0h-2.178a.364.364 0 110-.727h2.178a.364.364 0 110 .727zm-4.356 0h-2.178a.364.364 0 110-.727h2.178a.364.364 0 110 .727zm-4.357 0h-2.178a.364.364 0 110-.727h2.178a.364.364 0 110 .727zm-4.357 0h-2.179a.364.364 0 110-.727h2.179a.364.364 0 110 .727zm-4.357 0h-2.178a.364.364 0 110-.727h2.178a.364.364 0 110 .727zm-4.357 0h-2.17a.367.367 0 01-.368-.364.361.361 0 01.36-.364h2.178a.364.364 0 110 .727z" fill="#001741"></path></g><g data-name="Group 8650" transform="translate(160.396 173.683)"><rect data-name="Rectangle 7529" width="94.923" height="55.021" rx="9.573" fill="#e9e9e9"></rect><path data-name="Path 6431" d="M36.75 16.597v21.827a1.715 1.715 0 002.658 1.433l16.588-10.914a1.715 1.715 0 000-2.865L39.408 15.164a1.715 1.715 0 00-2.658 1.433z" fill="#f2b138"></path><g data-name="Group 8649" fill="#f2b138"><path data-name="Path 6432" d="M4.934 50.058a1.7 1.7 0 111.7 1.7 1.7 1.7 0 01-1.7-1.7z"></path><path data-name="Path 6433" d="M84.148 50.516H7.096a.458.458 0 01-.458-.458.459.459 0 01.458-.459h77.052a.459.459 0 01.459.459.458.458 0 01-.459.458z"></path></g></g><path data-name="Rectangle 7530" fill="#e9e9e9" d="M249.167 240.088h49.108v73.308h-49.108z"></path><g data-name="Group 8656"><g data-name="Group 8652"><g data-name="Group 8651"><path data-name="Path 6434" d="M278.435 263.64h-.672v-3.016a1.967 1.967 0 011.964-1.965h8.309a1.3 1.3 0 001.251-.965l1.314-5a1.293 1.293 0 00-1.25-1.622H278.51v-.672h10.841a1.965 1.965 0 011.9 2.465l-1.314 5a1.967 1.967 0 01-1.9 1.465h-8.309a1.294 1.294 0 00-1.293 1.293z" fill="#384152"></path></g><path data-name="Rectangle 7531" d="M272.62 247.903h12.973a2.834 2.834 0 012.834 2.834 2.834 2.834 0 01-2.834 2.834H272.62a2.834 2.834 0 01-2.834-2.834 2.834 2.834 0 012.834-2.834z" fill="#083a94"></path><path data-name="Path 6435" d="M278.099 276.18a1.847 1.847 0 01-1.847-1.847v-11.2a1.847 1.847 0 011.847-1.848 1.848 1.848 0 011.847 1.848v11.2a1.847 1.847 0 01-1.847 1.847z" fill="#384152"></path></g><g data-name="Group 8653"><path data-name="Path 6436" d="M348.795 300.458s1.271 3.914 1.162 4.809a17.418 17.418 0 01-1.477 4.737c-.57.783-.851-3.189-1.3-3.786s-.093 1.5-.411 1.689-.981-1.54-1.266-2.151.7-2.867.7-4.438 2.592-.86 2.592-.86z" fill="#ee805f"></path><path data-name="Path 6437" d="M318.904 269.365a5.557 5.557 0 018.373-5.231c.079.048.157.1.235.147 5.764 3.71 18.2 21.021 19.056 22.755s3.382 15.53 3.382 15.53-3.122 1.142-4.582-.043c0 0-5.063-13.084-5.812-13.738s-20.251-11.6-20.417-15.7a102.11 102.11 0 00-.235-3.72z" fill="#f9aa15"></path></g><g data-name="Group 8654"><path data-name="Path 6438" d="M353.705 370.692s2.324 2.12 1.87 3.628-2.551 2.511-2.834 4.353-1.417 2.846-2.437 2.846h-4.864s-.751-1.3 1.063-1.686 2.5-2.555 2.384-4.565a35.458 35.458 0 01.17-4.688l3.854-.893z" fill="#042154"></path><path data-name="Path 6439" d="M325.195 376.174s.417 4.827-.6 5.329l-13.057-.026s0-1.507 2.1-1.842 5.781-1.563 6.405-4.3 5.152.839 5.152.839z" fill="#042154"></path><path data-name="Path 6440" d="M314.171 307.996s.689 8.46 1.5 18.63c1.1 13.814 2.423 30.783 2.554 34 .226 5.582 1.134 14.511 1.134 14.511s2.153 2.121 6.461 1.227a144.072 144.072 0 004.937-26.233l.051-.666c1.02-13.729 2.606-42.64 2.606-42.64z" fill="#000713"></path><path data-name="Path 6441" d="M314.171 307.996s.689 8.46 1.5 18.63l15.086 23.5.051-.666c1.02-13.729 2.606-42.64 2.606-42.64z" fill="#000b1e"></path><path data-name="Path 6442" d="M317.316 309.001s12.413 30.64 20.575 45.039 10.713 18.417 10.713 18.417 4.676-1.842 5.1-3.1c0 0-3.121-27.8-8.587-34.574-3.089-3.829-6.717-15.32-6.887-19.338s-1.105-11.971-1.105-11.971z" fill="#000713"></path></g><path data-name="Path 6443" d="M328.02 263.04s-8.317 4.218-13.187 2.811a11.429 11.429 0 013.225-2.687 39.016 39.016 0 01-.422-2.523 23.372 23.372 0 01-.256-2.581l3.189-2.612 3.024-2.5a12.383 12.383 0 004.427 10.092z" fill="#ee805f"></path><path data-name="Path 6444" d="M336.281 305.9a34.263 34.263 0 01-10.257 4.419c-4.388 1.041-9.781.734-11.586 1.008a.747.747 0 01-.526-.133c-.142-.073-.937-5.425-1.735-12.181-.035-.272-.072-.547-.087-.822l-.012-.091c-.31-2.641-.582-5.415-.818-8.2-.192-2.164-.351-4.3-.46-6.314-.138-2.515-.2-4.825-.138-6.725a28.05 28.05 0 01.153-2.327 16.554 16.554 0 014.13-8.866l1.471-1.673a8.061 8.061 0 005.088-1.3c1.8-1.182 3.734-2.454 4.1-2.241 2.752 1.506 4.993 5.408 6.594 10.562a58.844 58.844 0 012.073 9.9 72.08 72.08 0 01.362 3.371c.019.209.034.418.051.624.216 3.09.569 5.985.96 8.57.526 3.487 1.125 6.408 1.548 8.466.212 1.047.375 1.857.47 2.437.084.509-.929 1.235-1.381 1.516z" fill="#f2b138"></path><path data-name="Path 6445" d="M323.701 255.57a11.132 11.132 0 01-6.065 5.072 23.375 23.375 0 01-.256-2.581l3.189-2.612z" fill="#de6b4d"></path><path data-name="Path 6446" d="M315.9 257.979s8.036 1.151 8.69-3.788 2.132-8.118-2.971-9.062-6.352.813-6.977 2.41-.816 10.013 1.258 10.44z" fill="#ee805f"></path><path data-name="Path 6447" d="M327.309 244.426c.071-.085.238-.155.611-.183a1.518 1.518 0 00-.7-.182 1.878 1.878 0 00-1.28-1.636 1.12 1.12 0 01.559.8c-1.056-1.042-3.288-1.771-9.417-1.165-8.078.8-5.309 5.927-4.249 6.523s3.663-1.148 5.617-1.032 2.382 2.929 3.051 3.3.4-.305 1.284-.728 1 1.06.762 2.03 1.017 2.219 1.017 2.219l1.217-1.364c1.218-1.364 2.277-7.061 1.688-8.259z" fill="#151f2c"></path><path data-name="Path 6448" d="M324.757 277.305s-6.776 5.156-13.958 6.286c-.138-2.515-.2-4.825-.138-6.725z" fill="#f9aa15"></path><g data-name="Group 8655"><path data-name="Path 6449" d="M283.145 270.654c-.107-.115-1.488-4.734-3.877-4.4-1.559.22-4.107 1.122-3.431 3.176.266.808 5.016 3.589 5.016 3.589z" fill="#ee805f"></path><path data-name="Path 6450" d="M325.595 267.343a5.558 5.558 0 01-.582 9.856c-.085.037-.17.072-.256.106-6.362 2.552-27.677 2.671-29.586 2.364s-14.621-6.233-14.621-6.233.876-3.207 2.687-3.711c0 0 13.6 3.446 14.566 3.214s21.179-9.8 24.62-7.559c.912.594 2.026 1.278 3.172 1.963z" fill="#f2b138"></path></g></g><g data-name="Group 8657" fill="#fff"><path data-name="Path 6451" d="M468.985 115.701h-16.968a1.3 1.3 0 01-1.3-1.3 1.3 1.3 0 011.3-1.3h16.968a1.3 1.3 0 011.3 1.3 1.3 1.3 0 01-1.3 1.3z"></path><path data-name="Path 6452" d="M468.985 120.767h-16.968a1.3 1.3 0 01-1.3-1.3 1.3 1.3 0 011.3-1.3h16.968a1.3 1.3 0 011.3 1.3 1.3 1.3 0 01-1.3 1.3z"></path><path data-name="Path 6453" d="M468.985 125.968h-16.968a1.3 1.3 0 01-1.3-1.3 1.3 1.3 0 011.3-1.3h16.968a1.3 1.3 0 011.3 1.3 1.3 1.3 0 01-1.3 1.3z"></path></g><path data-name="Path 6454" d="M402.542 248.302h-40.393a1.725 1.725 0 01-1.72-1.719 1.725 1.725 0 011.72-1.72h40.393a1.724 1.724 0 011.719 1.72 1.724 1.724 0 01-1.719 1.719z" fill="#fff"></path><path data-name="Path 6455" d="M205.091 130.287h-40.393a1.724 1.724 0 01-1.719-1.719 1.724 1.724 0 011.719-1.72h40.393a1.724 1.724 0 011.72 1.72 1.724 1.724 0 01-1.72 1.719z" fill="#fff"></path><path data-name="Path 6456" d="M402.542 265.36h-40.393a1.724 1.724 0 01-1.72-1.719 1.725 1.725 0 011.72-1.72h40.393a1.724 1.724 0 011.719 1.72 1.724 1.724 0 01-1.719 1.719z" fill="#fff"></path><path data-name="Path 6457" d="M402.541 256.831H354.23a1.724 1.724 0 01-1.719-1.72 1.724 1.724 0 011.719-1.719h48.311a1.724 1.724 0 011.719 1.719 1.724 1.724 0 01-1.719 1.72z" fill="#fff"></path><g data-name="Group 8658" transform="translate(161.452 137.66)" fill="#fff"><rect data-name="Rectangle 7532" width="25.41" height="3.439" rx="1.719" transform="translate(7.548)"></rect><path data-name="Path 6458" d="M.002 1.719a1.719 1.719 0 111.719 1.72 1.719 1.719 0 01-1.719-1.72z"></path></g><g data-name="Group 8659" transform="translate(161.452 144.503)" fill="#fff"><rect data-name="Rectangle 7533" width="29.846" height="3.439" rx="1.719" transform="translate(7.548)"></rect><path data-name="Path 6459" d="M.002 1.719a1.719 1.719 0 111.719 1.72 1.719 1.719 0 01-1.719-1.72z"></path></g><g data-name="Group 8660" transform="translate(161.452 151.93)" fill="#fff"><rect data-name="Rectangle 7534" width="25.41" height="3.439" rx="1.719" transform="translate(7.548)"></rect><path data-name="Path 6460" d="M.002 1.72a1.719 1.719 0 111.719 1.719A1.72 1.72 0 01.002 1.72z"></path></g><g data-name="Group 8662"><g data-name="Group 8661"><path data-name="Path 6461" d="M234.562 144.95a6.147 6.147 0 01-.909.057 6.066 6.066 0 01-4.169-10.4 6.066 6.066 0 115.078 10.348zm-4.38-9.633a5.067 5.067 0 107.166.083 5.073 5.073 0 00-7.166-.083z" fill="#151f2c"></path></g><path data-name="Rectangle 7535" fill="#151f2c" d="M229.392 142.473l.698.715-5.92 5.785-.699-.715z"></path><path data-name="Path 6462" d="M221.762 150.627a.892.892 0 01.015-1.261l3.487-3.407a.892.892 0 011.262.015.891.891 0 01-.015 1.261l-3.487 3.408a.892.892 0 01-1.262-.016z" fill="#151f2c"></path></g><g data-name="Group 8663" fill="#151f2c"><path data-name="Path 6463" d="M517.364 381.63a1.992 1.992 0 01-1.813-1.249L468.943 238.47a.935.935 0 01.988-1.266 1.992 1.992 0 011.813 1.249l46.608 141.911a.935.935 0 01-.988 1.266z"></path><path data-name="Path 6464" d="M554.928 381.412a1.992 1.992 0 01-1.814-1.249l-46.608-141.911a.935.935 0 01.988-1.266 1.993 1.993 0 011.814 1.249l46.608 141.911a.935.935 0 01-.988 1.266z"></path><path data-name="Path 6465" d="M514.482 258.026l-37.72.218a1.887 1.887 0 01-1.712-1.179.884.884 0 01.932-1.195l37.72-.219a1.887 1.887 0 011.712 1.179.884.884 0 01-.932 1.196z"></path><path data-name="Path 6466" d="M522.62 282.804l-37.72.218a1.887 1.887 0 01-1.712-1.179.884.884 0 01.932-1.2l37.72-.218a1.887 1.887 0 011.712 1.179.884.884 0 01-.932 1.2z"></path><path data-name="Path 6467" d="M530.46 306.667l-37.72.219a1.887 1.887 0 01-1.712-1.18.884.884 0 01.932-1.194l37.72-.218a1.886 1.886 0 011.712 1.179.884.884 0 01-.932 1.194z"></path><path data-name="Path 6468" d="M539.281 333.532l-37.72.219a1.887 1.887 0 01-1.712-1.18.884.884 0 01.932-1.195l37.72-.218a1.886 1.886 0 011.712 1.179.884.884 0 01-.932 1.195z"></path><path data-name="Path 6469" d="M548.516 361.646l-37.72.219a1.887 1.887 0 01-1.712-1.179.884.884 0 01.933-1.195l37.72-.218a1.887 1.887 0 011.712 1.179.884.884 0 01-.933 1.194z"></path></g><g data-name="Group 8664"><path data-name="Path 6470" d="M467.317 173.473a.55.55 0 01-.642-.434l-.6-3.118a.549.549 0 01.433-.641.549.549 0 01.642.433l.6 3.118a.549.549 0 01-.433.642z" fill="#151f2c"></path><path data-name="Rectangle 7536" fill="#151f2c" d="M465.302 164.057l.37-.071.871 4.506-.369.071z"></path><path data-name="Path 6471" d="M465.672 138.619a14.487 14.487 0 00-1.109-4.291c-.752-1.187-3.6-1.949-3.775-1.775-.557.54 1.645 2.446 1.73 3.149s-1.117.217-.539 1.587a10.7 10.7 0 002.1 2.657z" fill="#ee805f"></path><path data-name="Path 6472" d="M464.302 138.272c1.037-.814 1.257-.8 1.257-.8s9.592 8.31 10.526 9.049 15.339 4.917 15.339 4.917l2.289 11.71s-19.492-9.415-21.822-11.336c-3.849-3.175-8.705-12.06-8.705-12.06a3.676 3.676 0 011.116-1.48z" fill="#083a94"></path><path data-name="Path 6473" d="M491.733 250.819s-.165 4-.933 4.975l-10.692.062a1.672 1.672 0 011.6-1.625 7.173 7.173 0 005.193-4.1c1.189-2.595 4.832.688 4.832.688z" fill="#151f2c"></path><path data-name="Path 6474" d="M512.714 250.241s.745 5.317-.267 5.41c-.134.013-4.308.08-6.115.11-2.126.036-5.618-.039-5.618-.039a.556.556 0 01-.5-.836 2.241 2.241 0 011.606-1.03c1.862-.359 4.965-1.726 6.053-4.214 1.14-2.618 4.841.599 4.841.599z" fill="#151f2c"></path><path data-name="Path 6475" d="M486.174 195.754s2.973 10.4 11.493 28.467 8.889 26.77 8.889 26.77a7.486 7.486 0 003 .274 8.068 8.068 0 003.158-1.024s-.552-21.5-4.577-30.618-4.844-34.062-4.844-34.062z" fill="#005cff"></path><path data-name="Path 6476" d="M481.4 186.804a259.43 259.43 0 002.55 35.886c2.788 19.778 1.484 28.975 1.484 28.975a5.558 5.558 0 003.011.529 6.752 6.752 0 004.022-1.109s3.989-19.785 2.845-29.684 5.462-33.968 5.462-33.968z" fill="#005cff"></path><path data-name="Path 6477" d="M494.572 149.109l-3.148 2.332-4.55-.958c.063-.415.363-2.134.636-3.692l.049-.273.437-2.464 4.249-2.118 1.585-.79c0 .028-.123 1.471-.14 1.682a13.608 13.608 0 00.882 6.281z" fill="#ee805f"></path><path data-name="Path 6478" d="M503.589 188.795c-1.029 4.708-23.061 2.641-22.773-.233.011-.1.069-1.426.148-3.219.167-3.878.421-9.939.454-10.412v-.025c.4-4 .777-7.916.8-10.473a36.345 36.345 0 01.733-6.541 55.21 55.21 0 011.234-4.968 5.492 5.492 0 013.219-3.528 4.788 4.788 0 01.533-.186c2.592-.753 6.181-1.683 7.152-1.4 2.633.774 4.59 5.411 5.975 11.321 2.602 11.064 3.202 26.594 2.525 29.664z" fill="#083a94"></path><path data-name="Path 6479" d="M493.371 142.894c-.934 1.786-4.411 3.33-5.861 3.9l.049-.273.437-2.464 4.249-2.118c.939-.018 1.511.22 1.126.955z" fill="#de6b4d"></path><path data-name="Path 6480" d="M485.93 143.805s7.667 2.392 9.083-2.406 3.359-7.72-1.476-9.45-6.331-.181-7.193 1.305-2.372 9.805-.414 10.551z" fill="#ee805f"></path><path data-name="Path 6481" d="M486.645 132.792s.489 5.583 1.644 5.34 2.2-.422 2.032 1.261-1.77 3.626 1.788 3.924 8.673-8.878 7.7-10.616c-2.825-5.013-17.24-6.024-13.164.091z" fill="#151f2c"></path><path data-name="Path 6482" d="M480.964 185.342c.167-3.878.422-9.939.454-10.412v-.025l13.015-7.782s.507 18.167-13.469 18.219z" fill="#0041b7"></path><path data-name="Path 6483" d="M470.618 169.057a34.423 34.423 0 00-3.147-1.945 6.6 6.6 0 00-2.223-.2c-.076.129-.3.526-.014.661s.646.087.538.181-1.189-.421-1.438.13-.468 2.441.8 3.013 4.4.055 4.626.121c1.915.562.858-1.961.858-1.961z" fill="#ee805f"></path><path data-name="Path 6484" d="M470.593 168.574s12.91 2.195 14.054 1.638c1.825-.889-.709-13.987-.709-13.987a3.767 3.767 0 013.358-3.669c3.013-.608 5.921 1.648 5.921 1.648s2.644 2.366 2.306 4.99c-.749 5.816-1.914 17.647-5.8 19.46-5.018 2.339-19.538-6.486-19.538-6.486a2.54 2.54 0 01-.415-1.692 3.947 3.947 0 01.823-1.902z" fill="#083a94"></path><path data-name="Path 6485" d="M461.92 137.133s-.827-1.642-.959-1.951.189-.242.508-.07.752 1.126 1.242 1.01c.389-.091-.791 1.011-.791 1.011z" fill="#ee805f"></path></g></g></svg>