<svg xmlns="http://www.w3.org/2000/svg" width="225.337" height="225.337" class="blue-dots z-index-1 d-lg-block d-none"><g data-name="Group 643" transform="rotate(-45 -232.406 755.614)" fill="#5693ff" stroke="#fefefe" stroke-width="3"><circle data-name="Ellipse 1" cx="4.549" cy="4.549" r="4.549" transform="translate(378.458 476.422)"></circle><circle data-name="Ellipse 2" cx="4.549" cy="4.549" r="4.549" transform="translate(391.262 476.422)"></circle><circle data-name="Ellipse 3" cx="4.549" cy="4.549" r="4.549" transform="translate(404.065 476.422)"></circle><circle data-name="Ellipse 4" cx="4.549" cy="4.549" r="4.549" transform="translate(416.869 476.422)"></circle><circle data-name="Ellipse 5" cx="4.549" cy="4.549" r="4.549" transform="translate(429.672 476.422)"></circle><circle data-name="Ellipse 6" cx="4.549" cy="4.549" r="4.549" transform="translate(442.476 476.422)"></circle><circle data-name="Ellipse 7" cx="4.549" cy="4.549" r="4.549" transform="translate(455.279 476.422)"></circle><circle data-name="Ellipse 8" cx="4.549" cy="4.549" r="4.549" transform="translate(468.083 476.422)"></circle><circle data-name="Ellipse 9" cx="4.549" cy="4.549" r="4.549" transform="translate(480.886 476.422)"></circle><circle data-name="Ellipse 10" cx="4.549" cy="4.549" r="4.549" transform="translate(493.69 476.422)"></circle><circle data-name="Ellipse 11" cx="4.549" cy="4.549" r="4.549" transform="translate(506.493 476.422)"></circle><circle data-name="Ellipse 12" cx="4.549" cy="4.549" r="4.549" transform="translate(519.297 476.422)"></circle><circle data-name="Ellipse 13" cx="4.549" cy="4.549" r="4.549" transform="translate(532.1 476.422)"></circle><circle data-name="Ellipse 14" cx="4.549" cy="4.549" r="4.549" transform="translate(544.904 476.422)"></circle><circle data-name="Ellipse 15" cx="4.549" cy="4.549" r="4.549" transform="translate(378.458 489.226)"></circle><circle data-name="Ellipse 16" cx="4.549" cy="4.549" r="4.549" transform="translate(391.262 489.226)"></circle><circle data-name="Ellipse 17" cx="4.549" cy="4.549" r="4.549" transform="translate(404.065 489.226)"></circle><circle data-name="Ellipse 18" cx="4.549" cy="4.549" r="4.549" transform="translate(416.869 489.226)"></circle><circle data-name="Ellipse 19" cx="4.549" cy="4.549" r="4.549" transform="translate(429.672 489.226)"></circle><circle data-name="Ellipse 20" cx="4.549" cy="4.549" r="4.549" transform="translate(442.476 489.226)"></circle><circle data-name="Ellipse 21" cx="4.549" cy="4.549" r="4.549" transform="translate(455.279 489.226)"></circle><circle data-name="Ellipse 22" cx="4.549" cy="4.549" r="4.549" transform="translate(468.083 489.226)"></circle><circle data-name="Ellipse 23" cx="4.549" cy="4.549" r="4.549" transform="translate(480.886 489.226)"></circle><circle data-name="Ellipse 24" cx="4.549" cy="4.549" r="4.549" transform="translate(493.69 489.226)"></circle><circle data-name="Ellipse 25" cx="4.549" cy="4.549" r="4.549" transform="translate(506.493 489.226)"></circle><circle data-name="Ellipse 26" cx="4.549" cy="4.549" r="4.549" transform="translate(519.297 489.226)"></circle><circle data-name="Ellipse 27" cx="4.549" cy="4.549" r="4.549" transform="translate(532.1 489.226)"></circle><circle data-name="Ellipse 28" cx="4.549" cy="4.549" r="4.549" transform="translate(544.904 489.226)"></circle><circle data-name="Ellipse 29" cx="4.549" cy="4.549" r="4.549" transform="translate(378.458 502.029)"></circle><circle data-name="Ellipse 30" cx="4.549" cy="4.549" r="4.549" transform="translate(391.262 502.029)"></circle><circle data-name="Ellipse 31" cx="4.549" cy="4.549" r="4.549" transform="translate(404.065 502.029)"></circle><circle data-name="Ellipse 32" cx="4.549" cy="4.549" r="4.549" transform="translate(416.869 502.029)"></circle><circle data-name="Ellipse 33" cx="4.549" cy="4.549" r="4.549" transform="translate(429.672 502.029)"></circle><circle data-name="Ellipse 34" cx="4.549" cy="4.549" r="4.549" transform="translate(442.476 502.029)"></circle><circle data-name="Ellipse 35" cx="4.549" cy="4.549" r="4.549" transform="translate(455.279 502.029)"></circle><circle data-name="Ellipse 36" cx="4.549" cy="4.549" r="4.549" transform="translate(468.083 502.029)"></circle><circle data-name="Ellipse 37" cx="4.549" cy="4.549" r="4.549" transform="translate(480.886 502.029)"></circle><circle data-name="Ellipse 38" cx="4.549" cy="4.549" r="4.549" transform="translate(493.69 502.029)"></circle><circle data-name="Ellipse 39" cx="4.549" cy="4.549" r="4.549" transform="translate(506.493 502.029)"></circle><circle data-name="Ellipse 40" cx="4.549" cy="4.549" r="4.549" transform="translate(519.297 502.029)"></circle><circle data-name="Ellipse 41" cx="4.549" cy="4.549" r="4.549" transform="translate(532.1 502.029)"></circle><circle data-name="Ellipse 42" cx="4.549" cy="4.549" r="4.549" transform="translate(544.904 502.029)"></circle><circle data-name="Ellipse 43" cx="4.549" cy="4.549" r="4.549" transform="translate(378.458 514.833)"></circle><circle data-name="Ellipse 44" cx="4.549" cy="4.549" r="4.549" transform="translate(391.262 514.833)"></circle><circle data-name="Ellipse 45" cx="4.549" cy="4.549" r="4.549" transform="translate(404.065 514.833)"></circle><circle data-name="Ellipse 46" cx="4.549" cy="4.549" r="4.549" transform="translate(416.869 514.833)"></circle><circle data-name="Ellipse 47" cx="4.549" cy="4.549" r="4.549" transform="translate(429.672 514.833)"></circle><circle data-name="Ellipse 48" cx="4.549" cy="4.549" r="4.549" transform="translate(442.476 514.833)"></circle><circle data-name="Ellipse 49" cx="4.549" cy="4.549" r="4.549" transform="translate(455.279 514.833)"></circle><circle data-name="Ellipse 50" cx="4.549" cy="4.549" r="4.549" transform="translate(468.083 514.833)"></circle><circle data-name="Ellipse 51" cx="4.549" cy="4.549" r="4.549" transform="translate(480.886 514.833)"></circle><circle data-name="Ellipse 52" cx="4.549" cy="4.549" r="4.549" transform="translate(493.69 514.833)"></circle><circle data-name="Ellipse 53" cx="4.549" cy="4.549" r="4.549" transform="translate(506.493 514.833)"></circle><circle data-name="Ellipse 54" cx="4.549" cy="4.549" r="4.549" transform="translate(519.297 514.833)"></circle><circle data-name="Ellipse 55" cx="4.549" cy="4.549" r="4.549" transform="translate(532.1 514.833)"></circle><circle data-name="Ellipse 56" cx="4.549" cy="4.549" r="4.549" transform="translate(544.904 514.833)"></circle><circle data-name="Ellipse 57" cx="4.549" cy="4.549" r="4.549" transform="translate(378.458 527.636)"></circle><circle data-name="Ellipse 58" cx="4.549" cy="4.549" r="4.549" transform="translate(391.262 527.636)"></circle><circle data-name="Ellipse 59" cx="4.549" cy="4.549" r="4.549" transform="translate(404.065 527.636)"></circle><circle data-name="Ellipse 60" cx="4.549" cy="4.549" r="4.549" transform="translate(416.869 527.636)"></circle><circle data-name="Ellipse 61" cx="4.549" cy="4.549" r="4.549" transform="translate(429.672 527.636)"></circle><circle data-name="Ellipse 62" cx="4.549" cy="4.549" r="4.549" transform="translate(442.476 527.636)"></circle><circle data-name="Ellipse 63" cx="4.549" cy="4.549" r="4.549" transform="translate(455.279 527.636)"></circle><circle data-name="Ellipse 64" cx="4.549" cy="4.549" r="4.549" transform="translate(468.083 527.636)"></circle><circle data-name="Ellipse 65" cx="4.549" cy="4.549" r="4.549" transform="translate(480.886 527.636)"></circle><circle data-name="Ellipse 66" cx="4.549" cy="4.549" r="4.549" transform="translate(493.69 527.636)"></circle><circle data-name="Ellipse 67" cx="4.549" cy="4.549" r="4.549" transform="translate(506.493 527.636)"></circle><circle data-name="Ellipse 68" cx="4.549" cy="4.549" r="4.549" transform="translate(519.297 527.636)"></circle><circle data-name="Ellipse 69" cx="4.549" cy="4.549" r="4.549" transform="translate(532.1 527.636)"></circle><circle data-name="Ellipse 70" cx="4.549" cy="4.549" r="4.549" transform="translate(544.904 527.636)"></circle><circle data-name="Ellipse 71" cx="4.549" cy="4.549" r="4.549" transform="translate(378.458 540.44)"></circle><circle data-name="Ellipse 72" cx="4.549" cy="4.549" r="4.549" transform="translate(391.262 540.44)"></circle><circle data-name="Ellipse 73" cx="4.549" cy="4.549" r="4.549" transform="translate(404.065 540.44)"></circle><circle data-name="Ellipse 74" cx="4.549" cy="4.549" r="4.549" transform="translate(416.869 540.44)"></circle><circle data-name="Ellipse 75" cx="4.549" cy="4.549" r="4.549" transform="translate(429.672 540.44)"></circle><circle data-name="Ellipse 76" cx="4.549" cy="4.549" r="4.549" transform="translate(442.476 540.44)"></circle><circle data-name="Ellipse 77" cx="4.549" cy="4.549" r="4.549" transform="translate(455.279 540.44)"></circle><circle data-name="Ellipse 78" cx="4.549" cy="4.549" r="4.549" transform="translate(468.083 540.44)"></circle><circle data-name="Ellipse 79" cx="4.549" cy="4.549" r="4.549" transform="translate(480.886 540.44)"></circle><circle data-name="Ellipse 80" cx="4.549" cy="4.549" r="4.549" transform="translate(493.69 540.44)"></circle><circle data-name="Ellipse 81" cx="4.549" cy="4.549" r="4.549" transform="translate(506.493 540.44)"></circle><circle data-name="Ellipse 82" cx="4.549" cy="4.549" r="4.549" transform="translate(519.297 540.44)"></circle><circle data-name="Ellipse 83" cx="4.549" cy="4.549" r="4.549" transform="translate(532.1 540.44)"></circle><circle data-name="Ellipse 84" cx="4.549" cy="4.549" r="4.549" transform="translate(544.904 540.44)"></circle><circle data-name="Ellipse 85" cx="4.549" cy="4.549" r="4.549" transform="translate(378.458 553.243)"></circle><circle data-name="Ellipse 86" cx="4.549" cy="4.549" r="4.549" transform="translate(391.262 553.243)"></circle><circle data-name="Ellipse 87" cx="4.549" cy="4.549" r="4.549" transform="translate(404.065 553.243)"></circle><circle data-name="Ellipse 88" cx="4.549" cy="4.549" r="4.549" transform="translate(416.869 553.243)"></circle><circle data-name="Ellipse 89" cx="4.549" cy="4.549" r="4.549" transform="translate(429.672 553.243)"></circle><circle data-name="Ellipse 90" cx="4.549" cy="4.549" r="4.549" transform="translate(442.476 553.243)"></circle><circle data-name="Ellipse 91" cx="4.549" cy="4.549" r="4.549" transform="translate(455.279 553.243)"></circle><circle data-name="Ellipse 92" cx="4.549" cy="4.549" r="4.549" transform="translate(468.083 553.243)"></circle><circle data-name="Ellipse 93" cx="4.549" cy="4.549" r="4.549" transform="translate(480.886 553.243)"></circle><circle data-name="Ellipse 94" cx="4.549" cy="4.549" r="4.549" transform="translate(493.69 553.243)"></circle><circle data-name="Ellipse 95" cx="4.549" cy="4.549" r="4.549" transform="translate(506.493 553.243)"></circle><circle data-name="Ellipse 96" cx="4.549" cy="4.549" r="4.549" transform="translate(519.297 553.243)"></circle><circle data-name="Ellipse 97" cx="4.549" cy="4.549" r="4.549" transform="translate(532.1 553.243)"></circle><circle data-name="Ellipse 98" cx="4.549" cy="4.549" r="4.549" transform="translate(544.904 553.243)"></circle><circle data-name="Ellipse 99" cx="4.549" cy="4.549" r="4.549" transform="translate(378.458 566.047)"></circle><circle data-name="Ellipse 100" cx="4.549" cy="4.549" r="4.549" transform="translate(391.262 566.047)"></circle><circle data-name="Ellipse 101" cx="4.549" cy="4.549" r="4.549" transform="translate(404.065 566.047)"></circle><circle data-name="Ellipse 102" cx="4.549" cy="4.549" r="4.549" transform="translate(416.869 566.047)"></circle><circle data-name="Ellipse 103" cx="4.549" cy="4.549" r="4.549" transform="translate(429.672 566.047)"></circle><circle data-name="Ellipse 104" cx="4.549" cy="4.549" r="4.549" transform="translate(442.476 566.047)"></circle><circle data-name="Ellipse 105" cx="4.549" cy="4.549" r="4.549" transform="translate(455.279 566.047)"></circle><circle data-name="Ellipse 106" cx="4.549" cy="4.549" r="4.549" transform="translate(468.083 566.047)"></circle><circle data-name="Ellipse 107" cx="4.549" cy="4.549" r="4.549" transform="translate(480.886 566.047)"></circle><circle data-name="Ellipse 108" cx="4.549" cy="4.549" r="4.549" transform="translate(493.69 566.047)"></circle><circle data-name="Ellipse 109" cx="4.549" cy="4.549" r="4.549" transform="translate(506.493 566.047)"></circle><circle data-name="Ellipse 110" cx="4.549" cy="4.549" r="4.549" transform="translate(519.297 566.047)"></circle><circle data-name="Ellipse 111" cx="4.549" cy="4.549" r="4.549" transform="translate(532.1 566.047)"></circle><circle data-name="Ellipse 112" cx="4.549" cy="4.549" r="4.549" transform="translate(544.904 566.047)"></circle><circle data-name="Ellipse 113" cx="4.549" cy="4.549" r="4.549" transform="translate(378.458 578.85)"></circle><circle data-name="Ellipse 114" cx="4.549" cy="4.549" r="4.549" transform="translate(391.262 578.85)"></circle><circle data-name="Ellipse 115" cx="4.549" cy="4.549" r="4.549" transform="translate(404.065 578.85)"></circle><circle data-name="Ellipse 116" cx="4.549" cy="4.549" r="4.549" transform="translate(416.869 578.85)"></circle><circle data-name="Ellipse 117" cx="4.549" cy="4.549" r="4.549" transform="translate(429.672 578.85)"></circle><circle data-name="Ellipse 118" cx="4.549" cy="4.549" r="4.549" transform="translate(442.476 578.85)"></circle><circle data-name="Ellipse 119" cx="4.549" cy="4.549" r="4.549" transform="translate(455.279 578.85)"></circle><circle data-name="Ellipse 120" cx="4.549" cy="4.549" r="4.549" transform="translate(468.083 578.85)"></circle><circle data-name="Ellipse 121" cx="4.549" cy="4.549" r="4.549" transform="translate(480.886 578.85)"></circle><circle data-name="Ellipse 122" cx="4.549" cy="4.549" r="4.549" transform="translate(493.69 578.85)"></circle><circle data-name="Ellipse 123" cx="4.549" cy="4.549" r="4.549" transform="translate(506.493 578.85)"></circle><circle data-name="Ellipse 124" cx="4.549" cy="4.549" r="4.549" transform="translate(519.297 578.85)"></circle><circle data-name="Ellipse 125" cx="4.549" cy="4.549" r="4.549" transform="translate(532.1 578.85)"></circle><circle data-name="Ellipse 126" cx="4.549" cy="4.549" r="4.549" transform="translate(544.904 578.85)"></circle><circle data-name="Ellipse 127" cx="4.549" cy="4.549" r="4.549" transform="translate(378.458 591.654)"></circle><circle data-name="Ellipse 128" cx="4.549" cy="4.549" r="4.549" transform="translate(391.262 591.654)"></circle><circle data-name="Ellipse 129" cx="4.549" cy="4.549" r="4.549" transform="translate(404.065 591.654)"></circle><circle data-name="Ellipse 130" cx="4.549" cy="4.549" r="4.549" transform="translate(416.869 591.654)"></circle><circle data-name="Ellipse 131" cx="4.549" cy="4.549" r="4.549" transform="translate(429.672 591.654)"></circle><circle data-name="Ellipse 132" cx="4.549" cy="4.549" r="4.549" transform="translate(442.476 591.654)"></circle><circle data-name="Ellipse 133" cx="4.549" cy="4.549" r="4.549" transform="translate(455.279 591.654)"></circle><circle data-name="Ellipse 134" cx="4.549" cy="4.549" r="4.549" transform="translate(468.083 591.654)"></circle><circle data-name="Ellipse 135" cx="4.549" cy="4.549" r="4.549" transform="translate(480.886 591.654)"></circle><circle data-name="Ellipse 136" cx="4.549" cy="4.549" r="4.549" transform="translate(493.69 591.654)"></circle><circle data-name="Ellipse 137" cx="4.549" cy="4.549" r="4.549" transform="translate(506.493 591.654)"></circle><circle data-name="Ellipse 138" cx="4.549" cy="4.549" r="4.549" transform="translate(519.297 591.654)"></circle><circle data-name="Ellipse 139" cx="4.549" cy="4.549" r="4.549" transform="translate(532.1 591.654)"></circle><circle data-name="Ellipse 140" cx="4.549" cy="4.549" r="4.549" transform="translate(544.904 591.654)"></circle><circle data-name="Ellipse 141" cx="4.549" cy="4.549" r="4.549" transform="translate(378.458 604.457)"></circle><circle data-name="Ellipse 142" cx="4.549" cy="4.549" r="4.549" transform="translate(391.262 604.457)"></circle><circle data-name="Ellipse 143" cx="4.549" cy="4.549" r="4.549" transform="translate(404.065 604.457)"></circle><circle data-name="Ellipse 144" cx="4.549" cy="4.549" r="4.549" transform="translate(416.869 604.457)"></circle><circle data-name="Ellipse 145" cx="4.549" cy="4.549" r="4.549" transform="translate(429.672 604.457)"></circle><circle data-name="Ellipse 146" cx="4.549" cy="4.549" r="4.549" transform="translate(442.476 604.457)"></circle><circle data-name="Ellipse 147" cx="4.549" cy="4.549" r="4.549" transform="translate(455.279 604.457)"></circle><circle data-name="Ellipse 148" cx="4.549" cy="4.549" r="4.549" transform="translate(468.083 604.457)"></circle><circle data-name="Ellipse 149" cx="4.549" cy="4.549" r="4.549" transform="translate(480.886 604.457)"></circle><circle data-name="Ellipse 150" cx="4.549" cy="4.549" r="4.549" transform="translate(493.69 604.457)"></circle><circle data-name="Ellipse 151" cx="4.549" cy="4.549" r="4.549" transform="translate(506.493 604.457)"></circle><circle data-name="Ellipse 152" cx="4.549" cy="4.549" r="4.549" transform="translate(519.297 604.457)"></circle><circle data-name="Ellipse 153" cx="4.549" cy="4.549" r="4.549" transform="translate(532.1 604.457)"></circle><circle data-name="Ellipse 154" cx="4.549" cy="4.549" r="4.549" transform="translate(544.904 604.457)"></circle></g></svg>