<svg xmlns="http://www.w3.org/2000/svg" width="67" height="129.554" viewBox="0 0 67 129.554" class="bg-bottom-vector"><g id="Group_615" data-name="Group 615" transform="translate(-52.336 -251.103)"><g id="Group_614" data-name="Group 614" transform="translate(52.336 251.103)"><g id="Group_611" data-name="Group 611"><g id="Group_608" data-name="Group 608" transform="translate(11.377)"><path id="Path_1758" data-name="Path 1758" d="M95.373,317.884a50.566,50.566,0,0,0-1.625,9.195c.083.154.066.723-.025.568-.018.505-.787.413-.787-.085.007-.325.016-.65.031-.965-1.8-2.23-4.4-3.644-6.514-5.582a12.2,12.2,0,0,1-3.57-5.681c-1.749-6.027-.109-12.415-2.213-18.426-1.814-5.184-5.066-9.69-7.819-14.387-2.9-4.967-5.048-10.186-5.263-16-.171-4.454.36-10.39,3.753-13.727,3.6-3.541,8.054-.888,10.81,2.27,7.983,9.163,11.677,20.742,13.171,32.581.823,6.553,1.678,13.145,1.481,19.76A53.253,53.253,0,0,1,95.373,317.884Z" transform="translate(-67.56 -251.103)" fill="#0efd87"></path><path id="Path_1759" data-name="Path 1759" d="M96.634,334.923a112.884,112.884,0,0,0-.219-18.564c.01-.022.03-.037.031-.067.1-5.018.5-10.016.3-15.04a89.38,89.38,0,0,0-2.21-16.132c-.014-.061-.109-.047-.1.016a105.116,105.116,0,0,1,1.746,15.776q.152,4.253-.068,8.505c-.049.921-.134,1.85-.2,2.78l0-.008A99.288,99.288,0,0,0,80.994,272.68c-.1-.163-.394.011-.291.179a103.2,103.2,0,0,1,12.152,29.293c-3.839-7.113-9.638-12.962-13.94-19.8-.023-.037-.085,0-.065.04C82.713,290,89.1,296,93.169,303.5c.706,3.055,1.284,6.139,1.714,9.243a103.464,103.464,0,0,1,.926,12.841,147.693,147.693,0,0,1-6.679-13.175c-.051-.123-.228-.039-.186.083a51.425,51.425,0,0,0,6.878,14.071c.016,3.039-.073,6.079-.253,9.116-.477,8.105-1.861,16.1-2.5,24.179a.187.187,0,0,0,.371.04A185.789,185.789,0,0,0,96.634,334.923Z" transform="translate(-70.413 -256.54)" fill="#263238"></path><path id="Path_1760" data-name="Path 1760" d="M91.1,272.345c-.025-.059-.111-.019-.09.04,1.481,4.093,2.317,8.241,3.386,12.437a.155.155,0,0,0,.306-.05A44.633,44.633,0,0,0,91.1,272.345Z" transform="translate(-73.487 -256.465)" fill="#263238"></path></g><g id="Group_609" data-name="Group 609" transform="translate(34.307 28.431)"><path id="Path_1761" data-name="Path 1761" d="M131.555,293.756a61.768,61.768,0,0,1-3.405,6.994c-2.665,4.841-5.446,9.276-5.949,14.913a34.611,34.611,0,0,1-1.072,7.47,22.389,22.389,0,0,1-2.977,5.848c-2.889,4.208-6.5,7.836-9.178,12.2a51.373,51.373,0,0,0-6.1,14.7c-.066.283-.513.207-.447-.075a.222.222,0,0,0,.017-.064.1.1,0,0,1-.026-.06c-.424-12.086.54-24.267,4.226-35.845a124.082,124.082,0,0,1,5.857-14.91,35.259,35.259,0,0,1,7.9-11.371c2.249-2.026,7.129-5.866,10.331-3.834C132.274,290.705,132.16,292.248,131.555,293.756Z" transform="translate(-99.279 -289.151)" fill="#00de76"></path><path id="Path_1762" data-name="Path 1762" d="M118.376,324.646a98.981,98.981,0,0,1-7.023,10.1c-1.17,1.528-2.357,3.043-3.525,4.572-.552.723-1.171,1.443-1.678,2.219.319-1.27.631-2.544.955-3.813a149.457,149.457,0,0,1,5.381-18.138,122.377,122.377,0,0,1,8.391-16.451c.081-.14-.144-.241-.226-.105-2.554,4.2-5.146,8.394-7.293,12.822a67.59,67.59,0,0,0-3.1,7.608,117.155,117.155,0,0,1,4.12-16.255c.016-.048-.052-.082-.072-.034a55.611,55.611,0,0,0-4.276,16.908.052.052,0,0,0,.008.027q-.785,2.355-1.455,4.752c-1.9,6.761-3.576,13.594-5.125,20.45a73.179,73.179,0,0,1,1.166-13.44c.019-.1-.134-.126-.158-.027A42.631,42.631,0,0,0,103.3,350q-.879,3.911-1.713,7.828c-1.189,5.571-2.648,11.241-3.342,16.9a.113.113,0,0,0,.223.037c.829-3.049,1.329-6.21,2.007-9.3s1.381-6.189,2.1-9.276c1.05-4.5,2.15-8.981,3.269-13.461a24.119,24.119,0,0,1,3.28-4.479c1.19-1.512,2.38-3.023,3.538-4.56a68.009,68.009,0,0,0,5.815-9C118.52,324.628,118.414,324.582,118.376,324.646Z" transform="translate(-98.248 -292.642)" fill="#263238"></path><path id="Path_1763" data-name="Path 1763" d="M123.549,325.057a63,63,0,0,0-6.873,10.921c-.024.049.052.1.083.053,2.313-3.626,4.588-7.278,6.9-10.907C123.694,325.063,123.593,325,123.549,325.057Z" transform="translate(-102.904 -298.221)" fill="#263238"></path></g><g id="Group_610" data-name="Group 610" transform="translate(0 30.903)"><path id="Path_1764" data-name="Path 1764" d="M55.838,306.051c1.566,2.7,3.354,5.937,2.682,9.176-.427,2.05-1.927,3.714-2.2,5.806-.607,4.616,3.993,7.667,7.323,9.848,8.3,5.445,19.68,10.3,21.189,21.42.057.393.738.3.688-.09a.221.221,0,0,0-.016-.074c.016-.025.041-.033.041-.065a42.6,42.6,0,0,0-.155-16.983A54.06,54.06,0,0,0,78.7,319.171c-4.994-8.52-10.283-17.245-17.836-23.772-2.091-1.8-6.371-5.051-8.036-.976C51.214,298.384,53.919,302.763,55.838,306.051Z" transform="translate(-52.336 -292.459)" fill="#00de76"></path><path id="Path_1765" data-name="Path 1765" d="M67.151,330.83c5.5,5.957,14.249,9.3,18.986,15.968a66.8,66.8,0,0,0-14.592-27.409.215.215,0,0,1,.3-.3,54.04,54.04,0,0,1,11.924,17.27,77.113,77.113,0,0,0-5.134-13.131.141.141,0,0,1,.244-.143,50.064,50.064,0,0,1,5.534,14.761c6.241,15.108,6.819,32.827,5.511,48.751-.018.227-.365.234-.358,0,.358-12.549.155-25.317-2.852-37.573-.063-.256-.133-.508-.2-.763-5.153-7.182-13.863-10.511-19.463-17.332C67,330.859,67.091,330.765,67.151,330.83Z" transform="translate(-56.052 -299.173)" fill="#263238"></path><path id="Path_1766" data-name="Path 1766" d="M65.412,327.966c2.889,2.65,5.732,5.36,8.625,8.008.029.027-.009.078-.043.055a42.216,42.216,0,0,1-8.755-7.892A.122.122,0,0,1,65.412,327.966Z" transform="translate(-55.589 -301.425)" fill="#263238"></path><path id="Path_1767" data-name="Path 1767" d="M64.815,312.6a90.734,90.734,0,0,0,8.641,11.887c.043.049-.024.119-.072.072a41.865,41.865,0,0,1-8.725-11.869A.09.09,0,0,1,64.815,312.6Z" transform="translate(-55.448 -297.539)" fill="#263238"></path></g></g><g id="Group_613" data-name="Group 613" transform="translate(22.371 91.743)"><g id="Group_612" data-name="Group 612" transform="translate(0 3.771)"><path id="Path_1768" data-name="Path 1768" d="M82.274,412.965h25.3l-3.409-34.039H86.171Z" transform="translate(-82.274 -378.925)" fill="#042154"></path><path id="Path_1769" data-name="Path 1769" d="M86.639,384.458h19.186l-.555-5.533h-18Z" transform="translate(-83.377 -378.925)" fill="#002e7e"></path></g><path id="Path_1770" data-name="Path 1770" d="M0,0H23.716V5.435H0Z" transform="translate(24.508 5.435) rotate(180)" fill="#042154"></path></g></g></g></svg>