<svg xmlns="http://www.w3.org/2000/svg" width="268.701" height="113.095" class="curvy"><g data-name="Group 2824"><g data-name="Group 49"><g data-name="Group 39"><g data-name="Group 36"><path data-name="Path 69" d="M148.105 54.669a1.126 1.126 0 00-.767.385.7.7 0 00-.115.178 1.088 1.088 0 00-.097.196 1.072 1.072 0 00-.04.213.658.658 0 00-.008.211 1.206 1.206 0 00.107.424 1.128 1.128 0 00.262.336 1.147 1.147 0 001.56-.109.96.96 0 00.222-.37 1.2 1.2 0 00.059-.438 1.078 1.078 0 00-.385-.75 1.078 1.078 0 00-.798-.276z" fill="#00c9fd"></path></g><g data-name="Group 37"><path data-name="Path 70" d="M148.97 60.204a1.11 1.11 0 00-.656 1.422 1.115 1.115 0 001.424.656 1.105 1.105 0 00.652-1.42 1.108 1.108 0 00-1.116-.725.978.978 0 00-.303.067zm36.864-1.812a1.111 1.111 0 00.847 1.318 1.1 1.1 0 001.319-.836v-.011a1.1 1.1 0 00-.842-1.319 1.542 1.542 0 00-.323-.022 1.125 1.125 0 00-1.006.87zm-34.461 6.863a1.1 1.1 0 00-.226 1.549 1.1 1.1 0 001.549.224 1.108 1.108 0 00.224-1.547 1.092 1.092 0 00-.963-.444 1.048 1.048 0 00-.59.219zm32.602-1.93a1.1 1.1 0 00.439 1.503 1.107 1.107 0 001.502-.436 1.112 1.112 0 00-.439-1.513 1.062 1.062 0 00-.61-.135 1.137 1.137 0 00-.892.58zm-28.895 6.108a1.115 1.115 0 00.22 1.55 1.109 1.109 0 001.561-.22 1.107 1.107 0 00-.23-1.55 1.12 1.12 0 00-.737-.215 1.1 1.1 0 00-.814.43zm25.725-1.9a1.115 1.115 0 00-.002 1.567 1.107 1.107 0 001.566.002 1.1 1.1 0 000-1.566 1.064 1.064 0 00-.855-.318 1.143 1.143 0 00-.71.311zm-20.974 4.862a1.082 1.082 0 00.643 1.42 1.1 1.1 0 001.42-.643 1.114 1.114 0 00-.644-1.432 1.163 1.163 0 00-.47-.067 1.082 1.082 0 00-.95.722zm16.762-1.717a1.1 1.1 0 00-.451 1.497 1.107 1.107 0 001.509.45 1.11 1.11 0 00.438-1.507 1.12 1.12 0 00-1.05-.571 1.075 1.075 0 00-.446.131zm-11.383 3.217a1.1 1.1 0 001.027 1.183 1.109 1.109 0 001.184-1.027 1.109 1.109 0 00-1.027-1.183c-.055.004-.11-.003-.155 0a1.109 1.109 0 00-1.029 1.027zm6.444-1.395a1.114 1.114 0 00-.85 1.327 1.1 1.1 0 001.314.84 1.112 1.112 0 00.851-1.314 1.116 1.116 0 00-1.163-.874c-.053.003-.107.018-.152.021z" fill="#00c9fd"></path></g><g data-name="Group 38"><path data-name="Path 71" d="M187.243 51.932a1.117 1.117 0 00-1.028 1.18 1.145 1.145 0 00.376.763 1.16 1.16 0 001.569-.11 1.093 1.093 0 00.265-.807 1.067 1.067 0 00-.374-.75 1.1 1.1 0 00-.808-.276z" fill="#00c9fd"></path></g></g><g data-name="Group 48"><g data-name="Group 35"><g data-name="Group 32"><path data-name="Path 66" d="M134.521 55.616a1.379 1.379 0 00-.218.038 1.555 1.555 0 00-.206.08 1.019 1.019 0 00-.18.113 1.04 1.04 0 00-.157.156 1.071 1.071 0 00-.267.795 1.08 1.08 0 00.376.763.652.652 0 00.175.12 1 1 0 00.196.098 1.492 1.492 0 00.214.04 1.1 1.1 0 00.977-.369 2.136 2.136 0 00.129-.174 1.638 1.638 0 00.086-.194c.028-.08.034-.148.052-.216a1.519 1.519 0 00.006-.223 1.078 1.078 0 00-.385-.75 1.078 1.078 0 00-.798-.277z" fill="#00c9fd"></path></g><g data-name="Group 33"><path data-name="Path 67" d="M135.225 61.375a1.116 1.116 0 00-.808 1.346 1.114 1.114 0 001.344.808 1.1 1.1 0 00.809-1.344 1.1 1.1 0 00-1.147-.831 1.208 1.208 0 00-.198.021zm64.482-3.553a1.113 1.113 0 00.988 1.219 1.122 1.122 0 001.22-.988l-.001-.01a1.1 1.1 0 00-.987-1.21 1.357 1.357 0 00-.19-.009 1.106 1.106 0 00-1.03.998zm-62.783 9.101a1.109 1.109 0 00-.553 1.46 1.111 1.111 0 001.462.565 1.118 1.118 0 00.562-1.473 1.11 1.11 0 00-1.089-.646 1.2 1.2 0 00-.383.092zm61.711-3.613a1.112 1.112 0 00.75 1.376 1.116 1.116 0 001.38-.763 1.105 1.105 0 00-.762-1.368 1.139 1.139 0 00-.38-.04 1.112 1.112 0 00-.989.79zm-59.062 8.772a1.1 1.1 0 00-.303 1.532 1.119 1.119 0 001.542.303 1.107 1.107 0 00.294-1.542 1.1 1.1 0 00-.989-.486.994.994 0 00-.545.19zm57.04-3.548l.01-.001a1.091 1.091 0 00.505 1.475 1.093 1.093 0 001.475-.504h.01a1.119 1.119 0 00-.516-1.486 1.123 1.123 0 00-.562-.105 1.125 1.125 0 00-.922.62zm-53.542 8.164a1.1 1.1 0 00-.036 1.558 1.108 1.108 0 001.569.034 1.108 1.108 0 00.034-1.568h-.01a1.076 1.076 0 00-.867-.34 1.068 1.068 0 00-.69.316zm50.655-3.375a1.109 1.109 0 00.241 1.548 1.109 1.109 0 001.55-.243 1.119 1.119 0 00-.241-1.549 1.118 1.118 0 00-.738-.214 1.112 1.112 0 00-.812.458zm-46.414 7.321a1.092 1.092 0 00.241 1.538 1.1 1.1 0 001.55-.24 1.12 1.12 0 00-.245-1.55 1.168 1.168 0 00-.737-.203 1.092 1.092 0 00-.809.455zm42.733-3.1a1.109 1.109 0 00-.034 1.57 1.108 1.108 0 001.563.024 1.108 1.108 0 00.035-1.568 1.123 1.123 0 00-.879-.328 1.075 1.075 0 00-.685.303zm-37.87 6.248a1.108 1.108 0 00.505 1.487 1.12 1.12 0 001.486-.516 1.1 1.1 0 00-.515-1.474 1 1 0 00-.563-.117 1.1 1.1 0 00-.913.62zm33.52-2.721a1.106 1.106 0 00-.304 1.532 1.111 1.111 0 001.543.303 1.116 1.116 0 00.293-1.542 1.094 1.094 0 00-.988-.487 1.132 1.132 0 00-.544.194zm-28.186 4.978a1.1 1.1 0 00.75 1.369l.002.014a1.118 1.118 0 001.38-.763 1.106 1.106 0 00-.763-1.37.909.909 0 00-.38-.039 1.111 1.111 0 00-.99.791zm23.288-2.272a1.106 1.106 0 00-.565 1.461 1.107 1.107 0 001.462.564 1.106 1.106 0 00.565-1.46 1.107 1.107 0 00-1.093-.657 1.111 1.111 0 00-.37.094zm-17.644 3.574a1.1 1.1 0 00.987 1.209 1.093 1.093 0 001.218-.988 1.112 1.112 0 00-.988-1.219 1.143 1.143 0 00-.188.002 1.114 1.114 0 00-1.03.996zm12.35-1.766a1.093 1.093 0 00-.808 1.344 1.1 1.1 0 001.333.81 1.093 1.093 0 00.808-1.346 1.094 1.094 0 00-1.145-.83 1.073 1.073 0 00-.188.03zm-6.565 2.048a1.11 1.11 0 001.183 1.035 1.1 1.1 0 001.028-1.182 1.1 1.1 0 00-1.183-1.028 1.11 1.11 0 00-1.028 1.183z" fill="#00c9fd"></path></g><g data-name="Group 34"><path data-name="Path 68" d="M200.827 50.982a1.083 1.083 0 00-.751.385 1.086 1.086 0 00-.277.797 1.223 1.223 0 00.119.424.972.972 0 00.267.336 1.147 1.147 0 001.559-.109 1.148 1.148 0 00.219-.37 1.183 1.183 0 00.046-.437 1.067 1.067 0 00-.374-.75 1.085 1.085 0 00-.808-.276z" fill="#00c9fd"></path></g></g><g data-name="Group 43"><g data-name="Group 40"><path data-name="Path 72" d="M267.442 40.77a1.106 1.106 0 00-.761.386 1.119 1.119 0 00-.267.797 1.125 1.125 0 00.376.76 1.16 1.16 0 001.569-.11 1.144 1.144 0 00.265-.806 1.115 1.115 0 00-1.182-1.027z" fill="#00c9fd"></path></g><g data-name="Group 41"><path data-name="Path 73" d="M230.806 10.988a1.111 1.111 0 001.182 1.027 1.121 1.121 0 001.04-1.182 1.114 1.114 0 00-1.194-1.027 1.1 1.1 0 00-1.028 1.182zm-4.904-.258l.01-.001a1.1 1.1 0 00-.817 1.334 1.1 1.1 0 001.345.817 1.1 1.1 0 00.808-1.344 1.115 1.115 0 00-1.147-.842 1.225 1.225 0 00-.199.037zm10.728.16a1.114 1.114 0 00.988 1.22 1.121 1.121 0 001.219-.988 1.108 1.108 0 00-.988-1.218 1.124 1.124 0 00-.2-.009 1.115 1.115 0 00-1.019.997zm-16.415 1.792a1.111 1.111 0 00-.564 1.462 1.128 1.128 0 001.473.564 1.114 1.114 0 00.551-1.472 1.1 1.1 0 00-1.09-.646 1.183 1.183 0 00-.367.093zm22.152-.87a1.106 1.106 0 00.76 1.368 1.105 1.105 0 001.37-.761 1.113 1.113 0 00-.751-1.37 1.168 1.168 0 00-.391-.04 1.107 1.107 0 00-.988.803zm-27.403 3.782a1.1 1.1 0 00-.304 1.533 1.12 1.12 0 001.543.302 1.114 1.114 0 00.293-1.542 1.1 1.1 0 00-1-.485 1 1 0 00-.532.192zm32.905-1.878a1.107 1.107 0 00.515 1.484 1.093 1.093 0 001.475-.504 1.108 1.108 0 00-.505-1.486 1.132 1.132 0 00-.563-.116 1.113 1.113 0 00-.922.622zm-37.58 5.648a1.107 1.107 0 00-.022 1.568 1.106 1.106 0 001.564.035 1.118 1.118 0 00.023-1.568 1.1 1.1 0 00-.878-.34 1.164 1.164 0 00-.687.305zm42.665-2.805a1.108 1.108 0 00.241 1.549 1.11 1.11 0 001.55-.253 1.1 1.1 0 00-.243-1.538 1.107 1.107 0 00-.735-.215 1.089 1.089 0 00-.813.457zm-46.613 7.335a1.108 1.108 0 00.252 1.548 1.085 1.085 0 001.54-.24 1.108 1.108 0 00-.242-1.55 1.115 1.115 0 00-.726-.204 1.141 1.141 0 00-.824.446zm51.125-3.662a1.1 1.1 0 00-.024 1.569 1.116 1.116 0 001.563.022 1.118 1.118 0 00.024-1.569 1.094 1.094 0 00-.879-.34 1.106 1.106 0 00-.684.318zm-54.23 8.812a1.106 1.106 0 00.513 1.475 1.094 1.094 0 001.477-.504h.01a1.1 1.1 0 00-.514-1.474 1.023 1.023 0 00-.564-.117 1.118 1.118 0 00-.923.618zm58.046-4.413a1.1 1.1 0 00-.304 1.532 1.121 1.121 0 001.543.303 1.106 1.106 0 00.293-1.543 1.1 1.1 0 00-.99-.486 1.024 1.024 0 00-.542.192zm-60.21 10.017a1.1 1.1 0 00.764 1.367 1.107 1.107 0 001.368-.75 1.12 1.12 0 00-.752-1.38 1.168 1.168 0 00-.39-.04 1.117 1.117 0 00-.99.803zm63.204-5.031a1.107 1.107 0 00-.565 1.46 1.106 1.106 0 001.46.565 1.116 1.116 0 00.563-1.471 1.109 1.109 0 00-1.089-.646 1.11 1.11 0 00-.371.092zm-64.354 10.93a1.122 1.122 0 00.987 1.22 1.111 1.111 0 001.22-.987l-.001-.009a1.089 1.089 0 00-.987-1.208 1.246 1.246 0 00-.19-.01 1.116 1.116 0 00-1.031.995zm66.424-5.498a1.12 1.12 0 00-.808 1.343 1.106 1.106 0 001.343.807 1.1 1.1 0 00.807-1.342 1.107 1.107 0 00-1.161-.829 1.155 1.155 0 00-.181.02z" fill="#00c9fd"></path></g><g data-name="Group 42"><path data-name="Path 74" d="M200.85 45.427a1.106 1.106 0 00-.762.386 1.069 1.069 0 00-.267.796 1.093 1.093 0 00.376.761 1.146 1.146 0 001.558-.109 1.107 1.107 0 00.277-.807 1.082 1.082 0 00-.386-.751 1.08 1.08 0 00-.797-.276z" fill="#00c9fd"></path></g></g></g></g><g data-name="Group 50"><g data-name="Group 15"><g data-name="Group 12"><path data-name="Path 51" d="M1.113 63.835a1.084 1.084 0 00-.761.386.966.966 0 00-.219.37 1.107 1.107 0 00-.06.427 1.085 1.085 0 00.39.76 1.1 1.1 0 001.02.23 1.48 1.48 0 00.205-.07 1.01 1.01 0 00.178-.124.913.913 0 00.156-.144 1.078 1.078 0 00.265-.807 1.1 1.1 0 00-.106-.414 1.136 1.136 0 00-.268-.338 2.1 2.1 0 00-.176-.132 2.96 2.96 0 00-.195-.086 1.543 1.543 0 00-.214-.051 1.259 1.259 0 00-.215-.007z" fill="#04f489"></path></g><g data-name="Group 13"><path data-name="Path 52" d="M1.75 69.733a1.119 1.119 0 00-.874 1.306 1.111 1.111 0 001.305.875 1.111 1.111 0 00.875-1.305 1.129 1.129 0 00-1.165-.896c-.041 0-.096.017-.14.02zm92.554-5.429a1.112 1.112 0 001.048 1.17 1.106 1.106 0 001.16-1.047 1.109 1.109 0 00-1.038-1.171c-.055.004-.1-.004-.144-.001a1.1 1.1 0 00-1.026 1.05zM3.124 75.5a1.121 1.121 0 00-.704 1.404 1.121 1.121 0 001.404.704 1.114 1.114 0 00.704-1.405 1.111 1.111 0 00-1.13-.753 1.258 1.258 0 00-.278.05zm90.49-5.45a1.092 1.092 0 00.892 1.281 1.094 1.094 0 001.283-.879 1.1 1.1 0 00-.892-1.291 1.1 1.1 0 00-.268-.016 1.1 1.1 0 00-1.014.904zM5.22 81.05a1.108 1.108 0 00-.53 1.482 1.121 1.121 0 001.48.518 1.1 1.1 0 00.519-1.481 1.1 1.1 0 00-1.077-.627 1.03 1.03 0 00-.392.108zm86.988-5.394a1.1 1.1 0 00.72 1.394 1.1 1.1 0 001.382-.719 1.1 1.1 0 00-.708-1.393 1.083 1.083 0 00-.415-.048 1.1 1.1 0 00-.979.766zM7.984 86.289a1.112 1.112 0 00-.326 1.533 1.109 1.109 0 001.534.326 1.1 1.1 0 00.326-1.526 1.084 1.084 0 00-1.013-.507 1.145 1.145 0 00-.521.174zm82.123-5.241v-.012a1.1 1.1 0 00.536 1.474 1.1 1.1 0 001.473-.537 1.12 1.12 0 00-.536-1.472 1.183 1.183 0 00-.551-.095 1.1 1.1 0 00-.922.64zM11.4 91.138a1.1 1.1 0 00-.135 1.565 1.092 1.092 0 001.554.136 1.1 1.1 0 00.134-1.564 1.12 1.12 0 00-.93-.392 1.13 1.13 0 00-.623.254zm75.942-5.01a1.091 1.091 0 00.35 1.52 1.1 1.1 0 001.52-.34h.01a1.122 1.122 0 00-.35-1.53 1.121 1.121 0 00-.667-.166 1.093 1.093 0 00-.863.515zm-71.96 9.397a1.116 1.116 0 00.067 1.573 1.1 1.1 0 001.56-.064 1.1 1.1 0 00-.064-1.563 1.1 1.1 0 00-.832-.296 1.106 1.106 0 00-.731.348zm68.578-4.707a1.118 1.118 0 00.166 1.566 1.1 1.1 0 001.554-.152 1.117 1.117 0 00-.153-1.567 1.133 1.133 0 00-.784-.246 1.165 1.165 0 00-.783.397zm-64.075 8.569a1.106 1.106 0 00.252 1.54 1.1 1.1 0 001.548-.253 1.108 1.108 0 00-.253-1.548 1.136 1.136 0 00-.725-.205 1.126 1.126 0 00-.823.464zM80.03 95.07a1.116 1.116 0 00-.035 1.568 1.116 1.116 0 001.568.035 1.117 1.117 0 00.035-1.569 1.1 1.1 0 00-.879-.34 1.1 1.1 0 00-.693.304zm-55.194 7.568a1.115 1.115 0 00.45 1.513 1.123 1.123 0 001.501-.451 1.108 1.108 0 00-.453-1.502 1.077 1.077 0 00-.598-.136 1.1 1.1 0 00-.904.576zm50.766-3.85a1.1 1.1 0 00-.235 1.549 1.117 1.117 0 001.548.235 1.123 1.123 0 00.237-1.549 1.124 1.124 0 00-.976-.454 1.044 1.044 0 00-.578.219zm-45.45 6.476a1.108 1.108 0 00.628 1.435 1.114 1.114 0 001.433-.634 1.111 1.111 0 00-.633-1.433 1.03 1.03 0 00-.472-.079 1.1 1.1 0 00-.96.711zm40.583-3.348a1.1 1.1 0 00-.428 1.506 1.1 1.1 0 001.5.429 1.111 1.111 0 00.428-1.508 1.109 1.109 0 00-1.05-.559 1.163 1.163 0 00-.454.132zm-34.989 5.267a1.127 1.127 0 00.802 1.355l.011-.001a1.111 1.111 0 001.347-.816 1.111 1.111 0 00-.816-1.346 1.184 1.184 0 00-.346-.032 1.115 1.115 0 00-.998.84zm29.761-2.77a1.114 1.114 0 00-.61 1.447 1.115 1.115 0 001.447.62v-.01a1.1 1.1 0 00.61-1.432 1.11 1.11 0 00-1.104-.7 1.246 1.246 0 00-.343.076zm-23.956 3.985a1.114 1.114 0 00.974 1.235 1.123 1.123 0 001.235-.974 1.117 1.117 0 00-.975-1.235 1.231 1.231 0 00-.211-.007 1.113 1.113 0 00-1.023.981zm18.464-2.168a1.114 1.114 0 00-.795 1.359 1.109 1.109 0 001.36.794 1.116 1.116 0 00.792-1.359 1.1 1.1 0 00-1.146-.822 1.275 1.275 0 00-.211.028zm-12.556 2.633a1.106 1.106 0 001.118 1.102 1.113 1.113 0 001.099-1.12 1.121 1.121 0 00-1.122-1.1l-.065.005a1.107 1.107 0 00-1.03 1.113zm6.88-1.514a1.1 1.1 0 00-.957 1.244 1.1 1.1 0 001.244.95 1.091 1.091 0 00.946-1.244 1.1 1.1 0 00-1.163-.955l-.067.005z" fill="#04f489"></path></g><g data-name="Group 14"><path data-name="Path 53" d="M95.285 57.25a1.11 1.11 0 00-.414.118 1.006 1.006 0 00-.348.269 1.118 1.118 0 00-.266.796 1.144 1.144 0 00.375.762 1.33 1.33 0 00.382.218 1.132 1.132 0 001.188-.328 1.144 1.144 0 00.265-.807 1.118 1.118 0 00-.374-.751.922.922 0 00-.382-.218 1.11 1.11 0 00-.426-.059z" fill="#04f489"></path></g></g><g data-name="Group 19"><g data-name="Group 16"><path data-name="Path 54" d="M15.042 62.862a1.379 1.379 0 00-.22.032 1.462 1.462 0 00-.194.08 1.123 1.123 0 00-.193.113 2.1 2.1 0 00-.155.156.494.494 0 00-.122.175 1.065 1.065 0 00-.097.196 1.148 1.148 0 00-.04.213.661.661 0 00-.009.212 1.093 1.093 0 00.378.767 1.132 1.132 0 001.222.159 1.132 1.132 0 00.336-.268.975.975 0 00.219-.37 1.22 1.22 0 00.057-.437 1.078 1.078 0 00-.385-.751 1.078 1.078 0 00-.797-.277z" fill="#04f489"></path></g><g data-name="Group 17"><path data-name="Path 55" d="M15.756 68.619a1.115 1.115 0 00-.816 1.346 1.112 1.112 0 001.344.808 1.094 1.094 0 00.808-1.344 1.1 1.1 0 00-1.147-.831 1.078 1.078 0 00-.189.02zm64.471-3.553a1.122 1.122 0 00.988 1.219 1.11 1.11 0 001.219-.988 1.1 1.1 0 00-.988-1.22 1.391 1.391 0 00-.19-.008 1.115 1.115 0 00-1.029.997zm-62.77 9.1a1.1 1.1 0 00-.565 1.462 1.114 1.114 0 001.46.564 1.117 1.117 0 00.563-1.473 1.12 1.12 0 00-1.089-.656.9.9 0 00-.37.102zm61.7-3.604a1.108 1.108 0 00.761 1.368 1.105 1.105 0 001.369-.762 1.106 1.106 0 00-.763-1.368 1.134 1.134 0 00-.38-.04 1.1 1.1 0 00-.988.802zm-59.065 8.761a1.09 1.09 0 00-.293 1.532 1.1 1.1 0 001.531.303 1.12 1.12 0 00.304-1.542 1.131 1.131 0 00-1-.486 1.126 1.126 0 00-.542.192zm57.052-3.544a1.09 1.09 0 00.504 1.474 1.1 1.1 0 001.486-.504 1.105 1.105 0 00-.513-1.474 1 1 0 00-.564-.116 1.1 1.1 0 00-.913.619zm-53.553 8.165a1.094 1.094 0 00-.024 1.556 1.1 1.1 0 001.558.035 1.109 1.109 0 00.035-1.568 1.1 1.1 0 00-.88-.34 1.091 1.091 0 00-.689.316zm50.656-3.377a1.107 1.107 0 00.24 1.549 1.11 1.11 0 001.55-.242 1.119 1.119 0 00-.241-1.55 1.1 1.1 0 00-.725-.205 1.121 1.121 0 00-.824.448zm-46.415 7.317a1.094 1.094 0 00.252 1.537l-.01.001a1.105 1.105 0 001.548-.24 1.109 1.109 0 00-.244-1.546 1.16 1.16 0 00-.725-.204 1.1 1.1 0 00-.82.452zm42.733-3.1a1.108 1.108 0 00-.023 1.57 1.106 1.106 0 001.567.023 1.105 1.105 0 00.024-1.567 1.121 1.121 0 00-.878-.328 1.1 1.1 0 00-.69.307zm-37.87 6.253a1.116 1.116 0 00.505 1.486 1.12 1.12 0 001.486-.516 1.119 1.119 0 00-.505-1.486 1.125 1.125 0 00-.563-.104 1.1 1.1 0 00-.923.62zm33.52-2.722a1.094 1.094 0 00-.294 1.531 1.1 1.1 0 001.532.304 1.11 1.11 0 00.304-1.532 1.1 1.1 0 00-1.001-.496 1.129 1.129 0 00-.541.193zM38.03 93.293a1.1 1.1 0 00.761 1.37 1.09 1.09 0 001.37-.75 1.1 1.1 0 00-.763-1.368 1.106 1.106 0 00-.38-.04 1.11 1.11 0 00-.99.791zm23.287-2.273a1.1 1.1 0 00-.564 1.461 1.106 1.106 0 001.461.565 1.106 1.106 0 00.565-1.461 1.107 1.107 0 00-1.093-.655 1.111 1.111 0 00-.37.093zm-17.644 3.57a1.11 1.11 0 00.996 1.218 1.089 1.089 0 001.208-.987 1.106 1.106 0 00-.987-1.219 1.1 1.1 0 00-.19.003 1.116 1.116 0 00-1.027.985zm12.35-1.753a1.107 1.107 0 00-.808 1.345 1.1 1.1 0 001.334.808 1.11 1.11 0 00.816-1.352 1.116 1.116 0 00-1.16-.829 1.143 1.143 0 00-.181.028zm-5.537.865a1.111 1.111 0 00-1.028 1.183 1.112 1.112 0 001.182 1.028 1.115 1.115 0 001.04-1.184 1.111 1.111 0 00-1.183-1.028l-.011.001z" fill="#04f489"></path></g><g data-name="Group 18"><path data-name="Path 56" d="M81.358 58.224a1.211 1.211 0 00-.424.118.966.966 0 00-.337.268 1.136 1.136 0 00-.219.371 1.1 1.1 0 00-.047.426.758.758 0 00.037.219 1.524 1.524 0 00.07.206 1.776 1.776 0 00.124.18.881.881 0 00.144.157 1.136 1.136 0 00.371.218 1.151 1.151 0 001.2-.328l.12-.175a1.491 1.491 0 00.086-.195l.052-.215a1.517 1.517 0 00.005-.222 1.106 1.106 0 00-.117-.414 1.1 1.1 0 00-.256-.337 1.127 1.127 0 00-.81-.277z" fill="#04f489"></path></g></g><g data-name="Group 23"><g data-name="Group 20"><path data-name="Path 57" d="M28.626 61.912a1.116 1.116 0 00-1.028 1.182 1.145 1.145 0 00.376.762 1.136 1.136 0 001.222.16 1.168 1.168 0 00.347-.27 1.139 1.139 0 00.265-.806 1.26 1.26 0 00-.036-.21.661.661 0 00-.08-.204.624.624 0 00-.114-.182 1.093 1.093 0 00-.144-.156 1.122 1.122 0 00-.808-.276z" fill="#04f489"></path></g><g data-name="Group 21"><path data-name="Path 58" d="M29.491 67.448a1.094 1.094 0 00-.644 1.421 1.109 1.109 0 001.422.657 1.109 1.109 0 00.642-1.42 1.09 1.09 0 00-1.117-.724 1.024 1.024 0 00-.303.066zm36.87-1.812a1.1 1.1 0 00.836 1.318 1.1 1.1 0 001.32-.836 1.1 1.1 0 00-.838-1.318 1.049 1.049 0 00-.313-.035 1.115 1.115 0 00-1.006.87zM31.886 72.5a1.1 1.1 0 00-.224 1.548 1.1 1.1 0 001.548.225 1.1 1.1 0 00.226-1.548 1.093 1.093 0 00-.965-.443 1.078 1.078 0 00-.585.218zm32.62-1.932a1.107 1.107 0 00.427 1.504 1.119 1.119 0 001.51-.437l-.01.001a1.11 1.11 0 00-.429-1.515 1.113 1.113 0 00-.61-.134 1.093 1.093 0 00-.888.58zM35.61 76.67a1.1 1.1 0 00.218 1.551 1.1 1.1 0 001.55-.219 1.116 1.116 0 00-.22-1.551 1.144 1.144 0 00-.747-.215 1.067 1.067 0 00-.8.434zm25.724-1.899a1.1 1.1 0 00-.001 1.566 1.1 1.1 0 001.566.002 1.115 1.115 0 00.001-1.566 1.106 1.106 0 00-.866-.317 1.115 1.115 0 00-.7.315zM40.351 79.64a1.1 1.1 0 00.643 1.42 1.114 1.114 0 001.432-.644 1.11 1.11 0 00-.655-1.43 1.075 1.075 0 00-.46-.069 1.1 1.1 0 00-.96.723zm16.762-1.716a1.106 1.106 0 00-.45 1.497 1.111 1.111 0 001.51.45 1.109 1.109 0 00.437-1.508 1.107 1.107 0 00-1.05-.571 1.075 1.075 0 00-.447.132zm-11.381 3.216a1.1 1.1 0 001.026 1.184 1.11 1.11 0 001.184-1.028 1.11 1.11 0 00-1.027-1.183c-.056.004-.1-.004-.156 0a1.108 1.108 0 00-1.027 1.027zm6.443-1.395a1.114 1.114 0 00-.85 1.327 1.1 1.1 0 001.313.84l.001.012a1.113 1.113 0 00.85-1.325 1.108 1.108 0 00-1.163-.874c-.052.002-.106.017-.151.02z" fill="#04f489"></path></g><g data-name="Group 22"><path data-name="Path 59" d="M67.775 59.175a1.143 1.143 0 00-.763.375 1.124 1.124 0 00-.13.189 2.96 2.96 0 00-.087.195 1.148 1.148 0 00-.04.214.69.69 0 00-.008.212 1.113 1.113 0 00.375.757 1.146 1.146 0 001.558-.109 1.125 1.125 0 00.278-.807 1.375 1.375 0 00-.037-.204c-.027-.076-.055-.14-.081-.205s-.075-.128-.113-.181a1.072 1.072 0 00-.156-.167 1.048 1.048 0 00-.176-.125 1.019 1.019 0 00-.195-.086.779.779 0 00-.216-.051 1.247 1.247 0 00-.209-.007z" fill="#04f489"></path></g></g><g data-name="Group 27"><g data-name="Group 24"><path data-name="Path 60" d="M161.756 47.048a1.1 1.1 0 00-.76.386.476.476 0 00-.122.176.971.971 0 00-.097.195 1.15 1.15 0 00-.042.213.69.69 0 00-.007.212.755.755 0 00.037.22 2.035 2.035 0 00.071.206 1.544 1.544 0 00.124.18.842.842 0 00.144.156 1.1 1.1 0 00.371.219 1.132 1.132 0 00.85-.06 1.119 1.119 0 00.337-.268 1.94 1.94 0 00.132-.176 1.55 1.55 0 00.087-.194 1.789 1.789 0 00.05-.215 1.382 1.382 0 00.008-.222 1.262 1.262 0 00-.038-.21 1.014 1.014 0 00-.08-.204.985.985 0 00-.113-.18.7.7 0 00-.156-.157 1.082 1.082 0 00-.796-.277z" fill="#04f489"></path></g><g data-name="Group 25"><path data-name="Path 61" d="M108.39 3.553a1.1 1.1 0 00-.945 1.243 1.1 1.1 0 001.232.959 1.113 1.113 0 00.958-1.245 1.107 1.107 0 00-1.178-.961l-.067.004zm4.947.698a1.115 1.115 0 001.121 1.1 1.1 1.1 0 001.1-1.11 1.113 1.113 0 00-1.121-1.102c-.023.001-.045-.008-.068-.007a1.113 1.113 0 00-1.032 1.12zm-10.894.473v-.01a1.121 1.121 0 00-.794 1.358 1.114 1.114 0 001.36.794 1.1 1.1 0 00.792-1.359 1.1 1.1 0 00-1.145-.822 1.532 1.532 0 00-.215.04zm16.821-.287a1.11 1.11 0 00.975 1.235 1.1 1.1 0 001.236-.963 1.109 1.109 0 00-.975-1.235l.011-.001a1.516 1.516 0 00-.211-.008 1.124 1.124 0 00-1.04.972zM96.693 6.626a1.106 1.106 0 00-.62 1.447 1.112 1.112 0 001.445.61 1.1 1.1 0 00.611-1.447 1.1 1.1 0 00-1.104-.688 1.166 1.166 0 00-.337.078zm28.418-1.254a1.108 1.108 0 00.817 1.346 1.111 1.111 0 001.347-.806 1.112 1.112 0 00-.817-1.346 1.165 1.165 0 00-.335-.032 1.118 1.118 0 00-1.012.838zM91.206 9.246a1.114 1.114 0 00-.428 1.508 1.106 1.106 0 001.508.427 1.1 1.1 0 00.428-1.507 1.105 1.105 0 00-1.042-.56 1.192 1.192 0 00-.466.128zm39.597-2.202a1.114 1.114 0 00.634 1.433 1.111 1.111 0 001.433-.634 1.1 1.1 0 00-.635-1.433.994.994 0 00-.471-.077 1.119 1.119 0 00-.961.707zM86.105 12.53a1.12 1.12 0 00-.236 1.55 1.113 1.113 0 001.549.236 1.1 1.1 0 00.236-1.55 1.107 1.107 0 00-.965-.454 1.073 1.073 0 00-.584.218zm50.128-3.128a1.111 1.111 0 00.45 1.502 1.1 1.1 0 001.501-.45 1.1 1.1 0 00-.45-1.501 1.127 1.127 0 00-.598-.136 1.125 1.125 0 00-.903.585zm-54.776 7.03a1.106 1.106 0 00-.036 1.557 1.109 1.109 0 001.57.046 1.116 1.116 0 00.035-1.569 1.1 1.1 0 00-.879-.34 1.094 1.094 0 00-.69.306zm59.875-4.01a1.1 1.1 0 00.253 1.55 1.107 1.107 0 001.548-.254 1.118 1.118 0 00-.252-1.549 1.164 1.164 0 00-.726-.204 1.1 1.1 0 00-.823.457zm-63.994 8.452a1.1 1.1 0 00.153 1.555 1.116 1.116 0 001.566-.155 1.1 1.1 0 00-.153-1.555 1.131 1.131 0 00-.783-.246 1.1 1.1 0 00-.784.4zm68.668-4.814a1.119 1.119 0 00.066 1.573 1.1 1.1 0 001.561-.065 1.1 1.1 0 00-.064-1.561 1.085 1.085 0 00-.822-.299 1.113 1.113 0 00-.742.352zm-72.205 9.736a1.1 1.1 0 00.351 1.53 1.108 1.108 0 001.518-.35 1.1 1.1 0 00-.35-1.53 1.062 1.062 0 00-.656-.165 1.092 1.092 0 00-.863.515zm76.393-5.542a1.1 1.1 0 00-.135 1.564 1.092 1.092 0 001.553.136 1.093 1.093 0 00.136-1.554 1.1 1.1 0 00-.93-.401 1.133 1.133 0 00-.618.256zM70.907 31.12a1.1 1.1 0 00.537 1.472 1.109 1.109 0 001.472-.535 1.115 1.115 0 00-.547-1.472 1.142 1.142 0 00-.54-.096 1.091 1.091 0 00-.918.632zm82.917-6.175a1.11 1.11 0 00-.325 1.534 1.107 1.107 0 001.533.326 1.107 1.107 0 00.33-1.534 1.1 1.1 0 00-1.013-.496 1.192 1.192 0 00-.525.17zM68.708 36.771a1.1 1.1 0 00.719 1.395 1.122 1.122 0 001.394-.72 1.112 1.112 0 00-.72-1.393 1.1 1.1 0 00-.415-.05 1.086 1.086 0 00-.978.768zm88.139-6.718a1.1 1.1 0 00-.52 1.47l.002.01a1.111 1.111 0 001.48.519 1.12 1.12 0 00.518-1.48 1.125 1.125 0 00-1.077-.627 1.045 1.045 0 00-.403.108zM67.23 42.65a1.11 1.11 0 00.893 1.293 1.1 1.1 0 001.281-.892 1.106 1.106 0 00-.879-1.294 1.272 1.272 0 00-.279-.013 1.1 1.1 0 00-1.016.906zm91.964-7.156a1.1 1.1 0 00-.704 1.394 1.119 1.119 0 001.405.713 1.126 1.126 0 00.703-1.403 1.12 1.12 0 00-1.13-.754 1.186 1.186 0 00-.274.05zM66.508 48.674a1.107 1.107 0 001.047 1.163 1.107 1.107 0 001.16-1.038 1.1 1.1 0 00-1.037-1.17.63.63 0 00-.144-.002 1.11 1.11 0 00-1.026 1.049zm94.329-7.48a1.106 1.106 0 00-.876 1.292 1.11 1.11 0 001.305.875 1.107 1.107 0 00.876-1.294 1.119 1.119 0 00-1.166-.896.632.632 0 00-.14.024z" fill="#04f489"></path></g><g data-name="Group 26"><path data-name="Path 62" d="M67.576 53.633a1.122 1.122 0 00-.76.387 1.089 1.089 0 00-.209.37 1.088 1.088 0 00-.059.426 1.192 1.192 0 00.119.425 1.084 1.084 0 00.257.337 1.135 1.135 0 001.221.159 1.233 1.233 0 00.348-.269 1.118 1.118 0 00.208-.37 1.014 1.014 0 00.058-.436.932.932 0 00-.117-.414 1.122 1.122 0 00-.258-.338.943.943 0 00-.382-.218 1.11 1.11 0 00-.426-.059z" fill="#04f489"></path></g></g><g data-name="Group 31"><g data-name="Group 28"><path data-name="Path 63" d="M147.962 48.012a1.11 1.11 0 00-.414.118 1.135 1.135 0 00-.347.268 1.119 1.119 0 00-.267.797 1.111 1.111 0 00.118.414 1.025 1.025 0 00.258.348 1.594 1.594 0 00.381.218 1.14 1.14 0 00.645.01 1.311 1.311 0 00.196-.07 1.664 1.664 0 00.192-.124.849.849 0 00.155-.144 1.026 1.026 0 00.207-.38 1.091 1.091 0 00.058-.427 1.113 1.113 0 00-.374-.751 1.8 1.8 0 00-.176-.132.89.89 0 00-.206-.086.7.7 0 00-.204-.052 1.519 1.519 0 00-.222-.007z" fill="#04f489"></path></g><g data-name="Group 29"><path data-name="Path 64" d="M111.338 18.23a1.1 1.1 0 001.183 1.029 1.112 1.112 0 001.028-1.183 1.111 1.111 0 00-1.183-1.028 1.1 1.1 0 00-1.028 1.183zm-4.906-.258a1.109 1.109 0 00-.815 1.346 1.106 1.106 0 001.345.808 1.1 1.1 0 00.808-1.344 1.114 1.114 0 00-1.148-.842 1.009 1.009 0 00-.19.033zm10.72.162a1.112 1.112 0 00.987 1.219 1.115 1.115 0 001.22-.988 1.1 1.1 0 00-.988-1.218 1.136 1.136 0 00-.201-.009 1.1 1.1 0 00-1.018.997zm-16.403 1.79a1.1 1.1 0 00-.564 1.462 1.111 1.111 0 001.462.565 1.12 1.12 0 00.563-1.462 1.1 1.1 0 00-1.09-.657 1.088 1.088 0 00-.37.093zm22.154-.87a1.1 1.1 0 00.75 1.368 1.1 1.1 0 001.368-.761 1.1 1.1 0 00-.751-1.37 1.168 1.168 0 00-.39-.04 1.089 1.089 0 00-.977.804zm-27.414 3.782a1.1 1.1 0 00-.304 1.532 1.109 1.109 0 001.543.302 1.105 1.105 0 00.293-1.54 1.1 1.1 0 00-.99-.487 1.024 1.024 0 00-.542.194zm32.9-1.877a1.118 1.118 0 00.515 1.485 1.105 1.105 0 001.486-.505 1.119 1.119 0 00-.515-1.486 1.118 1.118 0 00-.562-.105 1.116 1.116 0 00-.924.61zm-37.58 5.648h.012a1.109 1.109 0 00-.034 1.568 1.108 1.108 0 001.564.035 1.109 1.109 0 00.025-1.568 1.078 1.078 0 00-.868-.34 1.17 1.17 0 00-.699.305zm42.666-2.805a1.108 1.108 0 00.241 1.549 1.108 1.108 0 001.548-.253 1.093 1.093 0 00-.24-1.538 1.1 1.1 0 00-.726-.216 1.1 1.1 0 00-.823.458zm-46.601 7.346a1.084 1.084 0 00.24 1.538 1.1 1.1 0 001.55-.242 1.109 1.109 0 00-.253-1.548 1.115 1.115 0 00-.725-.205 1.091 1.091 0 00-.812.459zm51.112-3.675a1.116 1.116 0 00-.024 1.569 1.118 1.118 0 001.564.024 1.11 1.11 0 00.023-1.569 1.092 1.092 0 00-.869-.34 1.113 1.113 0 00-.694.318zm-54.218 8.812a1.106 1.106 0 00.505 1.486 1.12 1.12 0 001.486-.515 1.106 1.106 0 00-.514-1.474 1.1 1.1 0 00-.564-.116 1.1 1.1 0 00-.914.619zm58.034-4.413a1.106 1.106 0 00-.304 1.532 1.12 1.12 0 001.543.303 1.121 1.121 0 00.303-1.543 1.129 1.129 0 00-1-.486 1.126 1.126 0 00-.541.194zM81.604 41.89a1.1 1.1 0 00.752 1.37 1.108 1.108 0 001.368-.752 1.111 1.111 0 00-.75-1.38 1.174 1.174 0 00-.392-.04 1.093 1.093 0 00-.978.802zm63.191-5.03a1.106 1.106 0 00-.565 1.461 1.105 1.105 0 001.462.565 1.108 1.108 0 00.563-1.463 1.1 1.1 0 00-1.09-.657 1.124 1.124 0 00-.37.094zM80.452 47.79a1.089 1.089 0 00.987 1.21 1.106 1.106 0 001.219-.988h-.011a1.089 1.089 0 00-.987-1.208.987.987 0 00-.19-.01 1.094 1.094 0 00-1.018.996zm66.414-5.498a1.122 1.122 0 00-.808 1.344 1.108 1.108 0 001.344.806 1.1 1.1 0 00.81-1.334 1.1 1.1 0 00-1.147-.842 1.226 1.226 0 00-.199.026z" fill="#04f489"></path></g><g data-name="Group 30"><path data-name="Path 65" d="M81.37 52.669a1.518 1.518 0 00-.22.037 1.365 1.365 0 00-.194.08 1.869 1.869 0 00-.193.114l-.156.139a1.16 1.16 0 00-.265.808 1.139 1.139 0 00.375.766.849.849 0 00.175.121 1.667 1.667 0 00.208.097 1.31 1.31 0 00.203.041 1.139 1.139 0 00.637-.1 1.3 1.3 0 00.347-.269 1.145 1.145 0 00.266-.806 1.166 1.166 0 00-.376-.768 1.309 1.309 0 00-.38-.207 1.11 1.11 0 00-.427-.053z" fill="#04f489"></path></g></g><g data-name="Group 47"><g data-name="Group 44"><path data-name="Path 75" d="M134.234 48.972a1.361 1.361 0 00-.208.037.692.692 0 00-.206.08.642.642 0 00-.18.113.712.712 0 00-.156.156.966.966 0 00-.218.37 1.107 1.107 0 00-.06.427 1.089 1.089 0 00.387.76.494.494 0 00.175.122 1 1 0 00.195.097 1.229 1.229 0 00.215.04.955.955 0 00.43-.03 1.031 1.031 0 00.196-.068 1.105 1.105 0 00.192-.125.849.849 0 00.156-.144 1.139 1.139 0 00.265-.807 1.113 1.113 0 00-.374-.751 1.8 1.8 0 00-.176-.132.708.708 0 00-.207-.086.6.6 0 00-.204-.052 1.518 1.518 0 00-.222-.007z" fill="#04f489"></path></g><g data-name="Group 45"><path data-name="Path 76" d="M110.378 31.178a1.11 1.11 0 00-.853 1.315 1.109 1.109 0 001.314.852 1.1 1.1 0 00.854-1.315 1.109 1.109 0 00-1.164-.873c-.042.005-.096.017-.151.021zm4.696.616a1.1 1.1 0 001.027 1.183 1.1 1.1 0 001.184-1.016 1.113 1.113 0 00-1.027-1.194c-.056.004-.1-.004-.156 0a1.109 1.109 0 00-1.027 1.03zm-10.224 1.437a1.1 1.1 0 00-.44 1.496 1.106 1.106 0 001.497.45 1.119 1.119 0 00.45-1.507 1.1 1.1 0 00-1.05-.571 1.012 1.012 0 00-.461.135zm15.755-.547a1.092 1.092 0 00.644 1.42 1.1 1.1 0 001.421-.642 1.116 1.116 0 00-.644-1.432 1.117 1.117 0 00-.461-.068 1.1 1.1 0 00-.964.726zm-20.474 4.064a1.108 1.108 0 00-.013 1.567 1.119 1.119 0 001.577.012 1.129 1.129 0 00.001-1.577 1.141 1.141 0 00-.865-.317 1.1 1.1 0 00-.704.319zm25.503-1.658a1.13 1.13 0 00.22 1.562h.011a1.107 1.107 0 001.55-.232 1.108 1.108 0 00-.23-1.55h.01a1.144 1.144 0 00-.747-.214 1.143 1.143 0 00-.814.434zM96.58 41.466a1.107 1.107 0 00.428 1.502 1.112 1.112 0 001.51-.435 1.111 1.111 0 00-.439-1.503 1.107 1.107 0 00-.61-.135 1.093 1.093 0 00-.889.57zm33.225-2.634a1.1 1.1 0 00-.224 1.547 1.109 1.109 0 001.548.225 1.112 1.112 0 00.226-1.56 1.11 1.11 0 00-.964-.434 1.073 1.073 0 00-.586.22zM94.5 46.985a1.1 1.1 0 00.837 1.32 1.119 1.119 0 001.33-.849 1.115 1.115 0 00-.848-1.318 1.632 1.632 0 00-.313-.023 1.093 1.093 0 00-1.006.87zm38.255-3.408a1.1 1.1 0 00-.653 1.42 1.11 1.11 0 001.42.659 1.112 1.112 0 00.659-1.422 1.108 1.108 0 00-1.117-.724.961.961 0 00-.306.067z" fill="#04f489"></path></g><g data-name="Group 46"><path data-name="Path 77" d="M95.098 51.711a1.1 1.1 0 00-.767.385 1.072 1.072 0 00-.266.797 1.2 1.2 0 00.112.425 1.132 1.132 0 00.263.336 1.146 1.146 0 001.558-.11.962.962 0 00.224-.369 1.213 1.213 0 00.059-.437 1.079 1.079 0 00-.387-.75 1.079 1.079 0 00-.796-.277z" fill="#04f489"></path></g></g></g></g></svg>